<?xml version="1.0" encoding="utf-8"?>
<!-- Generator: Adobe Illustrator 19.2.1, SVG Export Plug-In . SVG Version: 6.00 Build 0)  -->
<svg version="1.1" id="Layer_1" xmlns="http://www.w3.org/2000/svg" xmlns:xlink="http://www.w3.org/1999/xlink" x="0px" y="0px"
	 viewBox="0 0 100 100" style="enable-background:new 0 0 100 100;" xml:space="preserve">
<style type="text/css">
	.st0{opacity:0.1;fill:#5A54A4;enable-background:new    ;}
	.st1{fill:#5A54A4;}
	.st2{fill:#E81F64;}
	.st3{fill:#D6CAE3;}
</style>
<rect x="26.5" y="13.5" class="st0" width="50.8" height="83.1"/>
<title>icn-mobile-apps</title>
<path class="st1" d="M73.5,93.4H21.7V9.1h51.8V93.4z M24.7,90.4h45.8V12.1H24.7V90.4z"/>
<path class="st2" d="M47.6,47.7c-4.9,0-8.9-4-8.9-8.9s4-8.9,8.9-8.9s8.9,4,8.9,8.9S52.5,47.7,47.6,47.7z M47.6,33
	c-3.2,0-5.9,2.6-5.9,5.9s2.6,5.9,5.9,5.9c3.2,0,5.9-2.6,5.9-5.9S50.8,33,47.6,33L47.6,33z"/>
<path class="st1" d="M47.6,88.9c-2.7,0-4.9-2.2-4.9-4.9c0-2.7,2.2-4.9,4.9-4.9s4.9,2.2,4.9,4.9C52.5,86.7,50.3,88.9,47.6,88.9
	L47.6,88.9z M47.6,82.2c-1,0-1.8,0.8-1.8,1.8s0.8,1.8,1.8,1.8s1.8-0.8,1.8-1.8C49.5,83,48.6,82.2,47.6,82.2z"/>
<rect x="19.1" y="51.1" class="st2" width="57" height="3"/>
<rect x="19.1" y="65.2" class="st2" width="57" height="3"/>
<rect x="19.1" y="58.1" class="st2" width="57" height="3"/>
<rect x="23.2" y="20.4" class="st1" width="48.8" height="3"/>
<rect x="23.2" y="74.5" class="st1" width="48.8" height="3"/>
<rect x="41.3" y="14.9" class="st1" width="12.5" height="3"/>
<path class="st3" d="M83.2,86.2l1.2-1.2c0.2-0.2,0.2-0.4,0-0.6s-0.4-0.2-0.6,0l-1.2,1.2l-1.2-1.2c-0.2-0.2-0.4-0.2-0.6,0
	s-0.2,0.4,0,0.6l1.2,1.2l-1.2,1.2c-0.2,0.2-0.2,0.4,0,0.6s0.4,0.2,0.6,0l1.2-1.2l1.2,1.2c0.2,0.2,0.4,0.2,0.6,0s0.2-0.4,0-0.6
	L83.2,86.2z"/>
<path class="st3" d="M9,19.6l2-2c0.3-0.3,0.3-0.7,0-1s-0.7-0.3-1,0l-2,2l-2-2c-0.3-0.3-0.7-0.3-1,0s-0.3,0.7,0,1l2,2l-2,2
	c-0.3,0.3-0.3,0.7,0,1s0.7,0.3,1,0l2-2l2,2c0.3,0.3,0.7,0.3,1,0s0.3-0.7,0-1L9,19.6z"/>
<circle class="st2" cx="8.8" cy="73.9" r="2.1"/>
<path class="st1" d="M2.2,38.2c-0.1,0.3,0.1,0.6,0.4,0.7l3.1,1C6,40,6.3,39.8,6.4,39.5c0-0.2,0-0.3,0-0.4s-0.2-0.2-0.3-0.3l-3.1-1
	C2.6,37.7,2.3,37.9,2.2,38.2z"/>
<path class="st0" d="M86.5,36c0.2,0.5,0.7,0.7,1.2,0.6l5-1.8c0.5-0.2,0.7-0.7,0.6-1.2c-0.1-0.2-0.3-0.4-0.5-0.5s-0.5-0.1-0.7,0
	l-5,1.8C86.5,35,86.3,35.5,86.5,36z"/>
<path class="st2" d="M89.1,4.4c-0.4,0.4-0.3,1,0,1.3L93,9.3c0.4,0.4,1,0.3,1.3,0c0.2-0.2,0.3-0.4,0.3-0.7c0-0.2-0.1-0.5-0.3-0.7
	l-3.9-3.6C90,4,89.5,4,89.1,4.4z"/>
<path class="st1" d="M88.8,61.1c-1.7,0.4-2,0.7-2.4,2.4c-0.4-1.7-0.7-2-2.4-2.4c1.7-0.4,2-0.7,2.4-2.4
	C86.8,60.5,87.1,60.8,88.8,61.1z"/>
<path class="st2" d="M48.2,4.1c-1.7,0.4-2,0.7-2.4,2.4c-0.4-1.7-0.7-2-2.4-2.4c1.7-0.4,2-0.7,2.4-2.4C46.1,3.4,46.4,3.7,48.2,4.1z"
	/>
</svg>
