<?xml version="1.0" encoding="utf-8"?>
<!-- Generator: Adobe Illustrator 19.2.1, SVG Export Plug-In . SVG Version: 6.00 Build 0)  -->
<svg version="1.1" id="Layer_1" xmlns="http://www.w3.org/2000/svg" xmlns:xlink="http://www.w3.org/1999/xlink" x="0px" y="0px"
	 viewBox="0 0 100 100" style="enable-background:new 0 0 100 100;" xml:space="preserve">
<style type="text/css">
	.st0{opacity:0.1;fill:#5A54A4;stroke:#5A54A4;stroke-width:4;stroke-linecap:round;stroke-linejoin:round;stroke-miterlimit:10;}
	.st1{fill:none;stroke:#5A54A4;stroke-width:4;stroke-linecap:round;stroke-linejoin:round;stroke-miterlimit:10;}
	.st2{fill:none;stroke:#E91E63;stroke-width:4;stroke-linecap:round;stroke-linejoin:round;stroke-miterlimit:10;}
	.st3{fill:#D6CAE3;}
	.st4{opacity:0.5;fill:#E81F64;}
	.st5{fill:#E81F64;}
	.st6{opacity:0.1;fill:#5A54A4;enable-background:new    ;}
	.st7{fill:#5A54A4;}
</style>
<path class="st0" d="M76.2,46.7c0.1-0.6,0.1-1.2,0.1-1.7c0-12.9-10.4-23.3-23.3-23.3S29.6,32,29.6,44.9c0,0.6,0,1.2,0.1,1.7h-0.1
	l0.1,0.2c0.5,6,3.4,11.6,7.7,15.4l15.5,22.5l15.5-22.5c4.3-3.9,7.2-9.3,7.7-15.4V46.7L76.2,46.7z"/>
<path class="st1" d="M75.6,42.8c0.1-0.6,0.1-1.3,0.1-1.9c0-14.3-11.5-25.7-25.7-25.7S24.3,26.6,24.3,40.9c0,0.6,0,1.3,0.1,1.9h-0.1
	l0.1,0.2c0.5,6.6,3.8,12.8,8.5,16.9L50,84.8L67.1,60c4.7-4.3,7.9-10.3,8.5-16.9V42.8L75.6,42.8z"/>
<circle class="st2" cx="50" cy="41" r="9.1"/>
<path class="st3" d="M27,66.3c0.3-0.2,0.3-0.6,0-0.9c-0.2-0.3-0.6-0.3-0.9,0l-1.9,1.9l-1.9-1.9c-0.2-0.3-0.6-0.3-0.9,0
	c-0.3,0.2-0.3,0.6,0,0.9l1.9,1.8L21.4,70c-0.3,0.2-0.3,0.6,0,0.9c0.2,0.3,0.6,0.3,0.9,0l1.9-1.9l1.9,1.9c0.2,0.3,0.6,0.3,0.9,0
	c0.3-0.2,0.3-0.6,0-0.9l-1.9-1.9L27,66.3z"/>
<circle class="st4" cx="81.8" cy="68.7" r="1.6"/>
<circle class="st5" cx="11.1" cy="28.3" r="1.2"/>
<path class="st5" d="M33.4,83.3l3.6-3.5c0.1-0.2,0.4-0.3,0.6-0.3s0.4,0.1,0.6,0.3c0.3,0.4,0.3,1,0,1.3l-3.5,3.5
	c-0.4,0.3-1,0.3-1.3,0C33.1,84.2,33.1,83.7,33.4,83.3z"/>
<path class="st6" d="M81.5,35.8l2.1,4.6c0.1,0.3,0.3,0.4,0.5,0.5c0.2,0.1,0.5,0.1,0.7,0c0.4-0.2,0.6-0.8,0.4-1.2l-2.1-4.6
	c-0.2-0.4-0.8-0.6-1.2-0.4S81.3,35.4,81.5,35.8z"/>
<path class="st7" d="M17,25.5c-0.4-1.5-0.5-1.8-2-2c1.5-0.4,1.8-0.5,2-2c0.4,1.5,0.5,1.8,2,2C17.6,23.7,17.3,24,17,25.5z"/>
<path class="st5" d="M60.3,11.7c-0.6-2.9-1.1-3.4-4-4c2.9-0.6,3.4-1.1,4-4c0.6,2.9,1.1,3.4,4,4C61.4,8.3,60.9,8.8,60.3,11.7z"/>
</svg>
