<?xml version="1.0" encoding="utf-8"?>
<!-- Generator: Adobe Illustrator 19.2.1, SVG Export Plug-In . SVG Version: 6.00 Build 0)  -->
<svg version="1.1" id="Layer_1" xmlns="http://www.w3.org/2000/svg" xmlns:xlink="http://www.w3.org/1999/xlink" x="0px" y="0px"
	 viewBox="0 0 100 100" style="enable-background:new 0 0 100 100;" xml:space="preserve">
<style type="text/css">
	.st0{fill:#5A54A4;}
	.st1{fill:#E81F64;}
	.st2{fill:#E81F64;stroke:#E81F64;stroke-width:2.6;stroke-linecap:round;stroke-linejoin:round;stroke-miterlimit:10;}
	.st3{fill:#D6CAE3;}
	.st4{opacity:0.1;fill:#5A54A4;}
</style>
<title>icn-research</title>
<path class="st0" d="M91.1,89.5L69.8,68.1C82.5,54.4,81.7,33,68,20.3S32.9,8.3,20.2,22S8.3,57.1,22,69.8c12.9,12,32.9,12.1,45.9,0.1
	l21.4,21.4L91.1,89.5z M22.9,67.2c-12.2-12.2-12.2-31.9,0-44.1s31.9-12.2,44.1,0l0,0C79.2,35.3,79.2,55,67,67.2S35.1,79.4,22.9,67.2
	z"/>
<path class="st1" d="M62.2,33.8c-1.7,0-3,1.3-3,3c0,0.4,0.1,0.7,0.2,1.1L48,49.1c-0.7-0.2-1.4-0.2-2.1,0.1l-6.2-5.8
	c0.7-1.5,0.1-3.3-1.4-4c-1.5-0.7-3.3-0.1-4,1.4c-0.3,0.7-0.4,1.5-0.2,2.3l-6.4,6.2c-1.5-0.6-3.3,0.1-3.9,1.7s0.1,3.3,1.7,3.9
	s3.3-0.1,3.9-1.7c0.3-0.7,0.3-1.5,0-2.2l6.3-6.1c0.6,0.3,1.3,0.3,2,0.2l6.4,6c-0.6,1.6,0.2,3.3,1.8,3.8c1.6,0.6,3.3-0.2,3.8-1.8
	c0.3-0.7,0.2-1.5-0.1-2.2l11.3-11.1c1.5,0.6,3.3-0.2,3.9-1.7c0.6-1.5-0.2-3.3-1.7-3.9C63,33.9,62.6,33.8,62.2,33.8z"/>
<line class="st2" x1="47.8" y1="51.3" x2="76.1" y2="23"/>
<path class="st3" d="M11.1,17.4l1.6-1.6c0.2-0.2,0.2-0.6,0-0.8c-0.2-0.2-0.6-0.2-0.8,0l-1.6,1.6l-1.6-1.6c-0.2-0.2-0.6-0.2-0.8,0
	c-0.2,0.2-0.2,0.6,0,0.8l1.6,1.6L8,19c-0.2,0.2-0.2,0.6,0,0.8c0.2,0.2,0.6,0.2,0.8,0l1.6-1.6l1.6,1.6c0.2,0.2,0.6,0.2,0.8,0
	c0.2-0.2,0.2-0.6,0-0.8L11.1,17.4z"/>
<path class="st3" d="M71.7,11.4V8.9c0-0.3-0.3-0.6-0.6-0.6c-0.3,0-0.6,0.3-0.6,0.6v2.5h-2.5c-0.3,0-0.6,0.3-0.6,0.6
	c0,0.3,0.3,0.6,0.6,0.6l2.5,0v2.5c0,0.3,0.3,0.6,0.6,0.6c0.3,0,0.6-0.3,0.6-0.6v-2.5h2.5c0.3,0,0.6-0.3,0.6-0.6
	c0-0.3-0.3-0.6-0.6-0.6L71.7,11.4z"/>
<circle class="st1" cx="87.9" cy="28.6" r="1.7"/>
<path class="st1" d="M39.6,3.4c-0.3-0.3-0.8-0.3-1.1,0l-3,3c-0.3,0.3-0.3,0.8,0,1.1c0.1,0.1,0.3,0.2,0.5,0.2c0.2,0,0.4-0.1,0.5-0.2
	l3-3C39.9,4.2,39.9,3.7,39.6,3.4z"/>
<path class="st0" d="M91.6,55.1c-0.3-0.3-0.8-0.3-1.1,0l-3,3c-0.3,0.3-0.3,0.8,0,1.1c0.1,0.1,0.3,0.2,0.5,0.2s0.4-0.1,0.5-0.2l3-3
	C91.9,55.9,91.9,55.4,91.6,55.1z"/>
<circle class="st3" cx="13.8" cy="74.3" r="2"/>
<path class="st1" d="M28.9,91.9c-2.5,0.5-2.9,0.9-3.4,3.4c-0.5-2.5-0.9-2.9-3.4-3.4c2.5-0.5,2.9-0.9,3.4-3.4
	C26,90.9,26.4,91.3,28.9,91.9z"/>
<path class="st0" d="M70.7,91.9c-2.5,0.5-2.9,0.9-3.4,3.4c-0.5-2.5-0.9-2.9-3.4-3.4c2.5-0.5,2.9-0.9,3.4-3.4
	C67.8,90.9,68.2,91.3,70.7,91.9z"/>
<path class="st4" d="M25.9,69.2c-12.2-12.2-12.2-31.9,0-44.1s31.9-12.2,44.1,0l0,0C82.2,37.3,82.2,57,70,69.2S38.1,81.4,25.9,69.2z"
	/>
</svg>
