<?xml version="1.0" encoding="utf-8"?>
<!-- Generator: Adobe Illustrator 19.2.1, SVG Export Plug-In . SVG Version: 6.00 Build 0)  -->
<svg version="1.1" id="Layer_1" xmlns="http://www.w3.org/2000/svg" xmlns:xlink="http://www.w3.org/1999/xlink" x="0px" y="0px"
	 viewBox="0 0 200 200" style="enable-background:new 0 0 200 200;" xml:space="preserve">
<style type="text/css">
	.st0{opacity:0.5;fill:#DCEDC8;}
	.st1{fill:#8BC34A;}
	.st2{fill:none;stroke:#050702;stroke-width:3;stroke-linecap:round;stroke-linejoin:round;stroke-miterlimit:10;}
	.st3{fill:none;stroke:#050702;stroke-width:3;stroke-miterlimit:10;}
</style>
<path class="st0" d="M84.9,143.8c0.1-0.6-0.4-1.1-1-1.2l-2.9-0.3c-1.1-0.1-2-1-2.1-2.1l-0.1-0.5c-0.3-2-1.9-3.7-3.9-3.9l-0.5-0.1
	c-1.1-0.1-1.9-1-2.1-2.1c-0.2-2.3-2-3.9-4.2-4.2c-1.1-0.1-2-1-2.1-2.1l-0.1-0.5c-0.3-2-1.9-3.7-3.9-3.9l-0.5-0.1
	c-1.1-0.1-1.9-1-2.1-2.1l-0.3-2.9c-0.1-0.6-0.6-1.1-1.2-1c-0.3,0-0.6,0.2-0.8,0.4c-0.1,0.1-0.2,0.2-0.3,0.3l-11.5,19.9
	c-0.2,0.3-0.2,0.6-0.1,0.9c0.1,0.2,0.1,0.4,0.3,0.5c0.1,0.1,0.3,0.3,0.6,0.3l6.5,1.3l1.3,6.5l0,0c0,0.1,0,0.1,0.1,0.2v0.1
	c0,0.1,0.1,0.2,0.2,0.2l0,0l0,0l0,0l0,0c0.1,0.1,0.1,0.1,0.2,0.2h0.1c0.1,0,0.1,0.1,0.2,0.1l0,0L61,149l1.3,6.5
	c0,0.2,0.2,0.4,0.3,0.6c0.1,0.1,0.1,0.1,0.2,0.2c0.3,0.3,0.8,0.3,1.2,0.1l19.8-11.6c0.1-0.1,0.2-0.2,0.3-0.3
	C84.7,144.3,84.9,144.1,84.9,143.8z"/>
<path class="st0" d="M128.1,160.2l2.2-44.9l0.1-0.1c22.3-22.3,29.3-40.9,31.2-52.4c2.1-12.8-1.2-20.1-1.4-20.4l-0.3-0.6l-0.6-0.3
	c-0.3-0.1-7.6-3.5-20.4-1.4c-11.4,1.9-30,8.9-52.3,31.2l-0.1,0.1l-44.9,2.2c-0.7,0-1.2,0.6-1.4,1.2c-0.1,0.6,0.1,1,0.4,1.4
	c0.1,0.1,0.3,0.3,0.4,0.3l28.3,12.3c-4.4,4.6-8.7,9-11.2,11.8c-0.1,0.1-0.4,0.3-0.6,0.6c-0.1,0.1-0.1,0.3-0.3,0.3l0.1,0.1
	c0,0.1,0,0.3,0,0.4l0.4,4.6c0.3,3.3,2.8,5.8,6.1,6.4l0.8,0.1c1.8,0.3,3.2,1.7,3.5,3.5l0.1,0.8c0.3,1.5,1,3.1,1.9,4
	c1.1,1.1,2.6,1.8,4.3,2.1c1.9,0.1,3.5,1.7,3.6,3.6c0.3,3.3,2.8,5.8,6.1,6.4l0.8,0.1c1.8,0.3,3.2,1.7,3.5,3.5l0.1,0.8
	c0.4,3.3,3.1,5.8,6.4,6.1l4.6,0.4c0.1,0,0.3,0,0.4,0l0.1,0.1c0.1-0.1,0.3-0.1,0.3-0.3c0.3-0.1,0.4-0.3,0.6-0.6
	c2.8-2.5,7.2-6.8,11.8-11.2l12.3,28.3c0.1,0.1,0.1,0.3,0.3,0.4c0.4,0.4,0.8,0.6,1.4,0.4C127.5,161.5,128.1,160.9,128.1,160.2z
	 M110.1,91.3c-5.4-5.4-5.4-14.3,0-19.9c5.4-5.4,14.3-5.4,19.9,0c5.4,5.4,5.4,14.3,0,19.9C124.4,96.7,115.5,96.7,110.1,91.3z"/>
<path class="st1" d="M45,74.6l35.9-1.8C77.6,76.2,73.3,80.6,69,85L45,74.6z"/>
<path class="st1" d="M113.4,129.6c4.4-4.3,8.9-8.7,12.2-11.9l-1.8,35.9L113.4,129.6z"/>
<ellipse transform="matrix(0.7071 -0.7071 0.7071 0.7071 -22.3392 108.2364)" class="st1" cx="119.5" cy="81.1" rx="10.1" ry="10.1"/>
<line class="st2" x1="45.4" y1="135.8" x2="52.8" y2="137.3"/>
<line class="st2" x1="54.3" y1="144.6" x2="52.8" y2="137.3"/>
<line class="st2" x1="54.3" y1="144.6" x2="61.6" y2="146.2"/>
<line class="st2" x1="63.1" y1="153.6" x2="61.6" y2="146.2"/>
<path class="st3" d="M99.3,140.5c6.5-5.8,24.8-23.9,30.9-30c43.7-43.7,30.1-72.7,30.1-72.7s-29-13.6-72.7,30.1
	c-6.1,6.1-24.1,24.6-30,30.9"/>
<path class="st2" d="M58.3,98.4l0.4,4.6c0.3,2.6,2.2,4.7,4.9,5.1l0.8,0.1c2.5,0.3,4.6,2.4,4.9,4.9l0.3,0.8c0.4,2.6,2.5,4.6,5.1,4.9
	l0,0c2.6,0.3,4.9,2.4,5.1,5.1l0,0c0.3,2.6,2.2,4.7,4.9,5.1l0.8,0.1c2.5,0.3,4.6,2.4,4.9,4.9v0.7c0.4,2.6,2.5,4.6,5.1,4.9l4.6,0.4"/>
<path class="st2" d="M57.3,115.1l0.3,2.9c0.2,1.6,1.4,3.1,3.1,3.2l0.5,0.1c1.6,0.2,2.8,1.5,3.1,3.1l0.1,0.5c0.2,1.6,1.5,2.9,3.2,3.1
	l0,0c1.8,0.2,3.1,1.5,3.2,3.2l0,0c0.2,1.6,1.4,3.1,3.1,3.2l0.5,0.1c1.6,0.2,2.8,1.5,3.1,3.1l0.1,0.5c0.2,1.6,1.5,2.9,3.2,3.1
	l2.9,0.3"/>
<polyline class="st2" points="71.3,84.3 40.7,70.9 87.3,68.5 "/>
<polyline class="st2" points="114.1,127.1 127.5,157.7 129.7,111.1 "/>
<line class="st2" x1="57.2" y1="115.3" x2="45.4" y2="135.7"/>
<line class="st2" x1="83.7" y1="141.9" x2="63.2" y2="153.6"/>
<ellipse transform="matrix(0.7071 -0.7071 0.7071 0.7071 -20.8933 107.8919)" class="st2" cx="119.8" cy="79.2" rx="12" ry="12"/>
</svg>
