<?xml version="1.0" encoding="utf-8"?>
<!-- Generator: Adobe Illustrator 19.2.1, SVG Export Plug-In . SVG Version: 6.00 Build 0)  -->
<svg version="1.1" id="Layer_1" xmlns="http://www.w3.org/2000/svg" xmlns:xlink="http://www.w3.org/1999/xlink" x="0px" y="0px"
	 viewBox="0 0 200 200" style="enable-background:new 0 0 200 200;" xml:space="preserve">
<style type="text/css">
	.st0{opacity:5.000000e-002;fill:#122C38;enable-background:new    ;}
	.st1{opacity:0.1;}
	.st2{fill:#122C38;}
	.st3{fill:#4FC3F7;}
	.st4{fill:none;stroke:#122C38;stroke-width:3;stroke-linecap:round;stroke-linejoin:round;stroke-miterlimit:10;}
	.st5{fill:none;stroke:#122C38;stroke-width:3;stroke-miterlimit:10;}
</style>
<circle class="st0" cx="100" cy="100" r="87.5"/>
<circle class="st0" cx="100" cy="100" r="75"/>
<g>
	<g class="st1">
		<path class="st2" d="M91.1,132.5c0.1-0.5-0.3-0.9-0.8-1l-2.4-0.3c-0.9-0.1-1.7-0.8-1.8-1.8L86,129c-0.3-1.7-1.6-3.1-3.3-3.3
			l-0.4-0.1c-0.9-0.1-1.6-0.8-1.8-1.8c-0.2-1.8-1.7-3.3-3.4-3.4c-0.9-0.1-1.7-0.8-1.8-1.8l-0.1-0.4c-0.3-1.7-1.6-3.1-3.3-3.3
			l-0.4-0.1c-0.9-0.1-1.6-0.8-1.8-1.8l-0.3-2.4c-0.1-0.5-0.5-0.9-1-0.8c-0.3,0-0.5,0.2-0.7,0.3c-0.1,0.1-0.2,0.2-0.3,0.3l-9.5,16.4
			c-0.2,0.3-0.2,0.5-0.1,0.8c0.1,0.2,0.1,0.3,0.3,0.4c0.1,0.1,0.3,0.3,0.5,0.3l5.3,1.1l1.1,5.3l0,0c0,0.1,0,0.1,0.1,0.2v0.1
			c0,0.1,0.1,0.2,0.2,0.2l0,0l0,0l0,0l0,0c0.1,0.1,0.1,0.1,0.2,0.2h0.1c0.1,0,0.1,0.1,0.2,0.1l0,0l5.3,1.1l1.1,5.3
			c0,0.2,0.2,0.3,0.3,0.5c0.1,0.1,0.1,0.1,0.2,0.2c0.3,0.3,0.7,0.3,1,0.1l16.4-9.5c0.1-0.1,0.2-0.2,0.3-0.3
			C90.9,132.9,91.1,132.7,91.1,132.5z"/>
		<path class="st2" d="M120.2,143.4l1.6-32.4l0.1-0.1C138,94.8,143,81.4,144.4,73.1c1.5-9.2-0.9-14.5-1-14.7l-0.2-0.4l-0.4-0.2
			c-0.2-0.1-5.5-2.5-14.7-1c-8.3,1.4-21.7,6.4-37.8,22.5l-0.1,0.1L57.8,81c-0.5,0-0.9,0.4-1,0.9c-0.1,0.4,0.1,0.7,0.3,1
			c0.1,0.1,0.2,0.2,0.3,0.2L77.8,92c-3.2,3.3-6.3,6.5-8.1,8.5c-0.1,0.1-0.3,0.2-0.4,0.4c-0.1,0.1-0.1,0.2-0.2,0.2l0.1,0.1
			c0,0.1,0,0.2,0,0.3l0.3,3.3c0.2,2.4,2,4.2,4.4,4.6l0.6,0.1c1.3,0.2,2.3,1.2,2.5,2.5l0.1,0.6c0.2,1.1,0.7,2.2,1.4,2.9
			c0.8,0.8,1.9,1.3,3.1,1.5c1.4,0.1,2.5,1.2,2.6,2.6c0.2,2.4,2,4.2,4.4,4.6l0.6,0.1c1.3,0.2,2.3,1.2,2.5,2.5l0.1,0.6
			c0.3,2.4,2.2,4.2,4.6,4.4l3.3,0.3c0.1,0,0.2,0,0.3,0l0.1,0.1c0.1-0.1,0.2-0.1,0.2-0.2c0.2-0.1,0.3-0.2,0.4-0.4
			c2-1.8,5.2-4.9,8.5-8.1l8.9,20.4c0.1,0.1,0.1,0.2,0.2,0.3c0.3,0.3,0.6,0.4,1,0.3C119.8,144.3,120.2,143.9,120.2,143.4z
			 M105.1,96.6c-4.7-4.7-4.7-12.4,0-17.2c4.7-4.7,12.4-4.7,17.2,0c4.7,4.7,4.7,12.4,0,17.2C117.5,101.3,109.8,101.3,105.1,96.6z"/>
	</g>
	<path class="st3" d="M60.3,81.7l25.9-1.3c-2.4,2.4-5.5,5.6-8.6,8.8L60.3,81.7z"/>
	<path class="st3" d="M109.6,121.3c3.2-3.1,6.4-6.3,8.8-8.6l-1.3,25.9L109.6,121.3z"/>
	<g>
		<ellipse transform="matrix(0.7071 -0.7071 0.7071 0.7071 -27.9719 106.036)" class="st3" cx="114" cy="86.8" rx="9.5" ry="9.5"/>
		<line class="st4" x1="59" y1="125.5" x2="64.9" y2="126.8"/>
		<line class="st4" x1="66.1" y1="132.6" x2="64.9" y2="126.8"/>
		<line class="st4" x1="66.1" y1="132.6" x2="72" y2="133.9"/>
		<line class="st4" x1="73.2" y1="139.7" x2="72" y2="133.8"/>
		<path class="st5" d="M99.5,129.2c4.7-4.2,17.9-17.2,22.3-21.6c31.5-31.5,21.7-52.4,21.7-52.4s-20.9-9.8-52.4,21.7
			c-4.4,4.4-17.4,17.7-21.6,22.3"/>
		<path class="st4" d="M69.9,98.8l0.3,3.3c0.2,1.9,1.6,3.4,3.5,3.7l0.6,0.1c1.8,0.2,3.3,1.7,3.5,3.5L78,110c0.3,1.9,1.8,3.3,3.7,3.5
			l0,0c1.9,0.2,3.5,1.7,3.7,3.7l0,0c0.2,1.9,1.6,3.4,3.5,3.7l0.6,0.1c1.8,0.2,3.3,1.7,3.5,3.5v0.5c0.3,1.9,1.8,3.3,3.7,3.5l3.3,0.3"
			/>
		<path class="st4" d="M68.6,109l0.2,2.4c0.2,1.3,1.1,2.4,2.5,2.6l0.4,0.1c1.3,0.2,2.3,1.2,2.5,2.5l0.1,0.4c0.2,1.3,1.2,2.4,2.6,2.5
			l0,0c1.4,0.2,2.4,1.2,2.6,2.6l0,0c0.2,1.3,1.1,2.4,2.5,2.6l0.4,0.1c1.3,0.2,2.3,1.2,2.5,2.5l0.1,0.4c0.2,1.3,1.2,2.4,2.6,2.5
			l2.4,0.2"/>
		<polyline class="st4" points="79.3,88.7 57.2,79 90.8,77.3 		"/>
		<polyline class="st4" points="110.1,119.5 119.8,141.6 121.4,108 		"/>
		<line class="st4" x1="68.4" y1="109.1" x2="59" y2="125.5"/>
		<line class="st4" x1="89.7" y1="130.4" x2="73.3" y2="139.8"/>
		
			<ellipse transform="matrix(0.7071 -0.7071 0.7071 0.7071 -26.6592 105.6313)" class="st4" cx="114.2" cy="85" rx="11.3" ry="11.3"/>
	</g>
</g>
</svg>
