<?xml version="1.0" encoding="utf-8"?>
<!-- Generator: Adobe Illustrator 19.2.1, SVG Export Plug-In . SVG Version: 6.00 Build 0)  -->
<svg version="1.1" id="Layer_1" xmlns="http://www.w3.org/2000/svg" xmlns:xlink="http://www.w3.org/1999/xlink" x="0px" y="0px"
	 viewBox="0 0 200 200" style="enable-background:new 0 0 200 200;" xml:space="preserve">
<style type="text/css">
	.st0{fill:#4FC3F7;}
	.st1{fill:none;stroke:#122C38;stroke-width:3;stroke-linecap:round;stroke-linejoin:round;stroke-miterlimit:10;}
	.st2{fill:none;stroke:#122C38;stroke-width:3;stroke-miterlimit:10;}
</style>
<g>
	<path class="st0" d="M50.2,78.9l32.4-1.6c-3,3-6.9,7-10.7,11L50.2,78.9z"/>
	<path class="st0" d="M111.8,128.4c4-3.9,8-7.9,11-10.7l-1.6,32.4L111.8,128.4z"/>
	<g>
		
			<ellipse transform="matrix(0.7071 -0.7071 0.7071 0.7071 -25.6169 107.7763)" class="st0" cx="117.3" cy="84.8" rx="9.1" ry="9.1"/>
		<line class="st1" x1="50.4" y1="133.5" x2="57.1" y2="134.9"/>
		<line class="st1" x1="58.5" y1="141.5" x2="57.1" y2="134.9"/>
		<line class="st1" x1="58.5" y1="141.5" x2="65.1" y2="143"/>
		<line class="st1" x1="66.4" y1="149.6" x2="65.1" y2="142.9"/>
		<path class="st2" d="M99.2,138.3c5.9-5.2,22.4-21.5,27.9-27c39.4-39.4,27.1-65.5,27.1-65.5S128,33.6,88.7,72.9
			c-5.5,5.5-21.7,22.1-27,27.9"/>
		<path class="st1" d="M62.2,100.3l0.4,4.1c0.2,2.4,2,4.2,4.4,4.6l0.7,0.1c2.2,0.2,4.1,2.1,4.4,4.4l0.2,0.7c0.4,2.4,2.2,4.1,4.6,4.4
			l0,0c2.4,0.2,4.4,2.1,4.6,4.6l0,0c0.2,2.4,2,4.2,4.4,4.6l0.7,0.1c2.2,0.2,4.1,2.1,4.4,4.4v0.6c0.4,2.4,2.2,4.1,4.6,4.4l4.1,0.4"/>
		<path class="st1" d="M61.2,114.8l0.3,2.6c0.1,1.5,1.2,2.7,2.9,2.9l0.4,0.1c1.5,0.1,2.6,1.4,2.9,2.9l0.1,0.4
			c0.1,1.5,1.4,2.6,2.9,2.9l0,0c1.5,0.1,2.7,1.4,2.9,2.9l0,0c0.1,1.5,1.2,2.7,2.9,2.9l0.4,0.1c1.5,0.1,2.6,1.4,2.9,2.9l0.1,0.4
			c0.1,1.5,1.4,2.6,2.9,2.9l2.6,0.3"/>
		<polyline class="st1" points="73.9,87.7 46.3,75.5 88.3,73.4 		"/>
		<polyline class="st1" points="112.4,126.1 124.5,153.8 126.5,111.8 		"/>
		<line class="st1" x1="61.1" y1="115" x2="50.4" y2="133.5"/>
		<line class="st1" x1="85.1" y1="139" x2="66.6" y2="149.7"/>
		
			<ellipse transform="matrix(0.7071 -0.7071 0.7071 0.7071 -24.3268 107.5099)" class="st1" cx="117.6" cy="83.1" rx="10.8" ry="10.8"/>
	</g>
</g>
</svg>
