<?xml version="1.0" encoding="utf-8"?>
<!-- Generator: Adobe Illustrator 19.2.1, SVG Export Plug-In . SVG Version: 6.00 Build 0)  -->
<svg version="1.1" id="Layer_1" xmlns="http://www.w3.org/2000/svg" xmlns:xlink="http://www.w3.org/1999/xlink" x="0px" y="0px"
	 viewBox="0 0 200 200" style="enable-background:new 0 0 200 200;" xml:space="preserve">
<style type="text/css">
	.st0{fill:#4FC3F7;}
	.st1{fill:none;stroke:#122C38;stroke-width:3;stroke-miterlimit:10;}
</style>
<g>
	<path class="st0" d="M139.1,118.4l-1-8.8l5.8-5.8c1.4-1.4,3.6-1.4,4.8,0l0,0c1.4,1.4,1.4,3.6,0,4.8L139.1,118.4z"/>
	<path class="st0" d="M81.7,61l8.8,1l5.8-5.8c1.4-1.4,1.4-3.6,0-4.8l0,0c-1.4-1.4-3.6-1.4-4.8,0L81.7,61z"/>
	<polygon class="st0" points="76.6,161 71.5,141.4 80.5,135.8 80.9,156.7 	"/>
	<polygon class="st0" points="38.9,123.4 58.5,128.3 64.2,119.3 43.2,119.1 	"/>
	<path class="st1" d="M54.2,137c7.6-17.3,34.5-51.1,56.6-73.3C139.3,35.4,150,36,157,43.1s7.7,17.8-20.7,46.2
		c-22,22-56,49-73.3,56.6"/>
	<path class="st1" d="M63.1,145.9c-5,2.2-8.5,2.8-10.2,1.2c-1.6-1.6-0.9-5.2,1.2-10.2"/>
	<polygon class="st1" points="132.1,159.6 117.2,107 135.7,90.3 142.8,149 	"/>
	<polygon class="st1" points="40.3,68.1 92.9,83 109.6,64.7 51,57.4 	"/>
	<polygon class="st1" points="76.6,161 71.5,141.4 80.5,135.8 80.9,156.7 	"/>
	<polygon class="st1" points="38.9,123.4 58.5,128.3 64.2,119.3 43.2,119.1 	"/>
	<path class="st1" d="M139.1,118.4l-1-8.8l5.8-5.8c1.4-1.4,3.6-1.4,4.8,0l0,0c1.4,1.4,1.4,3.6,0,4.8L139.1,118.4z"/>
	<path class="st1" d="M81.7,61l8.8,1l5.8-5.8c1.4-1.4,1.4-3.6,0-4.8l0,0c-1.4-1.4-3.6-1.4-4.8,0L81.7,61z"/>
</g>
</svg>
