<?xml version="1.0" encoding="utf-8"?>
<!-- Generator: Adobe Illustrator 19.2.1, SVG Export Plug-In . SVG Version: 6.00 Build 0)  -->
<svg version="1.1" id="Layer_1" xmlns="http://www.w3.org/2000/svg" xmlns:xlink="http://www.w3.org/1999/xlink" x="0px" y="0px"
	 viewBox="0 0 200 200" style="enable-background:new 0 0 200 200;" xml:space="preserve">
<style type="text/css">
	.st0{opacity:5.000000e-002;fill:#122C38;}
	.st1{fill:#4FC3F7;}
	.st2{fill:none;stroke:#122C38;stroke-width:3;stroke-miterlimit:10;}
</style>
<g>
	<path class="st0" d="M134.3,166.5l13.5-13.5l-4-32.6l9.8-9.8c2-2,2-5.2,0-7.1c-2-2-5.2-2-7.1,0l-4.1,4.1l-2.2-17.5
		c0.1-0.1,0.3-0.3,0.4-0.4c26-26,32.4-40.8,22-51.2c-10.3-10.3-25.1-4-51.2,22c-0.1,0.1-0.4,0.4-0.5,0.5l-17.5-2.2l4.3-4.3
		c2-2,2-5.2,0-7.1c-2-2-5.2-2-7.1,0l-9.9,9.9l-31.9-4l-0.6-0.1l-13.8,14l56.2,15.9c-11,12.7-21,25.6-28.4,36.6l-22.6-0.4l-6.8,6.8
		l21.7,5.5c-1.7,2.8-2.9,5.4-4,7.6c0,0.1-0.1,0.3-0.1,0.4l-0.3,0.6c-0.4,0.9-0.6,1.7-0.9,2.5c-0.1,0.3-0.3,0.6-0.3,0.9
		c-0.4,1.1-0.6,2.3-0.6,3.3c0,0.4,0,0.6,0,0.9s0,0.5,0,0.9c0.1,0.9,0.4,1.7,0.9,2.3c0.1,0.1,0.3,0.4,0.4,0.5
		c0.3,0.3,0.6,0.5,1.1,0.8s1.1,0.4,1.8,0.5c0.1,0,0.1,0,0.3,0c0.5,0,1,0,1.7,0c0.4,0,0.8-0.1,1.1-0.1l0,0c0.4-0.1,0.6-0.1,1-0.3
		c0.5-0.1,1.1-0.3,1.8-0.5c0.4-0.1,0.9-0.3,1.3-0.5c0.4-0.1,0.8-0.3,1-0.4l1.1-0.5c2.2-1,4.7-2.3,7.5-3.8l5.5,21.4l6.8-6.8L81.3,139
		c11.1-7.5,24.2-17.8,37-28.8L134.3,166.5z"/>
	<path class="st1" d="M143.2,117.7l-1.1-9.7l6.4-6.4c1.5-1.5,4-1.5,5.4,0l0,0c1.5,1.5,1.5,4,0,5.4L143.2,117.7z"/>
	<path class="st1" d="M79.7,54.2l9.7,1.1l6.4-6.4c1.5-1.5,1.5-4,0-5.4l0,0c-1.5-1.5-4-1.5-5.4,0L79.7,54.2z"/>
	<polygon class="st1" points="74.1,164.7 68.5,143.1 78.5,136.9 78.9,160 	"/>
	<polygon class="st1" points="32.5,123.2 54.1,128.7 60.4,118.7 37.2,118.5 	"/>
	<path class="st2" d="M49.4,138.2c8.4-19.1,38.1-56.5,62.6-80.9c31.3-31.3,43.2-30.6,51-22.8s8.5,19.6-22.8,51
		c-24.3,24.3-61.8,54.2-80.9,62.6"/>
	<path class="st2" d="M59.2,148c-5.5,2.4-9.4,3.1-11.2,1.3s-1-5.7,1.3-11.2"/>
	<polygon class="st2" points="135.4,163.2 119,105.1 139.4,86.6 147.3,151.5 	"/>
	<polygon class="st2" points="34,62.1 92.1,78.6 110.6,58.3 45.9,50.3 	"/>
	<polygon class="st2" points="74.1,164.7 68.5,143.1 78.5,136.9 78.9,160 	"/>
	<polygon class="st2" points="32.5,123.2 54.1,128.7 60.4,118.7 37.2,118.5 	"/>
	<path class="st2" d="M143.2,117.7l-1.1-9.7l6.4-6.4c1.5-1.5,4-1.5,5.4,0l0,0c1.5,1.5,1.5,4,0,5.4L143.2,117.7z"/>
	<path class="st2" d="M79.7,54.2l9.7,1.1l6.4-6.4c1.5-1.5,1.5-4,0-5.4l0,0c-1.5-1.5-4-1.5-5.4,0L79.7,54.2z"/>
</g>
</svg>
