<?xml version="1.0" encoding="utf-8"?>
<!-- Generator: Adobe Illustrator 19.2.1, SVG Export Plug-In . SVG Version: 6.00 Build 0)  -->
<svg version="1.1" id="Layer_1" xmlns="http://www.w3.org/2000/svg" xmlns:xlink="http://www.w3.org/1999/xlink" x="0px" y="0px"
	 viewBox="0 0 100 100" style="enable-background:new 0 0 100 100;" xml:space="preserve">
<style type="text/css">
	.st0{fill:#EBF9FC;}
	.st1{fill:none;}
	.st2{fill:#0B1D25;}
	.st3{fill:#4FC3F7;}
	.st4{fill:#020405;}
</style>
<polygon class="st0" points="87.8,68.3 80.6,68.3 80.6,75.5 26.6,75.5 26.6,68.3 19.4,68.3 19.4,36.5 26.6,36.5 26.6,29.3 
	80.6,29.3 80.6,36.5 87.8,36.5 "/>
<title>icn-graphic-design</title>
<rect x="10.4" y="22.4" class="st1" width="11.2" height="11.2"/>
<rect x="10.4" y="69.1" class="st1" width="11.2" height="11.2"/>
<rect x="78.3" y="22.4" class="st1" width="11.2" height="11.2"/>
<rect x="78.3" y="69.1" class="st1" width="11.2" height="11.2"/>
<polygon class="st1" points="75.8,27.2 24.2,27.2 24.2,34 17.3,34 17.3,64.5 24.2,64.5 24.2,71.4 75.8,71.4 75.8,64.5 82.7,64.5 
	82.7,34 75.8,34 "/>
<path class="st2" d="M92.1,34V17.8H75.8v6.9H24.2v-6.9H7.9V34h6.9v30.5H7.9v16.3h16.3v-6.9h51.7v6.9h16.3V64.5h-6.9V34H92.1z
	 M78.3,20.3h11.2v11.2H78.3V20.3z M10.4,20.3h11.2v11.2H10.4V20.3z M21.6,78.2H10.4V67h11.2C21.6,67,21.6,78.2,21.6,78.2z
	 M89.6,78.2H78.3V67h11.2L89.6,78.2L89.6,78.2z M82.7,64.5h-6.9v6.9H24.2v-6.9h-6.9V34h6.9v-6.9h51.7V34h6.9v30.5H82.7z"/>
<polygon class="st3" points="48.6,60.6 33.6,46.6 35.3,44.7 48.4,56.9 64.5,37.6 66.4,39.2 "/>
<path class="st3" d="M34.4,10l1.7-1.7c0.2-0.2,0.2-0.6,0-0.8c-0.2-0.2-0.6-0.2-0.8,0l-1.7,1.7L32,7.5c-0.2-0.2-0.6-0.2-0.8,0
	c-0.2,0.2-0.2,0.6,0,0.8l1.7,1.7l-1.7,1.7c-0.2,0.2-0.2,0.6,0,0.8s0.6,0.2,0.8,0l1.7-1.7l1.7,1.7c0.2,0.2,0.6,0.2,0.8,0
	s0.2-0.6,0-0.8L34.4,10z"/>
<path class="st3" d="M90.4,92.8l1.7-1.7c0.2-0.2,0.2-0.6,0-0.8c-0.2-0.2-0.6-0.2-0.8,0L89.6,92l-1.7-1.7c-0.2-0.2-0.6-0.2-0.8,0
	c-0.2,0.2-0.2,0.6,0,0.8l1.7,1.7l-1.7,1.7c-0.2,0.2-0.2,0.6,0,0.8c0.2,0.2,0.6,0.2,0.8,0l1.7-1.7l1.7,1.7c0.2,0.2,0.6,0.2,0.8,0
	c0.2-0.2,0.2-0.6,0-0.8L90.4,92.8z"/>
<path class="st4" d="M5.8,43v-2.6c0-0.4-0.3-0.6-0.6-0.6c-0.4,0-0.6,0.3-0.6,0.6V43H1.9c-0.4,0-0.6,0.3-0.6,0.6
	c0,0.4,0.3,0.6,0.6,0.6h2.6v2.6c0,0.4,0.3,0.6,0.6,0.6c0.4,0,0.6-0.3,0.6-0.6v-2.6h2.6c0.4,0,0.6-0.3,0.6-0.6c0-0.4-0.3-0.6-0.6-0.6
	H5.8z"/>
<circle class="st3" cx="9.3" cy="53.9" r="1.8"/>
<path class="st0" d="M51.2,11c0.3-0.3,0.8-0.3,1.1,0l3.2,3.2c0.3,0.3,0.3,0.8,0,1.1c-0.2,0.2-0.4,0.2-0.6,0.2
	c-0.2,0-0.4-0.1-0.6-0.2l-3.2-3.2C50.9,11.8,50.9,11.3,51.2,11z"/>
<path class="st4" d="M62.7,82.2c-0.3-0.3-0.8-0.3-1.1,0l-3.2,3.2c-0.3,0.3-0.3,0.8,0,1.1c0.2,0.2,0.4,0.2,0.6,0.2
	c0.2,0,0.4-0.1,0.6-0.2l3.2-3.2C63,83,63,82.5,62.7,82.2z"/>
<circle class="st3" cx="68.7" cy="6.8" r="1.1"/>
<path class="st4" d="M99.2,43.3c-2.6,0.5-3,1-3.6,3.6c-0.5-2.6-1-3-3.6-3.6c2.6-0.5,3-1,3.6-3.6C96.2,42.3,96.6,42.8,99.2,43.3z"/>
<path class="st3" d="M39.2,88.7c-2.6,0.5-3,1-3.6,3.6c-0.5-2.6-1-3-3.6-3.6c2.6-0.5,3-1,3.6-3.6C36.1,87.7,36.6,88.2,39.2,88.7z"/>
</svg>
