<?xml version="1.0" encoding="utf-8"?>
<!-- Generator: Adobe Illustrator 19.2.1, SVG Export Plug-In . SVG Version: 6.00 Build 0)  -->
<svg version="1.1" id="Layer_1" xmlns="http://www.w3.org/2000/svg" xmlns:xlink="http://www.w3.org/1999/xlink" x="0px" y="0px"
	 viewBox="0 0 100 100" style="enable-background:new 0 0 100 100;" xml:space="preserve">
<style type="text/css">
	.st0{fill:#EBF9FC;}
	.st1{fill:none;stroke:#020405;stroke-width:3;stroke-linecap:round;stroke-linejoin:round;stroke-miterlimit:10;}
	.st2{fill:#4FC3F7;}
	.st3{fill:#020405;}
</style>
<g>
	<path class="st0" d="M78.7,46.3c0.1-0.7,0.1-1.3,0.1-1.9c0-14.3-11.5-25.8-25.8-25.8S27,30,27,44.3c0,0.7,0,1.3,0.1,1.9H27l0.1,0.2
		c0.6,6.7,3.8,12.9,8.5,17.1l17.2,25l17.2-25c4.8-4.3,8-10.3,8.5-17.1v-0.1C78.5,46.3,78.7,46.3,78.7,46.3z"/>
	<path class="st1" d="M78.1,42c0.1-0.7,0.1-1.4,0.1-2.1c0-15.9-12.8-28.5-28.5-28.5S21.2,24,21.2,39.9c0,0.7,0,1.4,0.1,2.1h-0.1
		l0.1,0.2c0.6,7.3,4.2,14.2,9.4,18.7l19,27.6l19-27.5c5.2-4.8,8.8-11.4,9.4-18.7V42L78.1,42z"/>
	<g>
		<path class="st2" d="M49.7,51.6c-6.4,0-11.6-5.2-11.6-11.6s5.2-11.6,11.6-11.6S61.3,33.6,61.3,40S56.1,51.6,49.7,51.6z M49.7,31.4
			c-4.7,0-8.6,3.9-8.6,8.6s3.9,8.6,8.6,8.6s8.6-3.9,8.6-8.6S54.4,31.4,49.7,31.4z"/>
	</g>
	<path class="st2" d="M15.6,76.8c0.3-0.2,0.3-0.7,0-1c-0.2-0.3-0.7-0.3-1,0l-2.1,2.1l-2.1-2.1c-0.2-0.3-0.7-0.3-1,0
		c-0.3,0.2-0.3,0.7,0,1l2.1,2l-2.1,2.1c-0.3,0.2-0.3,0.7,0,1c0.2,0.3,0.7,0.3,1,0l2.1-2.1l2.1,2.1c0.2,0.3,0.7,0.3,1,0
		c0.3-0.2,0.3-0.7,0-1l-2.1-2.1L15.6,76.8z"/>
	<path class="st3" d="M85.3,8.2c0.3-0.2,0.3-0.7,0-1c-0.2-0.3-0.7-0.3-1,0l-2.1,2.1l-2.1-2.1c-0.2-0.3-0.7-0.3-1,0
		c-0.3,0.2-0.3,0.7,0,1l2.1,2l-2.1,2.1c-0.3,0.2-0.3,0.7,0,1c0.2,0.3,0.7,0.3,1,0l2.1-2.1l2.1,2.1c0.2,0.3,0.7,0.3,1,0
		c0.3-0.2,0.3-0.7,0-1l-2.1-2.1L85.3,8.2z"/>
	<circle class="st2" cx="9.1" cy="29.9" r="1.8"/>
	<circle class="st2" cx="91.8" cy="41.8" r="1.8"/>
	<path class="st3" d="M27.3,90.4l4-3.9c0.1-0.2,0.4-0.3,0.7-0.3c0.2,0,0.4,0.1,0.7,0.3c0.3,0.4,0.3,1.1,0,1.4l-3.9,3.9
		c-0.4,0.3-1.1,0.3-1.4,0C27,91.4,27,90.8,27.3,90.4z"/>
	<path class="st0" d="M95.1,13.5l2.4,5.3c0.1,0.3,0.3,0.5,0.6,0.6c0.2,0.1,0.6,0.1,0.8,0c0.5-0.2,0.7-0.9,0.5-1.4L97,12.7
		c-0.2-0.5-0.9-0.7-1.4-0.5C95.1,12.5,94.9,13.1,95.1,13.5z"/>
	<path class="st3" d="M89.2,81.8c-0.6-2.2-0.7-2.6-2.9-2.9c2.2-0.6,2.6-0.7,2.9-2.9c0.6,2.2,0.7,2.6,2.9,2.9
		C90.1,79.2,89.6,79.6,89.2,81.8z"/>
	<path class="st3" d="M8.6,15.8c-0.7-3.2-1.2-3.8-4.4-4.4C7.4,10.7,8,10.2,8.6,7c0.7,3.2,1.2,3.8,4.4,4.4
		C9.9,12.1,9.3,12.6,8.6,15.8z"/>
</g>
</svg>
