<?xml version="1.0" encoding="utf-8"?>
<!-- Generator: Adobe Illustrator 19.2.1, SVG Export Plug-In . SVG Version: 6.00 Build 0)  -->
<svg version="1.1" id="Layer_1" xmlns="http://www.w3.org/2000/svg" xmlns:xlink="http://www.w3.org/1999/xlink" x="0px" y="0px"
	 viewBox="0 0 200 200" style="enable-background:new 0 0 200 200;" xml:space="preserve">
<style type="text/css">
	.st0{fill:#F5F5FF;stroke:#F5F5FF;stroke-miterlimit:10;enable-background:new    ;}
	.st1{fill:#E81F64;}
	.st2{fill:#EC008C;}
	.st3{fill:none;stroke:#5A54A4;stroke-width:3;stroke-miterlimit:10;}
</style>
<g>
	<path class="st0" d="M124,29.2c-32.6-11.8-68.7,5-80.7,37.6c-7.2,20-4,42,8.6,59.2l2.4,21.6L50.1,159c-1.1,3.4,0.5,6.9,3.8,8.2
		L89,180c3.4,1.1,6.9-0.5,8.2-3.8l4.2-11.5l15.7-14.9c20.6-5,37.4-19.7,44.6-39.7C173.5,77.3,156.6,41.2,124,29.2z"/>
	<path class="st1" d="M122.6,27.8c7.8,2.8,14.8,7.1,20.9,12.2c-8,0.2-16-1.2-23.8-4c-7.7-2.8-14.6-7-20.9-12.2
		C106.8,23.8,114.8,25.1,122.6,27.8z"/>
	<path class="st2" d="M90.3,172.5c-0.5,1.1-1.7,1.7-2.9,1.3L51,160.4c-1.1-0.5-1.7-1.7-1.3-2.9l3.8-10.5l40.6,14.7L90.3,172.5z"/>
	<path class="st3" d="M50.1,121c11.3-2.7,23.4-2,35.2,2.2c11.7,4.2,21.4,11.7,28.5,20.9c20-4.5,37.4-18.9,44.9-39.6
		c11.9-32.5-4.8-68.3-37.4-80.2s-68.2,5-80,37.5C33.7,82.5,37.8,104.6,50.1,121z"/>
	<path class="st3" d="M145.5,39.2c-9.2,1.1-18.9,0-28.3-3.4c-9.1-3.3-16.9-8.4-23.3-14.9"/>
	<path class="st3" d="M71.1,119.4c0,0-10.2-26.6-1.3-51.4c9.1-24.9,33.9-38.6,33.9-38.6"/>
	<path class="st3" d="M98.9,129.4c0,0,24.9-13.8,33.9-38.6c9.1-24.9-1.3-51.4-1.3-51.4"/>
	<line class="st3" x1="50.1" y1="121" x2="52.8" y2="144.3"/>
	<line class="st3" x1="113.9" y1="144.1" x2="95.5" y2="160.2"/>
	<line class="st3" x1="74.8" y1="152.2" x2="85.5" y2="123.2"/>
	<path class="st3" d="M83.3,173l-29.5-10.8c-4.1-1.4-6.1-5.9-4.7-10l3.3-9.1l44.2,16.1l-3.3,9.1C91.9,172.4,87.4,174.4,83.3,173z"/>
</g>
</svg>
