<?xml version="1.0" encoding="utf-8"?>
<!-- Generator: Adobe Illustrator 19.2.1, SVG Export Plug-In . SVG Version: 6.00 Build 0)  -->
<svg version="1.1" id="Layer_1" xmlns="http://www.w3.org/2000/svg" xmlns:xlink="http://www.w3.org/1999/xlink" x="0px" y="0px"
	 viewBox="0 0 200 200" style="enable-background:new 0 0 200 200;" xml:space="preserve">
<style type="text/css">
	.st0{fill:#E81F64;}
	.st1{fill:#EC008C;}
	.st2{fill:none;stroke:#5A54A4;stroke-width:3;stroke-miterlimit:10;}
</style>
<g>
	<path class="st0" d="M118.1,44.5c6.3,2.2,11.8,5.7,16.7,9.7c-6.4,0.1-12.8-1-19.1-3.2c-6.1-2.2-11.7-5.6-16.7-9.7
		C105.5,41.3,111.9,42.3,118.1,44.5z"/>
	<path class="st1" d="M92.3,160.2c-0.4,0.9-1.4,1.4-2.3,1l-29.2-10.6c-0.9-0.4-1.4-1.4-1-2.3l3-8.4l32.5,11.8L92.3,160.2z"/>
	<path class="st2" d="M60.1,119c9-2.1,18.8-1.6,28.1,1.8c9.4,3.4,17.1,9.4,22.8,16.8c16-3.6,29.9-15.1,35.9-31.6
		c9.5-26-3.9-54.7-29.9-64.2s-54.5,4-64,30C47,88.2,50.3,105.9,60.1,119z"/>
	<path class="st2" d="M136.4,53.6c-7.4,0.9-15.1,0-22.6-2.8c-7.3-2.6-13.5-6.8-18.6-11.9"/>
	<path class="st2" d="M76.9,117.7c0,0-8.1-21.3-1-41.1C83.2,56.7,103,45.7,103,45.7"/>
	<path class="st2" d="M99.2,125.8c0,0,19.9-11,27.1-30.9c7.3-19.9-1-41.1-1-41.1"/>
	<line class="st2" x1="60.1" y1="119" x2="62.3" y2="137.6"/>
	<line class="st2" x1="111.2" y1="137.5" x2="96.4" y2="150.4"/>
	<line class="st2" x1="79.9" y1="144" x2="88.4" y2="120.8"/>
	<path class="st2" d="M86.7,160.6L63,152c-3.3-1.1-4.9-4.8-3.8-8l2.6-7.3l35.4,12.9l-2.6,7.3C93.5,160.1,89.9,161.8,86.7,160.6z"/>
</g>
</svg>
