<?xml version="1.0" encoding="utf-8"?>
<!-- Generator: Adobe Illustrator 19.2.1, SVG Export Plug-In . SVG Version: 6.00 Build 0)  -->
<svg version="1.1" id="Layer_1" xmlns="http://www.w3.org/2000/svg" xmlns:xlink="http://www.w3.org/1999/xlink" x="0px" y="0px"
	 viewBox="0 0 200 200" style="enable-background:new 0 0 200 200;" xml:space="preserve">
<style type="text/css">
	.st0{opacity:5.000000e-002;fill:#5A54A4;}
	.st1{opacity:0.1;fill:#5A54A4;}
	.st2{fill:#E81F64;}
	.st3{fill:#EC008C;}
	.st4{fill:none;stroke:#5A54A4;stroke-width:3;stroke-miterlimit:10;}
</style>
<circle class="st0" cx="100" cy="100" r="87.5"/>
<circle class="st0" cx="100" cy="100" r="75"/>
<g>
	<path class="st1" d="M114,56.2c-20.4-7.4-43,3.1-50.5,23.5c-4.5,12.5-2.5,26.3,5.4,37l1.5,13.5l-2.6,7.2c-0.7,2.1,0.3,4.3,2.4,5.1
		l21.9,8c2.1,0.7,4.3-0.3,5.1-2.4l2.6-7.2l9.8-9.3c12.9-3.1,23.4-12.3,27.9-24.8C145,86.3,134.4,63.7,114,56.2z"/>
	<path class="st2" d="M114.2,54.2c4.5,1.6,8.5,4.1,12,7c-4.6,0.1-9.2-0.7-13.7-2.3c-4.4-1.6-8.4-4-12-7
		C105.1,51.9,109.7,52.6,114.2,54.2z"/>
	<path class="st3" d="M94.3,147.9c-0.3,0.7-1.1,1.1-1.8,0.8l-23-8.4c-0.7-0.3-1.1-1.1-0.8-1.8l2.4-6.6l25.6,9.3L94.3,147.9z"/>
	<path class="st4" d="M68.1,113.4c7.2-1.7,15-1.3,22.5,1.4c7.5,2.7,13.7,7.5,18.2,13.4c12.8-2.9,23.9-12.1,28.7-25.3
		c7.6-20.8-3.1-43.7-23.9-51.3S70,54.8,62.4,75.6C57.6,88.8,60.2,102.9,68.1,113.4z"/>
	<path class="st4" d="M129.1,61.1c-5.9,0.7-12.1,0-18.1-2.2c-5.8-2.1-10.8-5.4-14.9-9.5"/>
	<path class="st4" d="M81.5,112.4c0,0-6.5-17-0.8-32.9c5.8-15.9,21.7-24.7,21.7-24.7"/>
	<path class="st4" d="M99.3,118.8c0,0,15.9-8.8,21.7-24.7s-0.8-32.9-0.8-32.9"/>
	<line class="st4" x1="68.1" y1="113.4" x2="69.8" y2="128.3"/>
	<line class="st4" x1="108.9" y1="128.2" x2="97.1" y2="138.5"/>
	<line class="st4" x1="83.9" y1="133.4" x2="90.7" y2="114.8"/>
	<path class="st4" d="M89.3,146.7l-18.9-6.9c-2.6-0.9-3.9-3.8-3-6.4l2.1-5.8l28.3,10.3l-2.1,5.8C94.8,146.3,91.9,147.6,89.3,146.7z"
		/>
</g>
</svg>
