<?xml version="1.0" encoding="utf-8"?>
<!-- Generator: Adobe Illustrator 19.2.1, SVG Export Plug-In . SVG Version: 6.00 Build 0)  -->
<svg version="1.1" id="Layer_1" xmlns="http://www.w3.org/2000/svg" xmlns:xlink="http://www.w3.org/1999/xlink" x="0px" y="0px"
	 viewBox="0 0 200 200" style="enable-background:new 0 0 200 200;" xml:space="preserve">
<style type="text/css">
	.st0{opacity:5.000000e-002;fill:#5A54A4;}
	.st1{opacity:0.1;fill:#5A54A4;}
	.st2{fill:#E81F64;}
	.st3{fill:none;stroke:#5A54A4;stroke-width:3;stroke-miterlimit:10;}
</style>
<circle class="st0" cx="100" cy="100" r="87.5"/>
<circle class="st0" cx="100" cy="100" r="75"/>
<g>
	<path class="st1" d="M126.9,153.8l10.6-10.6l-3.1-25.6l7.7-7.7c1.6-1.6,1.6-4.1,0-5.6c-1.6-1.6-4.1-1.6-5.6,0l-3.2,3.2l-1.7-13.7
		c0.1-0.1,0.2-0.2,0.3-0.3c20.4-20.4,25.4-32,17.3-40.2c-8.1-8.1-19.7-3.1-40.2,17.3c-0.1,0.1-0.3,0.3-0.4,0.4l-13.7-1.7l3.4-3.4
		c1.6-1.6,1.6-4.1,0-5.6c-1.6-1.6-4.1-1.6-5.6,0l-7.8,7.8l-25-3.1l-0.5-0.1L48.5,75.8l44.1,12.5C84,98.3,76.1,108.4,70.3,117
		l-17.7-0.3l-5.3,5.3l17,4.3c-1.3,2.2-2.3,4.2-3.1,6c0,0.1-0.1,0.2-0.1,0.3l-0.2,0.5c-0.3,0.7-0.5,1.3-0.7,2
		c-0.1,0.2-0.2,0.5-0.2,0.7c-0.3,0.9-0.5,1.8-0.5,2.6c0,0.3,0,0.5,0,0.7c0,0.2,0,0.4,0,0.7c0.1,0.7,0.3,1.3,0.7,1.8
		c0.1,0.1,0.2,0.3,0.3,0.4c0.2,0.2,0.5,0.4,0.9,0.6c0.4,0.2,0.9,0.3,1.4,0.4c0.1,0,0.1,0,0.2,0c0.4,0,0.8,0,1.3,0
		c0.3,0,0.6-0.1,0.9-0.1l0,0c0.3-0.1,0.5-0.1,0.8-0.2c0.4-0.1,0.9-0.2,1.4-0.4c0.3-0.1,0.7-0.2,1-0.4c0.3-0.1,0.6-0.2,0.8-0.3
		l0.9-0.4c1.7-0.8,3.7-1.8,5.9-3l4.3,16.8l5.3-5.3l-0.3-17.5c8.7-5.9,19-14,29-22.6L126.9,153.8z"/>
	<path class="st2" d="M133.9,113.9l-0.9-7.6l5-5c1.2-1.2,3.1-1.2,4.2,0v0c1.2,1.2,1.2,3.1,0,4.2L133.9,113.9z"/>
	<path class="st2" d="M84.1,64.1l7.6,0.9l5-5c1.2-1.2,1.2-3.1,0-4.2l0,0c-1.2-1.2-3.1-1.2-4.2,0L84.1,64.1z"/>
	<polygon class="st2" points="79.7,150.8 75.3,133.8 83.1,129 83.4,147.1 	"/>
	<polygon class="st2" points="47,118.2 64,122.5 68.9,114.7 50.7,114.5 	"/>
	<path class="st3" d="M60.3,130c6.6-15,29.9-44.3,49.1-63.5c24.6-24.6,33.9-24,40-17.9c6.1,6.1,6.7,15.4-17.9,40
		C112.4,107.7,83,131.1,68,137.7"/>
	<path class="st3" d="M68,137.7c-4.3,1.9-7.4,2.4-8.8,1c-1.4-1.4-0.8-4.5,1-8.8"/>
	<polygon class="st3" points="127.8,149.6 114.9,104 130.9,89.5 137.1,140.4 	"/>
	<polygon class="st3" points="48.2,70.3 93.8,83.2 108.3,67.3 57.5,61 	"/>
	<polygon class="st3" points="79.7,150.8 75.3,133.8 83.1,129 83.4,147.1 	"/>
	<polygon class="st3" points="47,118.2 64,122.5 68.9,114.7 50.7,114.5 	"/>
	<path class="st3" d="M133.9,113.9l-0.9-7.6l5-5c1.2-1.2,3.1-1.2,4.2,0v0c1.2,1.2,1.2,3.1,0,4.2L133.9,113.9z"/>
	<path class="st3" d="M84.1,64.1l7.6,0.9l5-5c1.2-1.2,1.2-3.1,0-4.2l0,0c-1.2-1.2-3.1-1.2-4.2,0L84.1,64.1z"/>
</g>
</svg>
