<?xml version="1.0" encoding="utf-8"?>
<!-- Generator: Adobe Illustrator 19.2.1, SVG Export Plug-In . SVG Version: 6.00 Build 0)  -->
<svg version="1.1" id="Layer_1" xmlns="http://www.w3.org/2000/svg" xmlns:xlink="http://www.w3.org/1999/xlink" x="0px" y="0px"
	 viewBox="0 0 100 100" style="enable-background:new 0 0 100 100;" xml:space="preserve">
<style type="text/css">
	.st0{opacity:0.1;fill:#020405;enable-background:new    ;}
	.st1{fill:none;stroke:#020405;stroke-width:3;stroke-linecap:round;stroke-linejoin:round;stroke-miterlimit:10;}
	.st2{fill:#020405;}
	.st3{opacity:0.5;fill:#020405;enable-background:new    ;}
</style>
<path class="st0" d="M86.5,22.5H18.7c-1,0-1.8,0.8-1.8,1.8v47.4c0,1,0.8,1.8,1.8,1.8H44v8.6c0,1,0.8,1.8,1.8,1.8h13.4
	c1,0,1.8-0.8,1.8-1.8v-8.6h25.4c1,0,1.8-0.8,1.8-1.8V24.3C88.3,23.3,87.5,22.5,86.5,22.5z"/>
<line class="st1" x1="11.9" y1="58.7" x2="88.1" y2="58.7"/>
<rect x="11.9" y="17.5" class="st1" width="76.2" height="53.3"/>
<rect x="42.4" y="70.8" class="st1" width="15.1" height="11.7"/>
<line class="st1" x1="64.5" y1="82.5" x2="35.5" y2="82.5"/>
<path class="st2" d="M16,79.7c0.3-0.2,0.3-0.6,0-0.9c-0.2-0.3-0.6-0.3-0.9,0l-1.9,1.9l-1.9-1.9c-0.2-0.3-0.6-0.3-0.9,0
	c-0.3,0.2-0.3,0.6,0,0.9l1.9,1.8l-1.9,1.9c-0.3,0.2-0.3,0.6,0,0.9c0.2,0.3,0.6,0.3,0.9,0l1.9-1.9l1.9,1.9c0.2,0.3,0.6,0.3,0.9,0
	c0.3-0.2,0.3-0.6,0-0.9l-1.9-1.9L16,79.7z"/>
<path class="st2" d="M27.9,7.3c0.2-0.1,0.2-0.4,0-0.6c-0.1-0.2-0.4-0.2-0.6,0L26,8l-1.3-1.3c-0.1-0.2-0.4-0.2-0.6,0
	c-0.2,0.1-0.2,0.4,0,0.6l1.3,1.2l-1.3,1.3c-0.2,0.1-0.2,0.4,0,0.6c0.1,0.2,0.4,0.2,0.6,0L26,9.2l1.3,1.3c0.1,0.2,0.4,0.2,0.6,0
	c0.2-0.1,0.2-0.4,0-0.6l-1.3-1.3L27.9,7.3z"/>
<circle class="st3" cx="82.4" cy="7" r="1.6"/>
<circle class="st2" cx="5.9" cy="33.8" r="1.2"/>
<path class="st2" d="M53.9,9.7l3.6-3.5c0.1-0.2,0.4-0.3,0.6-0.3s0.4,0.1,0.6,0.3c0.3,0.4,0.3,1,0,1.3L55.2,11c-0.4,0.3-1,0.3-1.3,0
	C53.6,10.6,53.6,10.1,53.9,9.7z"/>
<path class="st0" d="M33.1,91.1l2.1,4.6c0.1,0.3,0.3,0.4,0.5,0.5s0.5,0.1,0.7,0c0.4-0.2,0.6-0.8,0.4-1.2l-2.1-4.6
	c-0.2-0.4-0.8-0.6-1.2-0.4S32.9,90.7,33.1,91.1z"/>
<path class="st2" d="M95.9,65.6c-0.4-1.5-0.5-1.8-2-2c1.5-0.4,1.8-0.5,2-2c0.4,1.5,0.5,1.8,2,2C96.4,63.9,96.2,64.1,95.9,65.6z"/>
<path class="st2" d="M87.3,91.9c-0.6-2.9-1.1-3.4-4-4c2.9-0.6,3.4-1.1,4-4c0.6,2.9,1.1,3.4,4,4C88.4,88.5,87.9,89,87.3,91.9z"/>
</svg>
