<?xml version="1.0" encoding="utf-8"?>
<!-- Generator: Adobe Illustrator 19.2.1, SVG Export Plug-In . SVG Version: 6.00 Build 0)  -->
<svg version="1.1" id="Layer_1" xmlns="http://www.w3.org/2000/svg" xmlns:xlink="http://www.w3.org/1999/xlink" x="0px" y="0px"
	 viewBox="0 0 100 100" style="enable-background:new 0 0 100 100;" xml:space="preserve">
<style type="text/css">
	.st0{fill:#F2F9E8;}
	.st1{fill:#020405;}
	.st2{fill:#9CCC65;}
	.st3{fill:#0B1D25;}
</style>
<polygon class="st0" points="22.6,53 28.3,78.4 81.7,77.3 71.5,31.4 "/>
<title>icn-marketing</title>
<path class="st1" d="M42.1,84.3h-0.7c-4.7,0-8.5-3.8-8.5-8.5h2.7c0,3.2,2.6,5.8,5.8,5.8h0.7c3.2,0,5.8-2.5,5.8-5.7l0,0h2.7
	C50.7,80.5,46.8,84.3,42.1,84.3L42.1,84.3z"/>
<path class="st1" d="M22.7,77.5l-6.4-29l52.2-23l11.3,50.7L22.7,77.5z M19.4,50l5.5,24.6l51.5-1.1l-9.8-44.2L19.4,50z"/>
<path class="st1" d="M16.9,81.5L9.3,47.3l9.6,0.7l6.4,28.8L16.9,81.5z M12.7,50.3l6,27l3.4-1.9l-5.5-24.8L12.7,50.3z"/>
<path class="st2" d="M81.6,60.1l-1.5-2.3c4-2.7,5.1-8.1,2.5-12.1c-1.5-2.2-3.9-3.7-6.6-3.9l0.2-2.7c6.3,0.5,11,6.1,10.5,12.4
	C86.4,54.9,84.5,58.1,81.6,60.1z"/>
<path class="st2" d="M85.9,67.8l-1.5-2.3c7.9-5.3,9.9-16,4.6-23.9c-2.9-4.3-7.6-7-12.7-7.5l0.2-2.7c11,1,19.1,10.6,18.1,21.6
	C94.1,59,90.9,64.4,85.9,67.8z"/>
<path class="st2" d="M90.1,91.9l2.7-2.7c0.4-0.4,0.4-1,0-1.3c-0.4-0.4-1-0.4-1.3,0l-2.7,2.7L86,87.8c-0.4-0.4-1-0.4-1.3,0
	c-0.4,0.4-0.4,1,0,1.3l2.7,2.7l-2.7,2.7c-0.4,0.4-0.4,1,0,1.3c0.4,0.4,1,0.4,1.3,0l2.7-2.7l2.7,2.7c0.4,0.4,1,0.4,1.3,0
	c0.4-0.4,0.4-1,0-1.3L90.1,91.9z"/>
<path class="st2" d="M26.1,8l1.8-1.8c0.2-0.2,0.2-0.6,0-0.9c-0.2-0.2-0.6-0.2-0.9,0l-1.8,1.8l-1.8-1.8c-0.2-0.2-0.6-0.2-0.9,0
	c-0.2,0.2-0.2,0.6,0,0.9L24.4,8l-1.8,1.8c-0.2,0.2-0.2,0.6,0,0.9c0.2,0.2,0.6,0.2,0.9,0l1.8-1.8l1.8,1.8c0.2,0.2,0.6,0.2,0.9,0
	c0.2-0.2,0.2-0.6,0-0.9L26.1,8z"/>
<path class="st1" d="M89.9,5.9V3.1c0-0.4-0.3-0.7-0.7-0.7c-0.4,0-0.7,0.3-0.7,0.7v2.8h-2.8c-0.4,0-0.7,0.3-0.7,0.7
	c0,0.4,0.3,0.7,0.7,0.7h2.8v2.8c0,0.4,0.3,0.7,0.7,0.7c0.4,0,0.7-0.3,0.7-0.7V7.3h2.8c0.4,0,0.7-0.3,0.7-0.7c0-0.4-0.3-0.7-0.7-0.7
	L89.9,5.9z"/>
<circle class="st2" cx="5.6" cy="66.3" r="1.9"/>
<path class="st0" d="M52.2,16.4c0.3-0.3,0.9-0.3,1.2,0l3.4,3.4c0.3,0.3,0.3,0.9,0,1.2c-0.2,0.2-0.4,0.2-0.6,0.2s-0.4-0.1-0.6-0.2
	l-3.4-3.4C51.9,17.3,51.9,16.7,52.2,16.4z"/>
<path class="st1" d="M63.7,84.9c-0.4-0.2-0.9-0.1-1.1,0.3l-2.3,4.2c-0.2,0.4-0.1,0.9,0.3,1.1c0.2,0.1,0.4,0.1,0.6,0.1
	c0.2-0.1,0.4-0.2,0.5-0.4L64,86C64.2,85.6,64.1,85.1,63.7,84.9z"/>
<path class="st1" d="M14.9,32.2c0.4,0.2,0.9,0,1.1-0.4l2-4.4c0.2-0.4,0-0.9-0.4-1.1c-0.2-0.1-0.4-0.1-0.6,0s-0.4,0.2-0.5,0.4l-2,4.4
	C14.3,31.5,14.5,32,14.9,32.2z"/>
<circle class="st1" cx="41.8" cy="25.5" r="1.1"/>
<path class="st3" d="M93.1,26.6c-2.8,0.6-3.2,1-3.8,3.8c-0.6-2.8-1-3.2-3.8-3.8c2.8-0.6,3.2-1,3.8-3.8
	C89.8,25.6,90.3,26.1,93.1,26.6z"/>
<path class="st0" d="M39.3,92.4c-2.8,0.6-3.2,1-3.8,3.8c-0.6-2.8-1-3.2-3.8-3.8c2.8-0.6,3.2-1,3.8-3.8
	C36.1,91.4,36.6,91.8,39.3,92.4z"/>
</svg>
