<?xml version="1.0" encoding="utf-8"?>
<!-- Generator: Adobe Illustrator 19.2.1, SVG Export Plug-In . SVG Version: 6.00 Build 0)  -->
<svg version="1.1" id="Layer_1" xmlns="http://www.w3.org/2000/svg" xmlns:xlink="http://www.w3.org/1999/xlink" x="0px" y="0px"
	 viewBox="0 0 100 100" style="enable-background:new 0 0 100 100;" xml:space="preserve">
<style type="text/css">
	.st0{fill:#F2F9E8;}
	.st1{fill:#DAEAC3;}
	.st2{fill:#020405;}
	.st3{fill:#9CCC65;}
</style>
<path class="st0" d="M75.4,45.4l-1.8-5.5c-0.2-0.7-0.9-1-1.6-0.9l-0.6,0.1l-4,1c-1.2-2.1-2.8-3.9-4.7-5.4l1.5-3.8l0.2-0.6
	c0.3-0.7,0-1.4-0.6-1.8L58.6,26c-0.6-0.3-1.4-0.1-1.8,0.6l-2.5,4c-2.3-0.6-4.7-0.7-7.1-0.5l-1.9-4.4c-0.3-0.7-1-1-1.7-0.8l-5.5,1.8
	c-0.7,0.2-1.1,1-0.9,1.6l1,4.6c-2.1,1.2-3.9,2.8-5.4,4.7l-4.4-1.8c-0.7-0.3-1.4,0-1.8,0.6L24,41.5c-0.3,0.6-0.1,1.4,0.6,1.8l4,2.5
	c-0.6,2.3-0.7,4.7-0.5,7.1L24,55c-0.7,0.3-1,1-0.8,1.7l1.8,5.5c0.2,0.5,0.7,0.9,1.3,0.9c0.1,0,0.2,0,0.4,0l0.4-0.1l4.2-1
	c1.2,2.1,2.8,3.9,4.7,5.4l-1.8,4.4c-0.3,0.7,0,1.4,0.6,1.7L40,76c0.6,0.3,1.4,0.1,1.8-0.6c0.8-1.3,1.7-2.7,2.5-4
	c2.3,0.6,4.7,0.7,7.1,0.5l1.9,4.4c0.2,0.5,0.7,0.9,1.3,0.9c0.1,0,0.3,0,0.4-0.1l1.6-0.5l3.9-1.3c0.7-0.2,1.1-1,0.9-1.6L60.2,69
	c2.1-1.2,3.9-2.8,5.4-4.7l4.4,1.8c0.1,0,0.2,0.1,0.4,0.1h0.2c0.5,0,0.9-0.3,1.2-0.7l2.6-5.1c0.3-0.6,0.1-1.4-0.6-1.8L71.2,57l-1.5-1
	c0.6-2.3,0.8-4.7,0.5-7.1l4.4-1.9C75.2,46.8,75.6,46,75.4,45.4z"/>
<path class="st1" d="M55,41.8c-1.7-1-3.6-1.6-5.6-1.6c-1.7,0-3.4,0.4-5,1.1c-5.3,2.6-7.5,9.1-4.9,14.4c1.8,3.7,5.6,6,9.7,6l0,0
	c2,0,3.9-0.5,5.7-1.6c5.1-3.1,6.7-9.7,3.6-14.8C57.6,43.9,56.4,42.7,55,41.8z M56.3,55.7c-1.6,2.3-4.2,3.7-7,3.7
	c-1.3,0-2.6-0.3-3.8-0.8c-4.2-2-6-7-4-11.2c1.1-2.3,3.1-4,5.6-4.6c0.7-0.2,1.4-0.2,2.2-0.2c2.7,0,5.3,1.4,6.9,3.6
	C58.2,49,58.2,52.8,56.3,55.7z"/>
<path class="st0" d="M15.9,59.8c0-0.9-0.2-1.8-0.5-2.7c-0.3-0.8-0.8-1.5-1.4-2.1c-0.6-0.6-1.4-1.1-2.2-1.4c-0.9-0.3-1.9-0.5-2.8-0.5
	v-2.7c1,0,1.9-0.2,2.8-0.5c0.8-0.3,1.6-0.8,2.2-1.4c0.6-0.6,1.1-1.3,1.4-2.1c0.3-0.8,0.5-1.8,0.5-2.7c0-1.6-0.1-3.2-0.4-4.7
	c-0.3-1.5-0.6-3-0.9-4.6c-0.3-1.5-0.6-3.1-0.9-4.6c-0.3-1.6-0.4-3.2-0.4-4.8c0-1.7,0.3-3.4,0.8-5c0.5-1.5,1.4-2.8,2.4-4
	c1.1-1.2,2.4-2.1,3.9-2.6c1.7-0.7,3.5-1,5.2-0.9H28v1.8c0,0.3-0.1,0.6-0.4,0.7c-0.2,0.2-0.5,0.3-0.7,0.3h-1.5
	c-1.2,0-2.4,0.2-3.5,0.7c-1,0.4-1.9,1.1-2.7,1.9c-0.8,0.9-1.4,1.9-1.8,3C17.2,22.3,17,23.7,17,25c0,1.6,0.1,3.3,0.4,4.9
	s0.6,3.1,0.9,4.7c0.3,1.5,0.6,3.1,0.9,4.6s0.4,3.1,0.4,4.6c0,2-0.7,3.9-2,5.4c-0.6,0.7-1.3,1.2-2.1,1.7c-0.8,0.4-1.6,0.8-2.4,1
	c0.9,0.2,1.7,0.5,2.4,0.9c0.8,0.5,1.5,1,2.1,1.7s1.1,1.5,1.4,2.4c0.4,0.9,0.6,2,0.6,3c0,1.6-0.1,3.1-0.4,4.6s-0.6,3.1-0.9,4.6
	c-0.3,1.6-0.6,3.1-0.9,4.7S17,77,17,78.6c0,1.3,0.2,2.7,0.6,3.9c0.4,1.1,1,2.1,1.8,2.9c0.7,0.8,1.7,1.5,2.7,1.9
	c1.1,0.5,2.3,0.7,3.5,0.7H27c0.3,0,0.5,0.1,0.7,0.3c0.2,0.2,0.4,0.4,0.4,0.7v2h-2.4c-1.8,0-3.6-0.3-5.2-0.9
	c-1.5-0.6-2.8-1.5-3.9-2.6s-1.9-2.5-2.4-4c-0.6-1.6-0.9-3.3-0.8-5c0-1.6,0.1-3.2,0.4-4.8c0.3-1.5,0.6-3.1,0.9-4.6
	c0.3-1.5,0.6-3.1,0.9-4.6C15.8,63,15.9,61.4,15.9,59.8z"/>
<path class="st0" d="M86.1,59.8c0,1.6,0.1,3.2,0.4,4.7s0.6,3.1,0.9,4.6s0.6,3.1,0.9,4.6c0.3,1.6,0.4,3.2,0.4,4.8
	c0,1.7-0.3,3.4-0.8,5c-0.5,1.5-1.4,2.8-2.4,4c-1.1,1.2-2.4,2.1-3.9,2.6c-1.7,0.7-3.5,1-5.2,0.9H74v-1.9c0-0.3,0.1-0.6,0.4-0.7
	c0.2-0.2,0.5-0.3,0.8-0.3h1.5c1.2,0,2.4-0.2,3.5-0.7c1-0.4,1.9-1.1,2.6-1.9c0.8-0.9,1.4-1.9,1.8-3c0.4-1.3,0.7-2.6,0.6-3.9
	c0-1.6-0.1-3.2-0.4-4.8c-0.3-1.6-0.6-3.2-0.9-4.7c-0.3-1.6-0.6-3.1-0.9-4.6s-0.4-3.1-0.5-4.6c0-1,0.2-2,0.5-3
	c0.3-0.9,0.8-1.7,1.4-2.4s1.3-1.3,2.1-1.7c0.8-0.4,1.6-0.8,2.4-0.9c-0.9-0.2-1.7-0.5-2.4-1c-0.8-0.5-1.5-1-2.1-1.7s-1.1-1.5-1.4-2.4
	c-0.4-1-0.6-2-0.6-3c0-1.6,0.1-3.1,0.4-4.6s0.6-3.1,0.9-4.6s0.6-3.1,0.9-4.7S85,26.7,85,25c0-1.3-0.2-2.7-0.6-3.9
	c-0.4-1.1-1-2.1-1.8-3c-0.7-0.8-1.7-1.5-2.7-1.9c-1.1-0.5-2.3-0.7-3.5-0.7H75c-0.3,0-0.5-0.1-0.7-0.3s-0.4-0.5-0.4-0.7v-1.8h2.4
	c1.8,0,3.6,0.3,5.2,0.9c1.5,0.6,2.8,1.5,3.9,2.6s1.9,2.5,2.4,4c0.6,1.6,0.9,3.3,0.8,5c0,1.6-0.1,3.2-0.4,4.8
	c-0.3,1.5-0.6,3.1-0.9,4.6s-0.7,3-1,4.6s-0.4,3.1-0.4,4.7c0,0.9,0.2,1.8,0.5,2.7c0.3,0.8,0.8,1.5,1.4,2.1s1.4,1.1,2.2,1.4
	c0.9,0.3,1.8,0.5,2.8,0.5v2.7c-1,0-1.9,0.2-2.8,0.5c-0.8,0.3-1.5,0.8-2.2,1.4c-0.6,0.6-1.1,1.3-1.4,2.1C86.3,58,86.1,58.9,86.1,59.8
	z"/>
<title>icn-web-development</title>
<path class="st2" d="M12.8,57.8c0-0.9-0.2-1.8-0.5-2.7C12,54.3,11.6,53.6,11,53s-1.4-1.1-2.2-1.4c-0.9-0.3-1.9-0.5-2.8-0.5v-2.7
	c1,0,1.9-0.2,2.8-0.5c0.8-0.3,1.6-0.8,2.2-1.4c0.6-0.6,1.1-1.3,1.4-2.1c0.3-0.8,0.5-1.8,0.5-2.7c0-1.6-0.1-3.2-0.4-4.7
	c-0.3-1.5-0.6-3-0.9-4.6c-0.3-1.5-0.6-3.1-0.9-4.6c-0.3-1.6-0.4-3.2-0.4-4.8c0-1.7,0.3-3.4,0.8-5c0.5-1.5,1.4-2.8,2.4-4
	c1.1-1.2,2.4-2.1,3.9-2.6c1.7-0.7,3.5-1,5.2-0.9H25v1.8c0,0.3-0.1,0.6-0.4,0.7c-0.2,0.2-0.5,0.3-0.7,0.3h-1.5
	c-1.2,0-2.4,0.2-3.5,0.7c-1,0.4-1.9,1.1-2.7,1.9c-0.8,0.9-1.4,1.9-1.8,3c-0.4,1.3-0.7,2.6-0.6,3.9c0,1.6,0.1,3.3,0.4,4.9
	c0.3,1.6,0.6,3.1,0.9,4.7c0.3,1.5,0.6,3.1,0.9,4.6c0.3,1.5,0.4,3.1,0.4,4.6c0,2-0.7,3.9-2,5.4c-0.6,0.7-1.3,1.2-2.1,1.7
	c-0.8,0.4-1.6,0.8-2.4,1c0.9,0.2,1.7,0.5,2.4,0.9c0.8,0.5,1.5,1,2.1,1.7s1.1,1.5,1.4,2.4c0.4,0.9,0.6,2,0.6,3c0,1.6-0.1,3.1-0.4,4.6
	c-0.3,1.5-0.6,3.1-0.9,4.6c-0.3,1.6-0.6,3.1-0.9,4.7c-0.3,1.6-0.4,3.2-0.4,4.8c0,1.3,0.2,2.7,0.6,3.9c0.4,1.1,1,2.1,1.8,2.9
	c0.7,0.8,1.7,1.5,2.7,1.9c1.1,0.5,2.3,0.7,3.5,0.7h1.4c0.3,0,0.5,0.1,0.7,0.3c0.2,0.2,0.4,0.4,0.4,0.7V89h-2.4
	c-1.8,0-3.6-0.3-5.2-0.9c-1.5-0.6-2.8-1.5-3.9-2.6s-1.9-2.5-2.4-4c-0.6-1.6-0.9-3.3-0.8-5c0-1.6,0.1-3.2,0.4-4.8
	c0.3-1.5,0.6-3.1,0.9-4.6c0.3-1.5,0.6-3.1,0.9-4.6C12.7,60.9,12.9,59.4,12.8,57.8z"/>
<path class="st2" d="M83,57.8c0,1.6,0.1,3.2,0.4,4.7s0.6,3.1,0.9,4.6s0.6,3.1,0.9,4.6c0.3,1.6,0.4,3.2,0.4,4.8c0,1.7-0.3,3.4-0.8,5
	c-0.5,1.5-1.4,2.8-2.4,4c-1.1,1.2-2.4,2.1-3.9,2.6c-1.7,0.7-3.5,1-5.2,0.9h-2.4v-1.9c0-0.3,0.1-0.6,0.4-0.7c0.2-0.2,0.5-0.3,0.8-0.3
	h1.5c1.2,0,2.4-0.2,3.5-0.7c1-0.4,1.9-1.1,2.6-1.9c0.8-0.9,1.4-1.9,1.8-3c0.4-1.3,0.7-2.6,0.6-3.9c0-1.6-0.1-3.2-0.4-4.8
	c-0.3-1.6-0.6-3.2-0.9-4.7c-0.3-1.6-0.6-3.1-0.9-4.6s-0.4-3.1-0.5-4.6c0-1,0.2-2,0.5-3c0.3-0.9,0.8-1.7,1.4-2.4s1.3-1.3,2.1-1.7
	c0.8-0.4,1.6-0.8,2.4-0.9c-0.9-0.2-1.7-0.5-2.4-1c-0.8-0.5-1.5-1-2.1-1.7s-1.1-1.5-1.4-2.4c-0.4-1-0.6-2-0.6-3
	c0-1.6,0.1-3.1,0.4-4.6s0.6-3.1,0.9-4.6s0.6-3.1,0.9-4.7s0.4-3.2,0.4-4.9c0-1.3-0.2-2.7-0.6-3.9c-0.4-1.1-1-2.1-1.8-3
	c-0.7-0.8-1.7-1.5-2.7-1.9c-1.1-0.5-2.3-0.7-3.5-0.7H72c-0.3,0-0.5-0.1-0.7-0.3s-0.4-0.5-0.4-0.7v-1.8h2.4c1.8,0,3.6,0.3,5.2,0.9
	c1.5,0.6,2.8,1.5,3.9,2.6s1.9,2.5,2.4,4c0.6,1.6,0.9,3.3,0.8,5c0,1.6-0.1,3.2-0.4,4.8c-0.3,1.5-0.6,3.1-0.9,4.6
	c-0.3,1.5-0.7,3-1,4.6s-0.4,3.1-0.4,4.7c0,0.9,0.2,1.8,0.5,2.7c0.3,0.8,0.8,1.5,1.4,2.1s1.4,1.1,2.2,1.4c0.9,0.3,1.8,0.5,2.8,0.5
	v2.7c-1,0-1.9,0.2-2.8,0.5c-0.8,0.3-1.5,0.8-2.2,1.4c-0.6,0.6-1.1,1.3-1.4,2.1C83.2,55.9,83,56.9,83,57.8z"/>
<path class="st3" d="M53,40.8c-1.7-1-3.6-1.6-5.6-1.6c-1.7,0-3.4,0.4-5,1.1c-5.3,2.6-7.5,9.1-4.9,14.4c1.8,3.7,5.6,6,9.7,6l0,0
	c2,0,3.9-0.5,5.7-1.6c5.1-3.1,6.7-9.7,3.6-14.8C55.6,42.9,54.4,41.7,53,40.8z M54.3,54.7c-1.6,2.3-4.2,3.7-7,3.7
	c-1.3,0-2.6-0.3-3.8-0.8c-4.2-2-6-7-4-11.2c1.1-2.3,3.1-4,5.6-4.6c0.7-0.2,1.4-0.2,2.2-0.2c2.7,0,5.3,1.4,6.9,3.6
	C56.2,48,56.2,51.8,54.3,54.7z"/>
<path class="st3" d="M73.4,44.4l-1.8-5.5c-0.2-0.7-0.9-1-1.6-0.9l-0.6,0.1l-4,1c-1.2-2.1-2.8-3.9-4.7-5.4l1.5-3.8l0.2-0.6
	c0.3-0.7,0-1.4-0.6-1.8L56.6,25c-0.6-0.3-1.4-0.1-1.8,0.6l-2.5,4c-2.3-0.6-4.7-0.7-7.1-0.5l-1.9-4.4c-0.3-0.7-1-1-1.7-0.8l-5.5,1.8
	c-0.7,0.2-1.1,1-0.9,1.6l1,4.6c-2.1,1.2-3.9,2.8-5.4,4.7l-4.4-1.8c-0.7-0.3-1.4,0-1.8,0.6L22,40.5c-0.3,0.6-0.1,1.4,0.6,1.8l4,2.5
	c-0.6,2.3-0.7,4.7-0.5,7.1L22,54c-0.7,0.3-1,1-0.8,1.7l1.8,5.5c0.2,0.5,0.7,0.9,1.3,0.9c0.1,0,0.2,0,0.4,0l0.4-0.1l4.2-1
	c1.2,2.1,2.8,3.9,4.7,5.4l-1.8,4.4c-0.3,0.7,0,1.4,0.6,1.7L38,75c0.6,0.3,1.4,0.1,1.8-0.6c0.8-1.3,1.7-2.7,2.5-4
	c2.3,0.6,4.7,0.7,7.1,0.5l1.9,4.4c0.2,0.5,0.7,0.9,1.3,0.9c0.1,0,0.3,0,0.4-0.1l1.6-0.5l3.9-1.3c0.7-0.2,1.1-1,0.9-1.6L58.2,68
	c2.1-1.2,3.9-2.8,5.4-4.7l4.4,1.8c0.1,0,0.2,0.1,0.4,0.1h0.2c0.5,0,0.9-0.3,1.2-0.7l2.6-5.1c0.3-0.6,0.1-1.4-0.6-1.8L69.2,56l-1.5-1
	c0.6-2.3,0.8-4.7,0.5-7.1l4.4-1.9C73.2,45.8,73.6,45,73.4,44.4z M66.3,45.8c-0.6,0.2-0.9,0.8-0.9,1.4c0.4,2.7,0.2,5.5-0.6,8.1
	c-0.1,0.6,0.1,1.2,0.7,1.5l3.8,2.4l-1.5,3l-4.2-1.7c-0.5-0.2-1.2-0.1-1.6,0.4c-1.7,2.2-3.8,4-6.2,5.3c-0.5,0.3-0.8,0.9-0.6,1.5
	l1,4.4l-3.1,1L51.8,70l-0.5-1c-0.2-0.5-0.7-0.8-1.2-0.9H50c-2.7,0.4-5.5,0.2-8.1-0.6c-0.6-0.1-1.2,0.1-1.5,0.7L38,72l-3-1.5l1.7-4.2
	c0.3-0.5,0.1-1.2-0.4-1.6c-2.2-1.7-4-3.8-5.3-6.2c-0.3-0.5-0.9-0.8-1.5-0.6l-4.4,1l-1-3.1l0.3-0.1l3.8-1.7c0.6-0.2,0.9-0.8,0.8-1.4
	c-0.4-2.7-0.2-5.5,0.6-8.1c0.1-0.6-0.1-1.2-0.7-1.5l-3.8-2.4l0.2-0.3l1.3-2.6l4.2,1.7c0.5,0.2,1.2,0.1,1.6-0.4
	c1.6-2.2,3.8-4,6.2-5.3c0.5-0.3,0.8-0.9,0.6-1.5c-0.4-1.5-0.7-2.9-1-4.4l3.1-1l1.8,4.2c0.2,0.6,0.8,0.9,1.4,0.9
	c2.7-0.4,5.5-0.2,8.1,0.6c0.6,0.1,1.2-0.1,1.5-0.7l2.4-3.9l3,1.5l-1.7,4.2c-0.2,0.5-0.1,1.2,0.4,1.6c2.2,1.6,4,3.8,5.3,6.2
	c0.3,0.5,0.9,0.8,1.5,0.6l4.4-1l1,3.1L66.3,45.8z"/>
<path class="st2" d="M85,94.5l0.6-0.6c0.1-0.1,0.1-0.2,0-0.3c-0.1-0.1-0.2-0.1-0.3,0l-0.6,0.6l-0.6-0.6c-0.1-0.1-0.2-0.1-0.3,0
	c-0.1,0.1-0.1,0.2,0,0.3l0.6,0.6L83.9,95c-0.1,0.1-0.1,0.2,0,0.3c0.1,0.1,0.2,0.1,0.3,0l0.6-0.6l0.6,0.6c0.1,0.1,0.2,0.1,0.3,0
	c0.1-0.1,0.1-0.2,0-0.3L85,94.5z"/>
<path class="st3" d="M5,70.2l1.9-1.9c0.3-0.3,0.3-0.7,0-0.9c-0.3-0.3-0.7-0.3-0.9,0l-1.9,1.9l-1.9-1.9c-0.3-0.3-0.7-0.3-0.9,0
	c-0.3,0.3-0.3,0.7,0,0.9l1.9,1.9L1.3,72c-0.3,0.3-0.3,0.7,0,0.9c0.3,0.3,0.7,0.3,0.9,0L4.1,71L6,72.9c0.3,0.3,0.7,0.3,0.9,0
	c0.3-0.3,0.3-0.7,0-0.9L5,70.2z"/>
<path class="st2" d="M95,29.7v-2.5c0-0.3-0.3-0.6-0.6-0.6c-0.3,0-0.6,0.3-0.6,0.6v2.5h-2.5c-0.3,0-0.6,0.3-0.6,0.6
	c0,0.3,0.3,0.6,0.6,0.6h2.5v2.5c0,0.3,0.3,0.6,0.6,0.6c0.3,0,0.6-0.3,0.6-0.6v-2.5h2.5c0.3,0,0.6-0.3,0.6-0.6c0-0.3-0.3-0.6-0.6-0.6
	H95z"/>
<circle class="st3" cx="87.7" cy="6.6" r="2"/>
<path class="st0" d="M52.3,13.7c0.3-0.3,0.9-0.3,1.3,0l3.5,3.5c0.3,0.3,0.3,0.9,0,1.3c-0.2,0.2-0.4,0.3-0.6,0.3s-0.5-0.1-0.6-0.3
	L52.3,15C52,14.6,52,14.1,52.3,13.7z"/>
<path class="st3" d="M60.4,82.8c-0.3-0.1-0.6,0-0.7,0.2l-1.5,2.7c-0.1,0.3,0,0.6,0.2,0.7c0.1,0.1,0.3,0.1,0.4,0
	c0.1,0,0.3-0.1,0.3-0.3l1.5-2.7C60.8,83.3,60.7,83,60.4,82.8z"/>
<path class="st3" d="M11.2,9.7c0.4,0.2,1,0,1.2-0.4l2.1-4.6c0.2-0.4,0-1-0.4-1.2c-0.2-0.1-0.5-0.1-0.7,0S13,3.7,12.9,4l-2.1,4.6
	C10.6,9,10.8,9.5,11.2,9.7z"/>
<circle class="st2" cx="43.8" cy="10.6" r="1.2"/>
<path class="st0" d="M95.2,67c-1.7,0.3-1.9,0.6-2.3,2.3c-0.3-1.7-0.6-1.9-2.3-2.3c1.7-0.3,1.9-0.6,2.3-2.3
	C93.2,66.4,93.5,66.7,95.2,67z"/>
<path class="st2" d="M8.3,37.9c-1.7,0.3-1.9,0.6-2.3,2.3c-0.3-1.7-0.6-1.9-2.3-2.3c1.7-0.3,1.9-0.6,2.3-2.3
	C6.3,37.2,6.6,37.5,8.3,37.9z"/>
<path class="st2" d="M38.8,93.4c-2.9,0.6-3.4,1.1-4,4c-0.6-2.9-1.1-3.4-4-4c2.9-0.6,3.4-1.1,4-4C35.4,92.3,35.9,92.8,38.8,93.4z"/>
</svg>
