<?xml version="1.0" encoding="utf-8"?>
<!-- Generator: Adobe Illustrator 19.2.1, SVG Export Plug-In . SVG Version: 6.00 Build 0)  -->
<svg version="1.1" id="Layer_1" xmlns="http://www.w3.org/2000/svg" xmlns:xlink="http://www.w3.org/1999/xlink" x="0px" y="0px"
	 viewBox="0 0 100 100" style="enable-background:new 0 0 100 100;" xml:space="preserve">
<style type="text/css">
	.st0{fill:none;stroke:#0B1D25;stroke-linecap:round;stroke-linejoin:round;stroke-miterlimit:10;}
	.st1{fill:#F2F9E8;}
	.st2{fill:#0B1D25;}
	.st3{fill:#9CCC65;}
</style>
<line class="st0" x1="66.4" y1="87.7" x2="33.6" y2="87.7"/>
<path class="st1" d="M71,17.3H35.5c-2.8,0-5,2.3-5,5v62.9c0,2.8,2.3,5,5,5H71c2.8,0,5-2.3,5-5V22.4C76,19.6,73.7,17.3,71,17.3z
	 M86.8,48.3l1.9-1.9c0.3-0.3,0.3-0.7,0-0.9c-0.3-0.3-0.7-0.3-0.9,0l-1.9,1.9L84,45.5c-0.3-0.3-0.7-0.3-0.9,0c-0.3,0.3-0.3,0.7,0,0.9
	l1.9,1.9l-1.9,1.8c-0.3,0.3-0.3,0.7,0,0.9c0.3,0.3,0.7,0.3,0.9,0l1.9-1.9l1.9,1.9c0.3,0.3,0.7,0.3,0.9,0c0.3-0.3,0.3-0.7,0-0.9
	L86.8,48.3z M10.1,53.6c0.4,0.2,1,0,1.2-0.4l2.1-4.6c0.2-0.4,0-1-0.4-1.2c-0.2-0.1-0.5-0.1-0.7,0s-0.4,0.2-0.5,0.5l-2.1,4.6
	C9.5,52.9,9.7,53.4,10.1,53.6z"/>
<path class="st2" d="M68.3,13.3H31.7c-2.9,0-5.2,2.3-5.2,5.2v65c0,2.9,2.3,5.2,5.2,5.2h36.6c2.9,0,5.2-2.3,5.2-5.2v-65
	C73.5,15.6,71.2,13.3,68.3,13.3z M68.3,86.2H31.7c-1.6,0-2.9-1.2-2.9-2.9v-9.4H71v9.4C71.2,85,69.8,86.2,68.3,86.2z M71.2,25v46.6
	H28.8V25H71.2z M31.7,15.7h36.6c1.6,0,2.9,1.2,2.9,2.9v4.1H28.8v-4.1C28.8,17,30.2,15.7,31.7,15.7z M48.1,5.9l1.5-1.5
	c0.2-0.2,0.2-0.5,0-0.8c-0.2-0.2-0.5-0.2-0.8,0l-1.5,1.5l-1.5-1.5c-0.2-0.2-0.5-0.2-0.8,0c-0.2,0.2-0.2,0.5,0,0.8l1.5,1.5l-1.2,1.3
	c-0.2,0.2-0.2,0.5,0,0.8c0.2,0.2,0.5,0.2,0.8,0l1.5-1.5L49.1,8c0.2,0.2,0.5,0.2,0.8,0c0.2-0.2,0.2-0.5,0-0.8L48.1,5.9z M18.4,71.5
	c-1.5,0.3-1.7,0.5-2,2c-0.3-1.5-0.5-1.7-2-2c1.5-0.3,1.7-0.5,2-2C16.7,71,16.9,71.2,18.4,71.5z"/>
<path class="st3" d="M50,75.6c-2.2,0-4.1,1.9-4.1,4.1s1.9,4.1,4.1,4.1s4.1-1.9,4.1-4.1C54.1,77.4,52.2,75.6,50,75.6z M50,81.4
	c-0.9,0-1.7-0.8-1.7-1.7S49.1,78,50,78s1.7,0.8,1.7,1.7C51.7,80.6,50.9,81.4,50,81.4z M42.8,20.4h14.3c0.7,0,1.1-0.4,1.1-1.1
	s-0.4-1.1-1.1-1.1H42.8c-0.7,0-1.1,0.4-1.1,1.1C41.7,19.9,42.1,20.4,42.8,20.4z M81.5,23.8c1.1,0,2,0.9,2,2s-0.9,2-2,2s-2-0.9-2-2
	S80.4,23.8,81.5,23.8z M80.5,82.6c0.3-0.3,0.9-0.3,1.3,0l3.5,3.5c0.3,0.3,0.3,0.9,0,1.3c-0.2,0.2-0.4,0.3-0.6,0.3s-0.5-0.1-0.6-0.3
	l-3.6-3.5C80.2,83.5,80.2,83,80.5,82.6z M19.8,25c-2.9,0.6-3.4,1.1-4,4c-0.6-2.9-1.1-3.4-4-4c2.9-0.6,3.4-1.1,4-4
	C16.4,23.9,16.9,24.4,19.8,25z"/>
</svg>
