<?xml version="1.0" encoding="utf-8"?>
<!-- Generator: Adobe Illustrator 19.2.1, SVG Export Plug-In . SVG Version: 6.00 Build 0)  -->
<svg version="1.1" id="Layer_1" xmlns="http://www.w3.org/2000/svg" xmlns:xlink="http://www.w3.org/1999/xlink" x="0px" y="0px"
	 viewBox="0 0 100 100" style="enable-background:new 0 0 100 100;" xml:space="preserve">
<style type="text/css">
	.st0{fill:#F2F9E8;}
	.st1{fill:#020405;}
	.st2{fill:#0B1D25;}
	.st3{fill:#9CCC65;}
</style>
<title>icn-web-design</title>
<polygon class="st0" points="15.9,83.9 88.9,83.9 88.9,22.8 15.9,22.8 "/>
<path class="st1" d="M88.1,82.8H12.7V19.6H88L88.1,82.8L88.1,82.8z M15,80.5h70.8V21.9H15V80.5L15,80.5z"/>
<rect x="11.7" y="28.1" class="st2" width="73.1" height="2.3"/>
<path class="st2" d="M49,77.8H17.8V52.4H49V77.8z M20.1,75.5h26.7V54.6H20.1V75.5L20.1,75.5z"/>
<path class="st2" d="M82.9,77.8H51.7V52.4h31.2V77.8z M54,75.5h26.7V54.6H54V75.5L54,75.5z"/>
<path class="st3" d="M24.5,48.2c-3.7,0-6.7-3-6.7-6.7s3-6.7,6.7-6.7s6.7,3,6.7,6.7l0,0C31.1,45.2,28.2,48.2,24.5,48.2z M24.5,37.2
	c-2.4,0-4.4,2-4.4,4.4s2,4.4,4.4,4.4s4.4-2,4.4-4.4l0,0C28.9,39.1,26.9,37.2,24.5,37.2z"/>
<rect x="35.4" y="34.9" class="st3" width="54.4" height="2.3"/>
<rect x="35.4" y="45.5" class="st3" width="54.4" height="2.3"/>
<rect x="35.4" y="40.2" class="st3" width="54.4" height="2.3"/>
<path class="st3" d="M16.4,27.5c-1.3,0-2.4-1.1-2.4-2.4s1.1-2.4,2.4-2.4s2.4,1.1,2.4,2.4l0,0C18.7,26.4,17.7,27.5,16.4,27.5z
	 M16.4,24.2c-0.5,0-0.9,0.4-0.9,0.9s0.4,0.9,0.9,0.9s0.9-0.4,0.9-0.9l0,0C17.3,24.6,16.9,24.2,16.4,24.2z"/>
<path class="st3" d="M21.6,27.5c-1.3,0-2.4-1.1-2.4-2.4s1.1-2.4,2.4-2.4s2.4,1.1,2.4,2.4S23,27.5,21.6,27.5L21.6,27.5z M21.6,24.2
	c-0.5,0-0.9,0.4-0.9,0.9s0.4,0.9,0.9,0.9s0.9-0.4,0.9-0.9l0,0C22.6,24.6,22.2,24.2,21.6,24.2z"/>
<path class="st3" d="M26.9,27.5c-1.3,0-2.4-1.1-2.4-2.4s1.1-2.4,2.4-2.4s2.4,1.1,2.4,2.4S28.2,27.5,26.9,27.5L26.9,27.5z M26.9,24.2
	c-0.5,0-0.9,0.4-0.9,0.9s0.4,0.9,0.9,0.9s0.9-0.4,0.9-0.9l0,0C27.9,24.6,27.4,24.2,26.9,24.2z"/>
<path class="st3" d="M5.4,38.4l2-2c0.3-0.3,0.3-0.7,0-1s-0.7-0.3-1,0l-2,2l-2-2c-0.3-0.3-0.7-0.3-1,0s-0.3,0.7,0,1l2,2l-2,2
	c-0.3,0.3-0.3,0.7,0,1s0.7,0.3,1,0l2-2l2,2c0.3,0.3,0.7,0.3,1,0s0.3-0.7,0-1L5.4,38.4z"/>
<path class="st0" d="M68.7,11.4V8.9c0-0.3-0.3-0.6-0.6-0.6c-0.3,0-0.6,0.3-0.6,0.6v2.5H65c-0.3,0-0.6,0.3-0.6,0.6s0.3,0.6,0.6,0.6
	h2.5v2.5c0,0.3,0.3,0.6,0.6,0.6c0.3,0,0.6-0.3,0.6-0.6v-2.5h2.5c0.3,0,0.6-0.3,0.6-0.6s-0.3-0.6-0.6-0.6H68.7z"/>
<circle class="st1" cx="94.9" cy="29.6" r="1.7"/>
<path class="st1" d="M46.6,2.4c-0.3-0.3-0.8-0.3-1.1,0l-3,3c-0.3,0.3-0.3,0.8,0,1.1c0.1,0.1,0.3,0.2,0.5,0.2s0.4-0.1,0.5-0.2l3-3
	C46.9,3.2,46.9,2.7,46.6,2.4z"/>
<path class="st1" d="M1.2,66.7c0.3-0.3,0.8-0.3,1.1,0l3,3c0.3,0.3,0.3,0.8,0,1.1C5.2,70.9,5,71,4.8,71s-0.4-0.1-0.5-0.2l-3-3
	C0.9,67.5,0.9,67,1.2,66.7z"/>
<circle class="st1" cx="62.9" cy="95.2" r="2"/>
<path class="st0" d="M25.9,91.9c-2.5,0.5-2.9,0.9-3.4,3.4c-0.5-2.5-0.9-2.9-3.4-3.4c2.5-0.5,2.9-0.9,3.4-3.4
	C23,90.9,23.4,91.3,25.9,91.9z"/>
<path class="st3" d="M99,64.6c-2.5,0.5-2.9,0.9-3.4,3.4c-0.5-2.5-0.9-2.9-3.4-3.4c2.5-0.5,2.9-0.9,3.4-3.4
	C96.1,63.7,96.5,64.1,99,64.6z"/>
</svg>
