<?xml version="1.0" encoding="utf-8"?>
<!-- Generator: Adobe Illustrator 19.2.1, SVG Export Plug-In . SVG Version: 6.00 Build 0)  -->
<svg version="1.1" id="Layer_1" xmlns="http://www.w3.org/2000/svg" xmlns:xlink="http://www.w3.org/1999/xlink" x="0px" y="0px"
	 viewBox="0 0 100 60" style="enable-background:new 0 0 100 60;" xml:space="preserve">
<style type="text/css">
	.st0{fill:#FFFFFF;}
</style>
<title>bigga</title>
<g>
	<path class="st0" d="M10.6,40V19.4h5.8c1.9,0,3.3,0.5,4.2,1.4c0.9,0.9,1.4,2.3,1.4,4.1c0,1-0.2,1.8-0.7,2.5s-1.1,1.3-1.9,1.7
		c0.9,0.3,1.7,0.9,2.2,1.7c0.5,0.9,0.8,1.9,0.8,3.2c0,1.8-0.5,3.3-1.5,4.3c-1,1.1-2.4,1.6-4.3,1.6H10.6z M13.2,28.2h3.3
		c0.9,0,1.6-0.3,2.2-0.9c0.5-0.6,0.8-1.4,0.8-2.4c0-1.1-0.2-2-0.7-2.5c-0.5-0.5-1.3-0.8-2.3-0.8h-3.3V28.2z M13.2,30.4v7.4h3.5
		c1,0,1.8-0.3,2.3-1c0.6-0.6,0.9-1.5,0.9-2.7c0-2.5-1-3.7-3.1-3.7H13.2z"/>
	<path class="st0" d="M31.2,40h-2.6V19.4h2.6V40z"/>
	<path class="st0" d="M50.8,37.4L50.3,38c-1.3,1.5-3.2,2.3-5.7,2.3c-2.2,0-4-0.7-5.2-2.2c-1.3-1.5-1.9-3.5-1.9-6.2v-4
		c0-2.9,0.6-5,1.7-6.5c1.2-1.4,2.9-2.1,5.2-2.1c2,0,3.5,0.5,4.6,1.6c1.1,1.1,1.7,2.6,1.8,4.7h-2.6c-0.1-1.3-0.5-2.3-1.1-3
		c-0.6-0.7-1.5-1.1-2.8-1.1c-1.5,0-2.6,0.5-3.2,1.4c-0.7,1-1,2.5-1.1,4.6v4.2c0,2.1,0.4,3.7,1.2,4.8s1.9,1.7,3.4,1.7
		c1.4,0,2.4-0.3,3.2-1l0.4-0.4v-4.7h-3.7v-2.2h6.3V37.4z"/>
	<path class="st0" d="M70,37.4L69.5,38c-1.3,1.5-3.2,2.3-5.7,2.3c-2.2,0-4-0.7-5.2-2.2c-1.3-1.5-1.9-3.5-1.9-6.2v-4
		c0-2.9,0.6-5,1.7-6.5c1.2-1.4,2.9-2.1,5.2-2.1c2,0,3.5,0.5,4.6,1.6c1.1,1.1,1.7,2.6,1.8,4.7h-2.6c-0.1-1.3-0.5-2.3-1.1-3
		c-0.6-0.7-1.5-1.1-2.8-1.1c-1.5,0-2.6,0.5-3.2,1.4c-0.7,1-1,2.5-1.1,4.6v4.2c0,2.1,0.4,3.7,1.2,4.8s1.9,1.7,3.4,1.7
		c1.4,0,2.4-0.3,3.2-1l0.4-0.4v-4.7h-3.7v-2.2H70V37.4z"/>
	<path class="st0" d="M85.9,34.6H79L77.4,40h-2.6l6.6-20.5h2.2L90.2,40h-2.6L85.9,34.6z M79.7,32.4h5.6L82.5,23L79.7,32.4z"/>
</g>
<g>
	<path class="st0" d="M97.5,49h-95V11h95V49z M4.3,47.2h91.4V12.8H4.3V47.2z"/>
</g>
</svg>
