<?xml version="1.0" encoding="utf-8"?>
<!-- Generator: Adobe Illustrator 19.2.1, SVG Export Plug-In . SVG Version: 6.00 Build 0)  -->
<svg version="1.1" id="Layer_1" xmlns="http://www.w3.org/2000/svg" xmlns:xlink="http://www.w3.org/1999/xlink" x="0px" y="0px"
	 viewBox="0 0 99.1 59.3" style="enable-background:new 0 0 99.1 59.3;" xml:space="preserve">
<style type="text/css">
	.st0{fill:#FFFFFF;}
</style>
<title>bigga</title>
<path class="st0" d="M0.5,0.4C0.6,0.2,0.8,0.1,1,0c0.1,0,0.3,0.1,0.4,0.2C1.3,0.4,1.2,0.7,1.3,0.9c0,0.1,0,0.3,0,0.4
	c0,0.1,0,0.3,0,0.4c0,0.2,0,0.5,0,0.7c0.1,0.2,0.1,0.5,0,0.7c0,0.2,0.1,0.5,0.2,0.7c0.2,0.2,0.3,0.5,0.4,0.8L2,4.9
	C2.1,5,2.1,5.1,2.1,5.2c0,0.2,0.1,0.4,0.3,0.5c0.1,0.2,0.3,0.3,0.4,0.4C2.9,6.2,3,6.3,3.1,6.4l0.2,0.2c0.1,0,0.1,0,0.2-0.2
	c0.1-0.3,0.2-0.7,0.4-1c0.1-0.3,0.3-0.6,0.5-0.9C4.5,4.3,4.6,4,4.8,3.7l0.6-0.8C5.8,2.7,6,2.4,6.2,2.1C6.3,2,6.5,2,6.6,1.9L7,1.7
	c0.2-0.1,0.4-0.1,0.6-0.1c0.2,0,0.4-0.1,0.6-0.1c0.1,0,0.2,0,0.3,0l0.3,0.1c0.1,0,0.2,0,0.3,0s0.2,0,0.3,0c0.6,0.2,1.1,0.6,1.6,1
	c0.2,0.4,0.4,0.8,0.5,1.2c0,0.3,0,0.7,0.1,1c0.1,0.1,0.1,0.3,0,0.5c-0.1,0.2-0.1,0.3-0.1,0.5c0,0.1-0.1,0.3-0.1,0.4
	C11.1,6.2,11,6.3,11,6.4c-0.1,0.2-0.2,0.3-0.3,0.4S10.4,7,10.4,7.1c-0.1,0.1-0.1,0.2-0.2,0.3C10,7.5,10,7.6,9.9,7.7
	C9.8,7.9,9.6,8,9.5,8.1C9.3,8.2,9.2,8.4,9,8.4L8.3,8.7C8,8.8,7.8,8.8,7.5,8.8c0,0-0.1,0-0.1,0c0,0-0.1,0-0.1,0.1
	C7.3,9.2,7.2,9.4,7.1,9.6c0,0.2-0.1,0.5-0.2,0.7c0,0,0,0,0,0.1c0,0,0,0,0,0.1l-0.2,0.7l-0.2,0.7c-0.1,0.2-0.1,0.5-0.1,0.7
	c0,0.2-0.1,0.5-0.1,0.7l-0.2,0.7c-0.1,0.2-0.2,0.5-0.3,0.7c-0.1,0.2-0.1,0.4-0.1,0.5c0,0.2,0,0.4,0,0.5c-0.1,0.1-0.1,0.2-0.1,0.3
	c0,0.1,0,0.2,0,0.3c0,0.2-0.1,0.3-0.1,0.4c0,0.1,0,0.3,0,0.4c-0.1,0.2-0.1,0.4-0.1,0.6c0,0.2,0,0.4,0,0.6c-0.1,0.2-0.1,0.5-0.1,0.7
	c0,0.3,0,0.5,0,0.7l-0.1,0.9c0,0.3-0.1,0.6-0.1,0.9c0.1-0.1,0.2-0.2,0.3-0.3c0.1-0.1,0.2-0.1,0.3-0.2l0.4-0.3
	c0.1-0.1,0.3-0.2,0.4-0.3c0.3-0.1,0.6-0.3,0.9-0.5c0.2-0.1,0.4-0.1,0.6-0.1l0.6-0.1h0.7c0.2,0,0.5,0,0.7,0l0.7,0.2l0.7,0.2
	c0.2,0.1,0.4,0.1,0.5,0.1c0.2,0,0.4,0.1,0.5,0.1c0.1,0.1,0.2,0.1,0.3,0.2c0.1,0.1,0.2,0.1,0.4,0.1c0.1,0.2,0.3,0.3,0.5,0.4
	c0.2,0.1,0.4,0.2,0.6,0.3c0.2,0.1,0.3,0.3,0.5,0.4c0.3,0.2,0.5,0.3,0.8,0.5c0.3,0.2,0.5,0.4,0.8,0.6c0.2,0.1,0.3,0.3,0.4,0.4
	c0.1,0.1,0.3,0.3,0.4,0.5l0.6,0.9c0.2,0.3,0.4,0.6,0.5,1c0.1,0.2,0.1,0.4,0.3,0.6c0.1,0.2,0.2,0.4,0.1,0.6c0.1,0.3,0.1,0.6,0.1,0.9
	c0,0.3,0.1,0.6,0.1,0.9c-0.1,0.2-0.1,0.4,0,0.5c0,0.2,0,0.4,0,0.6c0,0.2,0,0.3,0,0.5l-0.1,0.7c0,0.2,0,0.5,0,0.7
	c-0.1,0.1-0.1,0.3,0,0.4s0.1,0.3,0,0.4c-0.2,0.7-0.4,1.5-0.5,2.2c0.2,0,0.3,0,0.4-0.1c0.1-0.1,0.3-0.2,0.4-0.2l0.8-0.4l0.8-0.4
	c0.2-0.1,0.3-0.2,0.5-0.3c0.1-0.1,0.3-0.3,0.5-0.4c0.6-0.3,1.1-0.8,1.4-1.4c0.2-0.6,0.4-1.2,0.7-2c0.3-0.6,0.5-1.3,0.6-2
	c0.1-0.7,0.5-1.3,1.1-1.8c0.1-0.1,0.3-0.2,0.4-0.1c0.1,0.1,0.2,0.2,0.2,0.4c0,1-0.2,1.9-0.5,2.9c-0.3,0.9-0.6,1.8-1,2.8
	c0,0.1,0,0.3-0.1,0.3c-0.2,0.4-0.3,0.7-0.6,1c-0.3,0.3-0.6,0.6-1,0.9c-0.4,0.3-0.9,0.6-1.4,0.7l-0.4,0.2L21.1,35l-0.5,0.3l-0.7,0.3
	l-0.7,0.3C19.1,35.9,19,36,18.9,36c-0.4,0-0.7,0.3-0.8,0.6c0,0.1,0,0.2,0,0.3c0,0.1,0,0.2,0,0.3c-0.1,0.1-0.1,0.2-0.1,0.3
	c0,0.1,0,0.2-0.1,0.3c-0.1,0.2-0.2,0.5-0.3,0.7c0,0.3-0.1,0.5-0.3,0.7l-0.4,0.6c-0.1,0.2-0.3,0.4-0.4,0.6c-0.1,0.1-0.3,0.2-0.5,0.3
	c-0.2,0.1-0.3,0.2-0.4,0.3c0,0.1-0.1,0.1-0.2,0.1h-0.2L15,41.3c-0.1,0-0.1,0.1-0.2,0.1c-0.2,0.1-0.4,0.1-0.6,0.3
	c-0.2,0.1-0.3,0.3-0.4,0.4c0-0.1,0-0.1-0.1-0.1c0,0-0.1-0.1-0.1-0.1c-0.1,0-0.2,0.1-0.3,0.2l-0.3,0.2L13,42.1L12.9,42
	c-0.2,0.1-0.5,0.2-0.6,0.3c-0.1,0-0.2,0-0.3,0.1c-0.1,0-0.2,0.1-0.3,0.1c-0.2-0.1-0.4-0.1-0.7-0.2c-0.2,0-0.4-0.1-0.6-0.3
	c-0.2-0.2-0.4-0.5-0.6-0.7c-0.2-0.3-0.3-0.5-0.4-0.8l-0.1-0.9c-0.1-0.1-0.1-0.3,0-0.4c0.1-0.1,0.2-0.2,0.2-0.4
	c-0.1-0.2,0-0.5,0.1-0.6c0.2-0.3,0.5-0.7,0.8-0.9c0.3-0.2,0.6-0.5,1-0.7c0.5-0.2,0.9-0.4,1.3-0.6c0.4-0.2,0.9-0.4,1.3-0.6
	c0.1-0.2,0.1-0.4,0.1-0.7c0-0.2,0-0.5,0.1-0.7c0.1-0.2,0.1-0.3,0.1-0.5c0-0.2,0-0.4,0.1-0.5c0-0.3,0-0.5,0.1-0.8
	c0.1-0.3,0.1-0.5,0.1-0.8c0.1-0.7,0.2-1.3,0.1-2c0.1-0.4,0.1-0.9,0-1.3c0-0.3,0-0.7,0-1c0-0.3,0-0.7,0-1c0.1-1.4-0.4-2.8-1.5-3.8
	c-1.1-0.9-2.4-1.3-3.8-1.2l-0.4,0.1H8.7c-0.6,0.3-1.1,0.6-1.6,1c-0.2,0.2-0.5,0.3-0.7,0.4C6.2,22.9,6,23,5.8,23.3
	c-0.1,0.2-0.3,0.3-0.4,0.4C5.2,23.8,5.1,24,5,24.2c0,0.3,0,0.7-0.1,1c0,0.3,0,0.7,0,1c0,0.1,0,0.3,0,0.4s0,0.3,0,0.4
	c-0.1,0.3-0.1,0.6-0.1,0.9c0,0.3,0,0.6,0.1,0.9c0,0.1,0,0.3,0,0.4c0,0.1,0,0.3,0,0.4c-0.1,0.3-0.1,0.5-0.1,0.8
	c0,0.3,0.1,0.5,0.1,0.8c0.1,0.3,0.1,0.6,0.1,0.9c0,0.3,0,0.6,0.1,0.8c0,0.2,0,0.5,0.1,0.7c0.1,0.2,0.1,0.5,0.2,0.7
	c0,0.4,0.1,0.8,0.3,1.2C6,35.9,6,36.3,6,36.7c0,0.1,0.1,0.3,0.1,0.4c0.1,0.1,0.1,0.3,0,0.4c0,0.2,0,0.3,0,0.5c0,0.2-0.1,0.3-0.3,0.5
	c-0.1,0.1-0.2,0.1-0.3,0.2c-0.1,0-0.1,0.1-0.1,0.2c-0.3,0.1-0.6,0.1-0.9,0c-0.2-0.1-0.5-0.2-0.7-0.4c-0.2-0.1-0.4-0.3-0.5-0.5
	c-0.1,0-0.2,0-0.3,0c-0.1-0.1-0.1-0.2-0.2-0.3c-0.1-0.1-0.1-0.2-0.1-0.3c0-0.1-0.1-0.3-0.1-0.4c-0.1-0.2-0.2-0.4-0.3-0.5
	c-0.2-0.5-0.3-1-0.5-1.4c-0.2-0.5-0.4-0.9-0.5-1.4C1.1,33,1,32.5,1,31.9c-0.1-0.4-0.2-0.9-0.3-1.3c-0.1-0.4-0.1-0.9-0.2-1.4
	c-0.1-0.5-0.1-1-0.2-1.5c-0.1-0.5-0.1-1.1-0.2-1.6c0-0.4,0-0.8,0-1.2c0-0.4,0-0.8-0.1-1.2c-0.1-0.4,0-0.9,0.1-1.3
	c0.1-0.4,0.2-0.9,0.1-1.3c0-0.3,0-0.6,0-0.9c0-0.3,0-0.6,0-0.9v-1c0-0.3,0-0.7,0.1-1c0-0.1,0-0.2-0.1-0.4c0-0.1,0-0.3,0.1-0.4
	c0.1-0.3,0.1-0.6,0.1-0.8c0.1-0.3,0.1-0.7,0.3-1c0-0.1,0.1-0.2,0.1-0.3c0-0.1,0-0.2,0-0.3c0-0.2,0-0.4,0.1-0.6
	C0.9,13.5,1,13.3,1,13.1c0.1-0.4,0.2-0.8,0.3-1.2c0.1-0.4,0.2-0.8,0.4-1.2c0.1-0.2,0.2-0.5,0.2-0.8C2,9.7,2.1,9.5,2.3,9.2
	C2.3,9,2.4,8.8,2.5,8.6S2.6,8.2,2.7,8s0.1-0.2,0-0.3c-0.1,0-0.2-0.1-0.2-0.2C2.5,7.4,2.3,7.3,2.2,7.2C2,7.1,1.9,6.9,1.9,6.8L1.7,6.3
	L1.5,5.8L1.2,5.3C1,5.1,1,4.9,0.9,4.7c0-0.1,0-0.2-0.1-0.3c0-0.1-0.1-0.2-0.2-0.2C0.6,4.1,0.5,4,0.5,3.8c0-0.1-0.1-0.3-0.1-0.4
	C0.3,3.3,0.2,3.2,0.3,3.1c0-0.1,0-0.2,0-0.4c0-0.2,0-0.4,0-0.6c0-0.2,0.1-0.4,0.1-0.6l0.1-0.6L0.5,0.4z M8.7,4.8L8.3,5.3
	C8.1,5.5,8,5.7,8,5.9C7.9,6,7.9,6.2,8,6.3c0,0.1,0,0.3,0,0.4c0,0.1,0,0.2-0.1,0.4L7.7,7.4c0,0.1-0.1,0.2-0.1,0.3
	c0,0.1,0,0.2-0.1,0.3l0.7-0.2c0.2,0,0.4-0.1,0.5-0.3C9,7.2,9.1,7,9.3,6.7c0.1-0.2,0.3-0.5,0.4-0.7C9.8,5.7,9.9,5.4,9.9,5
	c0.1-0.4,0-0.7-0.3-1C9.4,4.1,9.3,4.2,9.1,4.4C9,4.5,8.8,4.7,8.7,4.8L8.7,4.8z M11.8,38.6c-0.1,0.1-0.3,0.3-0.5,0.4
	c-0.1,0.1-0.3,0.3-0.3,0.5l-0.2,0.2c-0.1,0.1-0.1,0.2-0.2,0.3c0,0.1,0,0.2,0,0.3c0,0.1,0.1,0.1,0.1,0.2l0.9-0.6
	c0.3-0.2,0.6-0.4,0.8-0.7c0.2-0.2,0.3-0.4,0.4-0.6c0.1-0.2,0.1-0.3,0-0.5l-0.5,0.3C12.1,38.3,12,38.5,11.8,38.6L11.8,38.6z"/>
<path class="st0" d="M27.2,15.7c0.1-0.1,0.2-0.2,0.4-0.1c0.1,0,0.3,0,0.4,0c0.3,0.1,0.6,0.2,0.8,0.5c0.2,0.3,0.4,0.6,0.4,0.9
	c0,0.1,0,0.1,0,0.2s0,0.1,0,0.2c0,0.2,0,0.3,0,0.5c0,0.2,0,0.3,0,0.5c0,0.2,0.1,0.3,0.1,0.4c0,0.1,0,0.3,0,0.4
	c0,0.1,0.1,0.2,0.2,0.3c-0.1,0.1-0.1,0.3-0.2,0.5c0,0.2,0,0.3,0.1,0.5c0,0.1,0,0.2,0,0.3c-0.1,0.1-0.1,0.2,0,0.3
	c0,0.2,0.1,0.3,0,0.5c0.1,0.1,0.1,0.3,0.1,0.4c0,0.1,0,0.3,0,0.4c0,0.3,0.1,0.5,0.2,0.8c0.1,0.3,0.1,0.5,0,0.8c0,0.2,0,0.4,0,0.6
	c0,0.3,0,0.5,0,0.7c0,0.2,0,0.5-0.1,0.7c-0.1,0.2-0.1,0.5-0.1,0.7s0,0.5-0.1,0.7c0,0.2-0.1,0.3-0.1,0.4c0,0.1,0,0.3,0,0.4l-0.1,0.2
	c0,0.1,0,0.2,0,0.2c0,0.1,0,0.2,0,0.3c0,0.1-0.1,0.2-0.1,0.3c0,0.3,0,0.5,0,0.8l-0.1,0.8c0,0.4,0,0.8-0.1,1.2c0,0.4,0,0.8,0,1.2
	c0.1,0.3,0.1,0.7,0,1c0,0.3,0,0.7,0,1c0.1,0.3,0.2,0.7,0.3,1c0.1,0.3,0.3,0.6,0.5,0.9c0.1,0.1,0.1,0.2,0.3,0.2
	c0.1,0,0.2,0.1,0.3,0.2c0.1,0.1,0.2,0.1,0.4,0.1c0.1,0,0.3,0,0.4,0c0.1,0,0.2,0,0.3,0c0.7,0,1.3-0.4,1.6-1c0.5-0.8,0.9-1.6,1.2-2.5
	c0.4-1,0.7-2.1,0.9-3.1c0.3-1.1,0.5-2,0.7-2.9c0.1-0.3,0.2-0.7,0.3-1c0.1-0.3,0.2-0.7,0.3-1c0.1-0.3,0.3-0.6,0.5-0.9
	c0.2-0.3,0.6-0.4,0.9-0.4c0.2,1,0.1,2-0.2,2.9c-0.3,1-0.6,1.9-0.9,2.8c-0.3,0.7-0.5,1.4-0.7,1.9c-0.2,0.6-0.4,1.1-0.6,1.6
	c-0.2,0.5-0.4,1-0.6,1.4c-0.2,0.5-0.5,1-0.8,1.5C33.7,38,33,38.6,32.1,39C32,39,32,39,31.9,39l0,0l0,0h-0.1c-0.2,0-0.3,0-0.5,0
	c-0.2-0.1-0.3-0.1-0.5-0.1h-0.3c-0.1,0-0.2,0-0.3,0c-0.1-0.1-0.2-0.1-0.3-0.2l-0.3-0.1c-0.3-0.2-0.7-0.4-1-0.6
	c-0.3-0.2-0.6-0.4-0.9-0.7c-0.1-0.1-0.2-0.2-0.3-0.3c-0.1-0.1-0.2-0.2-0.3-0.3c-0.2-0.2-0.4-0.5-0.6-0.8c-0.2-0.3-0.4-0.5-0.6-0.8
	c-0.1-0.3-0.2-0.6-0.4-0.8c-0.2-0.2-0.3-0.5-0.4-0.8c-0.1-0.3-0.2-0.6-0.3-0.9c-0.1-0.3-0.2-0.6-0.2-0.9c0-0.3-0.1-0.6-0.2-0.9
	c0-0.2,0-0.5,0-0.7c0-0.3,0-0.5,0-0.8c0-0.3,0-0.5,0-0.8c0-0.2,0.1-0.3,0-0.5c0-0.2,0-0.4,0.1-0.5c0-0.1,0-0.2,0-0.3
	c0-0.1,0-0.2,0-0.3c0.1-0.2,0.1-0.4,0.1-0.5c0-0.2,0-0.4,0-0.6c-0.1-0.2,0-0.4,0-0.6c0-0.2,0-0.4,0-0.6c0-0.2,0-0.4,0-0.7
	c0-0.2,0.1-0.4,0.1-0.6c0-0.2,0.1-0.4,0.1-0.6c0.1-0.2,0.1-0.3,0.1-0.5s0-0.4,0.1-0.5c0.1-0.2,0.1-0.5,0.1-0.7
	c0-0.2,0.1-0.5,0.1-0.7c0-0.3,0.1-0.6,0.3-0.8c0.2-0.2,0.2-0.5,0.3-0.8c0.1-0.2,0.3-0.5,0.3-0.8c0-0.3,0.1-0.6,0.3-0.8l0.2-0.7
	C26.9,16.2,27,15.9,27.2,15.7z M27.9,8.8c0.1,0,0.2,0,0.3-0.1c0.1-0.1,0.2-0.1,0.3-0.1c0.3,0,0.7,0,1,0c0.3,0,0.6,0.1,0.8,0.3
	c0.2,0.3,0.3,0.6,0.3,0.9c0,0.3,0,0.6,0,0.9c-0.1,0.6-0.3,1.1-0.7,1.6l-0.3,0.4c-0.1,0.1-0.2,0.3-0.2,0.4c-0.1,0.2-0.3,0.4-0.5,0.5
	c-0.2,0.1-0.4,0.2-0.6,0.3c-0.2,0.1-0.4,0.1-0.5,0c-0.2-0.1-0.3-0.2-0.5-0.3c-0.2-0.1-0.4-0.3-0.5-0.5c-0.1-0.2-0.2-0.4-0.4-0.6
	c-0.1-0.3-0.2-0.7-0.2-1.1l0.1-1.1c0.1-0.2,0.2-0.5,0.3-0.7L27,9c0.1,0,0.3-0.1,0.4-0.1C27.5,8.8,27.7,8.8,27.9,8.8z"/>
<path class="st0" d="M45.4,32.2c0.1-0.3,0.1-0.5,0.3-0.8c0.1-0.3,0.2-0.5,0.3-0.8c0-0.2,0-0.4,0-0.5c0.1-0.2,0.1-0.3,0-0.5
	c0.1-0.4,0.1-0.7,0.2-1.1c0-0.4,0.1-0.8,0.3-1.1c0.1-0.1,0.1-0.3,0.1-0.4c0-0.2,0-0.3,0.1-0.4c0.1-0.3,0.1-0.5,0.2-0.8
	c0-0.3,0-0.5,0.1-0.8c0-0.1,0-0.2,0-0.4c0,0,0-0.1,0-0.1s0-0.1,0-0.1c-0.1-0.6,0-1.2,0.2-1.7c0-0.1,0-0.1,0-0.2c0-0.1,0-0.2,0-0.2
	c0.2-0.2,0.5-0.3,0.8-0.3c0.3,0.1,0.6,0.1,0.9,0.3c0.1,0.1,0.2,0.2,0.3,0.3l0.2,0.3c0.2,0.2,0.3,0.4,0.3,0.6l0.2,0.7
	c-0.1,0.2-0.1,0.4,0,0.5c0,0.2,0.1,0.4,0.2,0.5c0,0.5,0,1-0.1,1.4c0,0.5,0,0.9,0.2,1.4c0.1,0.3,0.1,0.7,0.1,1c0,0.3,0,0.7,0.1,1
	c0,0.2,0,0.4,0.1,0.6c0.1,0.2,0.1,0.4,0.1,0.6c0,0.1,0,0.1,0,0.2c0,0.1,0,0.1,0,0.2c0,0.2,0.1,0.3,0.1,0.5c0,0.2,0.1,0.3,0.1,0.5
	c0,0,0,0.2,0,0.5s-0.1,0.7-0.1,1.1s-0.1,0.8-0.1,1.1s0,0.5,0,0.6l0.1,0.5c0,0.2,0,0.3,0,0.5c0,0.2,0,0.3,0.1,0.5
	c0.1,0.1,0.2,0.3,0.1,0.5l0.3-0.3c0.1-0.1,0.2-0.2,0.3-0.3v0c1.2-1.3,2.2-2.7,3.1-4.2c0.8-1.6,1.5-3.1,2.1-4.5
	c0.1-0.3,0.3-0.6,0.3-0.9c0.1-0.3,0.2-0.7,0.3-1c0.1-0.3,0.2-0.6,0.4-0.8c0.2-0.2,0.5-0.4,0.8-0.4c0.1,0,0.3,0,0.4,0.1
	c0.1,0.1,0.1,0.3,0,0.4c-0.2,1.1-0.5,2.1-1,3.1c-0.5,1.1-1,2.1-1.6,3.1s-1.2,2-1.8,3c-0.6,1-1.2,2-1.7,2.9c-0.1,0.5-0.4,0.9-0.7,1.3
	c-0.2,0.3-0.6,0.6-0.9,0.8c-0.2,0.3-0.4,0.5-0.5,0.7c-0.1,0.1-0.2,0.3-0.2,0.4c0,0.2,0,0.3,0,0.5c-0.1,0.2-0.1,0.3-0.2,0.5
	c0,0.2,0,0.3,0,0.5c0,0.7-0.1,1.3-0.2,2c-0.1,0.7-0.2,1.3-0.2,2c0,0.2,0,0.4-0.1,0.6c-0.1,0.2-0.1,0.4-0.1,0.6c0,0.3,0,0.5-0.1,0.8
	c0,0.3-0.1,0.5-0.1,0.8c0,0.2,0,0.5,0,0.7c0,0.2,0,0.5,0,0.7L49.2,51c0,0.1,0,0.2,0,0.4c0,0.1,0,0.1-0.1,0.2
	c-0.1,0.1-0.1,0.1-0.2,0.2c-0.1,0.3-0.2,0.7-0.3,1c-0.1,0.3-0.1,0.6-0.3,1c-0.1,0.2-0.2,0.3-0.3,0.5c-0.1,0.1-0.2,0.3-0.2,0.5
	c0,0.1,0,0.2,0,0.3l-0.1,0.3c0,0.3-0.1,0.6-0.3,0.8c-0.2,0.2-0.3,0.5-0.4,0.8c-0.1,0.2-0.2,0.3-0.3,0.5c-0.1,0.2-0.2,0.3-0.3,0.4
	c-0.1,0.1-0.3,0.2-0.4,0.3c-0.1,0.1-0.2,0.3-0.3,0.4c-0.3,0.2-0.6,0.3-0.9,0.4l-1,0.2c-0.3,0-0.7,0-1,0c-0.4,0-0.9-0.1-1.3-0.2
	l-1.1-0.5c-0.3-0.3-0.6-0.5-0.9-0.7c-0.3-0.2-0.6-0.5-0.7-0.8c-0.1-0.1-0.2-0.2-0.3-0.3c-0.1-0.1-0.2-0.2-0.3-0.3
	c-0.1-0.1-0.2-0.2-0.3-0.3c0-0.1-0.1-0.3-0.2-0.4c-0.1-0.3-0.2-0.5-0.4-0.7c-0.2-0.2-0.4-0.4-0.4-0.6c0-0.1,0-0.3,0-0.6
	s0-0.5,0.1-0.8c0-0.3,0.1-0.5,0.1-0.8c0-0.2,0-0.4,0.1-0.5c0.1-0.1,0.1-0.3,0.2-0.4c0.1-0.1,0.1-0.3,0.2-0.4
	c0.1-0.3,0.2-0.5,0.3-0.8c0.1-0.3,0.2-0.5,0.4-0.7c0.3-0.3,0.5-0.6,0.7-1c0.2-0.3,0.4-0.6,0.6-0.9c0.2-0.2,0.5-0.5,0.7-0.8
	c0.3-0.4,0.6-0.7,0.9-0.9c0.3-0.3,0.7-0.5,1-0.8c0.3-0.3,0.8-0.7,1.3-1.2c0.4-0.4,0.9-0.8,1.3-1.2c0.1-0.1,0.1-0.1,0.1-0.2
	c0-0.1,0-0.1,0-0.2c0.1-0.2,0.1-0.4,0-0.5c0-0.2,0-0.4,0-0.5c0-0.1,0-0.2,0-0.4c0-0.1,0-0.3,0-0.4c0-0.3,0.1-0.5,0.1-0.7
	s0-0.3,0-0.5v-0.5c0-0.2,0-0.5,0-0.7c0-0.2,0-0.4,0-0.6c0-0.2,0-0.4,0-0.6c-0.1,0.1-0.1,0.2-0.3,0.3C44.9,37,44.7,37,44.5,37
	c-0.1-0.1-0.3,0-0.4,0.1c-0.2,0.2-0.3,0.3-0.5,0.4c-0.2,0.1-0.4,0.3-0.5,0.5c-0.1,0.1-0.2,0.2-0.4,0.3c-0.2,0-0.3,0.1-0.4,0.2
	l-0.5,0.4c-0.2,0.1-0.3,0.2-0.5,0.2c-0.2,0-0.4,0-0.6,0.1c-0.2,0-0.4,0-0.6,0c-0.4,0.1-0.8,0-1.1-0.2l-0.5-0.2
	c-0.2-0.1-0.3-0.2-0.4-0.3c-0.1-0.1-0.2-0.2-0.3-0.3c-0.1-0.1-0.3-0.2-0.3-0.4l-0.4-0.6c-0.1-0.2-0.3-0.4-0.3-0.6l-0.3-0.7
	c-0.1-0.3-0.2-0.5-0.3-0.8l-0.2-0.8c0-0.1,0-0.3,0-0.4c0-0.1,0-0.3,0-0.4c0-0.3,0-0.6-0.1-0.9c0-0.3,0-0.6,0-0.9c0-0.2,0-0.4,0-0.7
	c0-0.2,0-0.4,0-0.7c0.1-0.2,0.1-0.3,0.1-0.5c0-0.2,0.1-0.3,0.1-0.5C36,29,36,28.8,36,28.6c0.1-0.2,0.1-0.4,0.2-0.6
	c0-0.2,0.1-0.3,0.1-0.5c0-0.2,0.1-0.3,0.2-0.5c0.1-0.3,0.2-0.5,0.3-0.7c0.1-0.2,0.2-0.5,0.3-0.7c0.1-0.3,0.2-0.5,0.3-0.7
	c0.1-0.2,0.3-0.5,0.3-0.7c0.1-0.1,0.1-0.2,0.2-0.4c0.1-0.1,0.1-0.2,0.2-0.4l0.1-0.2l0.1-0.3c0-0.1,0.1-0.2,0.2-0.3
	c0.1-0.1,0.1-0.2,0.2-0.3c0.2-0.3,0.4-0.6,0.6-0.9c0.2-0.3,0.4-0.6,0.5-0.9c0.2-0.4,0.4-0.7,0.7-1c0.2-0.3,0.5-0.6,0.8-1
	c0.3-0.4,0.6-0.7,1-1.2c0.3-0.4,0.7-0.7,1.2-1c0.2-0.1,0.3-0.2,0.5-0.3c0.1-0.1,0.2-0.2,0.4-0.3c0.1-0.1,0.3-0.1,0.4-0.1
	c0.1,0,0.3-0.1,0.4-0.1h0.5c0.2,0,0.3,0,0.5,0c0.1,0,0.1,0.1,0.2,0.1c0,0.1,0.1,0.1,0.2,0.2c0,0.1,0.1,0.1,0.1,0.1l0.2,0.1
	c0.1,0.1,0.1,0.2,0.2,0.4c0,0.1,0.1,0.3,0.2,0.4c0.1,0.2,0.2,0.4,0.2,0.6c0,0.2-0.1,0.4-0.2,0.6c-0.1,0.2-0.2,0.4-0.3,0.5
	c-0.1,0.1-0.3,0.3-0.4,0.4c-0.1,0.2-0.2,0.3-0.4,0.4c-0.2,0.2-0.3,0.3-0.4,0.5c-0.1,0.2-0.2,0.4-0.3,0.6L44.8,21
	c-0.1,0.2-0.2,0.4-0.3,0.6c-0.1,0.1-0.2,0.3-0.2,0.5c0,0.2-0.1,0.3-0.2,0.5L44,23.1c-0.1,0.2-0.2,0.4-0.3,0.5
	c-0.1,0.1-0.1,0.3-0.2,0.4c-0.1,0.1-0.1,0.2-0.2,0.3l-0.3,0.5l-0.3,0.5c-0.2,0.2-0.3,0.4-0.3,0.6c-0.1,0.2-0.2,0.4-0.3,0.6
	c-0.1,0.2-0.3,0.4-0.3,0.6c-0.1,0.2-0.2,0.4-0.3,0.5c-0.1,0.2-0.2,0.4-0.3,0.5c-0.1,0-0.1,0.1-0.1,0.2L41,28.5
	c-0.1,0.2-0.1,0.4-0.3,0.6l-0.3,0.6c-0.1,0.2-0.2,0.4-0.3,0.6S40,30.6,40,30.8c-0.1,0.2-0.2,0.4-0.2,0.6c0,0.2-0.1,0.4-0.2,0.6
	c0,0.1,0,0.3,0,0.4s0,0.3,0,0.4c-0.1,0.1-0.1,0.2-0.1,0.3s0,0.2-0.1,0.3L39.3,34c0,0.2,0,0.3,0,0.5c0,0.2,0,0.3,0,0.5
	c0,0.2,0,0.3,0,0.5c0,0.3,0,0.5,0,0.8c0,0.2,0,0.5,0.1,0.7c0.2,0.1,0.4,0.1,0.7,0.2c0.2,0,0.4,0,0.6-0.1c0.3-0.1,0.5-0.2,0.8-0.3
	c0.3-0.1,0.5-0.2,0.8-0.3c0.3-0.1,0.5-0.3,0.7-0.5l0.6-0.6c0.1-0.2,0.2-0.3,0.3-0.4c0.1-0.1,0.2-0.3,0.3-0.4
	c0.1-0.2,0.2-0.4,0.3-0.6c0.1-0.2,0.2-0.4,0.3-0.6c0.1-0.2,0.1-0.3,0.2-0.5C45.2,32.5,45.3,32.3,45.4,32.2z M43.1,46.6
	c-0.2,0.1-0.4,0.3-0.6,0.5L42,47.6c-0.2,0.2-0.5,0.5-0.6,0.7l-0.5,0.8l-0.5,0.8c-0.2,0.3-0.3,0.5-0.4,0.8c-0.1,0.2-0.2,0.5-0.3,0.7
	c-0.1,0.3-0.2,0.6-0.3,1c-0.1,0.3-0.1,0.7-0.2,1c0,0.3,0,0.5,0,0.8c0,0.3,0,0.5,0.1,0.8c0.1,0.3,0.2,0.5,0.3,0.8l0.2,0.5
	c0.1,0.1,0.2,0.3,0.3,0.4c0.3,0.3,0.6,0.5,1,0.6c0.4,0.1,0.8,0.2,1.1,0.3c0.1-0.1,0.3-0.1,0.4-0.1l0.4-0.1c0.3-0.2,0.5-0.5,0.6-0.8
	l0.4-1c0.1-0.3,0.2-0.6,0.3-0.9c0.1-0.4,0.1-0.8,0.2-1.2c0.1-0.4,0.1-0.8,0.2-1.2l0.1-1c0-0.3,0-0.5,0-0.8c0-0.3,0-0.5,0.1-0.8
	c0-0.8,0-1.6,0.1-2.4c0-0.8,0-1.6,0-2.4c-0.4,0.3-0.7,0.6-1.1,0.9C43.7,46,43.4,46.3,43.1,46.6z"/>
<path class="st0" d="M65.6,32.2c0.1-0.3,0.1-0.5,0.3-0.8c0.1-0.3,0.2-0.5,0.3-0.8c0-0.2,0-0.4,0-0.5c0.1-0.2,0.1-0.3,0-0.5
	c0.1-0.4,0.1-0.7,0.2-1.1c0-0.4,0.1-0.8,0.3-1.1c0.1-0.1,0.1-0.3,0.1-0.4c0-0.2,0-0.3,0.1-0.4c0.1-0.3,0.1-0.5,0.2-0.8
	c0-0.3,0-0.5,0.1-0.8c0-0.1,0-0.2,0-0.4c0,0,0-0.1,0-0.1s0-0.1,0-0.1c-0.1-0.6,0-1.2,0.2-1.7c0-0.1,0-0.1,0-0.2c0-0.1,0-0.2,0-0.2
	c0.2-0.2,0.5-0.3,0.8-0.3c0.3,0.1,0.6,0.1,0.9,0.3c0.1,0.1,0.2,0.2,0.3,0.3l0.3,0.3c0.2,0.2,0.3,0.4,0.3,0.6l0.2,0.7
	c-0.1,0.2-0.1,0.4,0,0.5c0,0.2,0.1,0.4,0.2,0.5c0,0.5,0,1-0.1,1.4c0,0.5,0,0.9,0.2,1.4c0.1,0.3,0.1,0.7,0.1,1c0,0.3,0,0.7,0.1,1
	c0,0.2,0,0.4,0.1,0.6c0.1,0.2,0.1,0.4,0.1,0.6c0,0.1,0,0.1,0,0.2c0,0.1,0,0.1,0,0.2c0,0.2,0.1,0.3,0.1,0.5c0,0.2,0.1,0.3,0.1,0.5
	c0,0,0,0.2,0,0.5s-0.1,0.7-0.1,1.1s-0.2,0.7-0.2,1s0,0.5,0,0.6l0.1,0.5c0,0.2,0,0.3,0,0.5c0,0.2,0,0.3,0.1,0.5
	c0.1,0.1,0.2,0.3,0.1,0.5l0.3-0.3c0.1-0.1,0.2-0.2,0.3-0.3v0.1c1.2-1.3,2.2-2.7,3.1-4.2c0.9-1.6,1.6-3.1,2.3-4.5
	c0.1-0.3,0.3-0.6,0.3-0.9c0.1-0.3,0.2-0.7,0.3-1c0.1-0.3,0.2-0.6,0.4-0.8c0.2-0.2,0.5-0.4,0.8-0.4c0.1,0,0.3,0,0.4,0.1
	c0.1,0.1,0.1,0.3,0,0.4c-0.2,1.1-0.5,2.1-1,3.1c-0.5,1.1-1,2.1-1.6,3.1c-0.6,1-1.2,2-1.8,3c-0.6,1-1.2,2-1.7,2.9
	c-0.1,0.5-0.4,0.9-0.7,1.3c-0.2,0.3-0.6,0.6-0.9,0.8c-0.2,0.3-0.4,0.5-0.5,0.7c-0.1,0.1-0.2,0.3-0.2,0.4c0,0.2,0,0.3,0,0.5
	c-0.1,0.2-0.1,0.3-0.1,0.5c0,0.2,0,0.3,0,0.5c0,0.7-0.1,1.3-0.2,2c-0.1,0.7-0.2,1.3-0.2,2c0,0.2,0,0.4-0.1,0.6
	c-0.1,0.2-0.1,0.4-0.1,0.6c0,0.3,0,0.5-0.1,0.8c0,0.3-0.1,0.5-0.1,0.8c0,0.2,0,0.5,0,0.7c0,0.2,0,0.5,0,0.7L69.4,51
	c0,0.1,0,0.2,0,0.4c0,0.1,0,0.1-0.1,0.2c-0.1,0.1-0.1,0.1-0.2,0.2c-0.1,0.3-0.2,0.7-0.3,1c-0.1,0.3-0.2,0.6-0.3,1
	c-0.1,0.2-0.2,0.3-0.3,0.5c-0.1,0.1-0.2,0.3-0.2,0.5c0,0.1,0,0.2,0,0.3L68,55.3c0,0.3-0.1,0.6-0.3,0.8c-0.2,0.2-0.3,0.5-0.4,0.8
	c-0.1,0.2-0.2,0.3-0.3,0.5c-0.1,0.2-0.2,0.3-0.3,0.4c-0.1,0.1-0.3,0.2-0.4,0.3c-0.1,0.1-0.2,0.3-0.3,0.4c-0.3,0.2-0.6,0.3-0.9,0.4
	l-1,0.2c-0.3,0-0.7,0-1,0c-0.4,0-0.9-0.1-1.3-0.2l-1.1-0.5c-0.3-0.3-0.6-0.5-0.9-0.7c-0.3-0.2-0.6-0.5-0.7-0.8
	c-0.1-0.1-0.2-0.2-0.3-0.3c-0.1-0.1-0.2-0.2-0.3-0.3c-0.1-0.1-0.2-0.2-0.3-0.3c0-0.1-0.1-0.3-0.2-0.4c-0.1-0.3-0.2-0.5-0.4-0.7
	c-0.2-0.2-0.3-0.4-0.4-0.7c0-0.1,0-0.3,0-0.6c0-0.3,0-0.5,0.1-0.7c0-0.3,0.1-0.5,0.1-0.8c0-0.2,0-0.4,0.1-0.5
	c0.1-0.1,0.1-0.3,0.2-0.4c0.1-0.1,0.1-0.3,0.2-0.4c0.1-0.3,0.2-0.5,0.3-0.8c0.1-0.3,0.2-0.5,0.4-0.7c0.3-0.3,0.5-0.6,0.7-0.9
	c0.2-0.3,0.4-0.6,0.6-0.9c0.2-0.2,0.5-0.5,0.7-0.8c0.3-0.4,0.6-0.7,0.9-0.9c0.3-0.3,0.7-0.5,1-0.8c0.3-0.3,0.8-0.7,1.3-1.2
	c0.4-0.4,0.9-0.8,1.3-1.2c0.1-0.1,0.1-0.1,0.1-0.2c0-0.1,0-0.1,0-0.2c0.1-0.2,0.1-0.4,0-0.5c0-0.2,0-0.4,0-0.5c0-0.1,0-0.2,0-0.4
	c0-0.1,0-0.3,0-0.4c0-0.3,0.1-0.5,0.1-0.7s0-0.3,0-0.5v-0.5c0-0.2,0-0.5,0-0.7c0-0.2,0-0.4,0-0.6c0-0.2,0-0.4,0-0.6
	c0,0.1-0.1,0.3-0.1,0.4C65.1,37,65,37.1,64.8,37c-0.1-0.1-0.3,0-0.4,0.1c-0.2,0.2-0.3,0.3-0.5,0.4c-0.2,0.1-0.4,0.3-0.5,0.5
	c-0.1,0.1-0.2,0.2-0.4,0.3c-0.2,0-0.3,0.1-0.4,0.2l-0.5,0.4C61.9,39,61.7,39,61.5,39c-0.2,0-0.4,0-0.6,0.1c-0.2,0-0.4,0-0.6,0
	c-0.4,0.1-0.8,0-1.2-0.2l-0.5-0.2c-0.2-0.1-0.3-0.2-0.4-0.4c-0.1-0.1-0.2-0.2-0.3-0.3c-0.1-0.1-0.3-0.2-0.3-0.4l-0.4-0.6
	c-0.1-0.2-0.3-0.4-0.3-0.6l-0.3-0.7c-0.1-0.3-0.2-0.5-0.2-0.8L56,34.1c0-0.1,0-0.3-0.1-0.4c0-0.1,0-0.3,0-0.4c0-0.3,0-0.6-0.1-0.9
	c0-0.3,0-0.6,0-0.9c0-0.2,0-0.4,0-0.7c0-0.2,0-0.4,0-0.7c0.1-0.2,0.1-0.3,0.1-0.5c0-0.2,0.1-0.3,0.1-0.5c0.1-0.2,0.1-0.4,0.2-0.6
	c0-0.2,0.1-0.4,0.2-0.6c0-0.2,0.1-0.3,0.1-0.5c0-0.2,0.1-0.3,0.2-0.5c0.1-0.3,0.2-0.5,0.3-0.7c0.1-0.2,0.2-0.5,0.3-0.7
	c0.1-0.3,0.2-0.5,0.3-0.7c0.1-0.2,0.3-0.5,0.3-0.7c0.1-0.1,0.1-0.2,0.2-0.4c0.1-0.1,0.1-0.2,0.2-0.4l0.1-0.2l0.1-0.3
	c0-0.1,0.1-0.2,0.2-0.3c0.1-0.1,0.1-0.2,0.2-0.3c0.2-0.3,0.3-0.6,0.5-0.9c0.2-0.3,0.4-0.6,0.5-0.9c0.2-0.4,0.4-0.7,0.7-1
	c0.2-0.3,0.5-0.6,0.8-1c0.3-0.4,0.6-0.7,1-1.2c0.3-0.4,0.7-0.7,1.2-1c0.2-0.1,0.3-0.2,0.5-0.3c0.1-0.1,0.3-0.2,0.5-0.3
	c0.1-0.1,0.3-0.1,0.4-0.1c0.1,0,0.3-0.1,0.4-0.1h0.5c0.2,0,0.3,0,0.5,0c0.1,0,0.1,0.1,0.2,0.1c0,0.1,0.1,0.1,0.2,0.2
	c0,0.1,0.1,0.1,0.1,0.1l0.2,0.1c0.1,0.1,0.1,0.2,0.2,0.4c0,0.1,0.1,0.3,0.2,0.4c0.1,0.2,0.2,0.4,0.2,0.6c0,0.2-0.1,0.4-0.2,0.6
	c-0.1,0.2-0.2,0.4-0.3,0.5c-0.1,0.1-0.3,0.3-0.4,0.4c-0.1,0.2-0.2,0.3-0.4,0.4c-0.2,0.2-0.3,0.3-0.4,0.5c-0.1,0.2-0.2,0.4-0.3,0.6
	L65.1,21c-0.1,0.2-0.2,0.4-0.3,0.6c-0.1,0.1-0.2,0.3-0.2,0.5c0,0.2-0.1,0.3-0.2,0.5l-0.2,0.6c-0.1,0.2-0.2,0.4-0.3,0.5
	c-0.1,0.1-0.1,0.3-0.2,0.4c-0.1,0.1-0.1,0.2-0.2,0.3l-0.3,0.5L63,25.3c-0.2,0.2-0.3,0.4-0.3,0.6c-0.1,0.2-0.2,0.4-0.3,0.6
	c-0.1,0.2-0.3,0.4-0.3,0.6c-0.1,0.2-0.2,0.4-0.3,0.5c-0.1,0.2-0.2,0.4-0.3,0.5c-0.1,0-0.1,0.1-0.1,0.2l-0.1,0.2
	c-0.1,0.2-0.1,0.4-0.3,0.6l-0.3,0.6c-0.1,0.2-0.2,0.4-0.3,0.6s-0.2,0.4-0.2,0.6c-0.1,0.2-0.2,0.4-0.2,0.6c0,0.2-0.1,0.4-0.2,0.6
	c0,0.1,0,0.3,0,0.4s0,0.3,0,0.4c-0.1,0.1-0.1,0.2-0.1,0.3s0,0.2-0.1,0.3L59.6,34c0,0.2,0,0.3,0,0.5c0,0.2,0,0.3,0,0.5
	c0,0.2,0,0.3,0,0.5c0,0.3,0,0.5,0,0.8c0,0.2,0,0.5,0.1,0.7c0.2,0.1,0.4,0.1,0.7,0.2c0.2,0,0.4,0,0.6-0.1c0.3-0.1,0.5-0.2,0.8-0.3
	c0.3-0.1,0.5-0.2,0.8-0.4c0.3-0.1,0.5-0.3,0.7-0.5l0.6-0.6c0.1-0.2,0.2-0.3,0.3-0.4c0.1-0.1,0.3-0.3,0.4-0.4
	c0.1-0.2,0.2-0.4,0.3-0.6c0.1-0.2,0.2-0.4,0.3-0.6c0.1-0.2,0.1-0.3,0.2-0.5C65.5,32.5,65.5,32.3,65.6,32.2z M63.3,46.6
	c-0.2,0.1-0.4,0.3-0.6,0.5l-0.5,0.5c-0.2,0.2-0.5,0.5-0.6,0.7L61,49.1l-0.5,0.8c-0.2,0.3-0.3,0.5-0.4,0.8c-0.1,0.2-0.2,0.5-0.3,0.7
	c-0.1,0.3-0.2,0.6-0.3,1c-0.1,0.3-0.1,0.7-0.2,1c0,0.3,0,0.5,0,0.8c0,0.3,0,0.5,0.1,0.8c0.1,0.3,0.2,0.5,0.3,0.8l0.2,0.5
	c0.1,0.1,0.2,0.3,0.3,0.4c0.3,0.3,0.6,0.5,1,0.6c0.4,0.1,0.8,0.2,1.1,0.3c0.1-0.1,0.3-0.1,0.4-0.1l0.3-0.2c0.3-0.2,0.5-0.5,0.6-0.8
	l0.4-1c0.1-0.3,0.2-0.6,0.3-0.9c0.1-0.4,0.1-0.8,0.2-1.2c0.1-0.4,0.1-0.8,0.2-1.2l0.1-1c0-0.3,0-0.5,0-0.8c0-0.3,0-0.5,0.1-0.8
	c0-0.8,0-1.6,0.1-2.4c0-0.8,0-1.6,0-2.4c-0.4,0.3-0.7,0.6-1.1,0.9C63.9,46,63.6,46.3,63.3,46.6z"/>
<path class="st0" d="M84.8,15.7c0.1-0.1,0.3-0.1,0.4-0.1l0.4-0.1h0.5c0.2,0,0.4,0,0.5,0.1c0.1,0.1,0.2,0.2,0.3,0.4l0.3,0.3
	c0,0.2,0.1,0.5,0.3,0.7c0.1,0.2,0.1,0.4,0.2,0.6l-0.2,0.6c-0.1,0.2-0.2,0.3-0.3,0.5c-0.2,0.1-0.3,0.3-0.4,0.4
	c-0.1,0.2-0.2,0.3-0.4,0.4c-0.2,0.2-0.3,0.3-0.4,0.5c-0.1,0.2-0.2,0.3-0.3,0.5c-0.1,0.2-0.2,0.4-0.3,0.5c-0.1,0.2-0.2,0.4-0.3,0.5
	c-0.1,0.2-0.2,0.3-0.2,0.5c0,0.2-0.1,0.3-0.2,0.5c-0.1,0.2-0.1,0.3-0.2,0.5c-0.1,0.2-0.2,0.4-0.3,0.5L84,24
	c-0.1,0.1-0.2,0.2-0.3,0.3l-0.3,0.5l-0.3,0.5c-0.1,0.2-0.3,0.4-0.3,0.6c-0.1,0.2-0.2,0.4-0.4,0.6c-0.1,0.2-0.3,0.4-0.3,0.6
	c-0.1,0.2-0.2,0.3-0.3,0.5c-0.1,0.2-0.2,0.4-0.3,0.5c0,0.1-0.1,0.1-0.1,0.2c0,0.1,0,0.1-0.1,0.2c-0.1,0.2-0.2,0.4-0.3,0.6l-0.3,0.6
	c-0.1,0.2-0.2,0.4-0.3,0.6l-0.2,0.6c-0.1,0.2-0.2,0.3-0.3,0.5c0,0.2-0.1,0.4-0.2,0.6c-0.1,0.1-0.1,0.3-0.1,0.4c0,0.1,0,0.2-0.1,0.3
	c-0.1,0.1-0.1,0.2-0.1,0.4c0,0.1,0,0.2,0,0.4c-0.1,0.2-0.1,0.3-0.2,0.5c0,0.2,0,0.3,0,0.5c0,0.2,0,0.3,0,0.5c-0.1,0.2-0.1,0.3,0,0.5
	c0,0.2,0,0.5,0,0.7c0,0.3,0,0.5,0.1,0.7c0.2,0.1,0.4,0.1,0.7,0.1c0.2,0,0.4,0,0.6-0.1l0.8-0.3c0.2-0.1,0.4-0.2,0.6-0.4
	c0.3-0.1,0.5-0.2,0.7-0.4l0.6-0.6c0.1-0.1,0.2-0.3,0.4-0.4c0.1-0.1,0.3-0.3,0.4-0.4c0.1-0.2,0.3-0.4,0.4-0.6s0.2-0.4,0.3-0.6
	l0.4-0.8l0.4-0.8c0.1-0.2,0.1-0.3,0.1-0.5c0-0.2,0-0.3-0.1-0.5c0.1-0.2,0.1-0.5,0.1-0.7v-0.7c0-0.1,0-0.2,0-0.3c0-0.1,0-0.1,0-0.2
	c0-0.2,0-0.4,0-0.6c0.1-0.2,0.1-0.4,0.1-0.6c0-0.2,0.1-0.4,0.2-0.5c0.1-0.1,0.1-0.3,0-0.4c0.1-0.1,0.1-0.3,0.1-0.5
	c0-0.2,0-0.3,0-0.5c0.1-0.2,0.1-0.4,0.1-0.6c0-0.2,0-0.3,0.1-0.5c0.1-0.2,0.1-0.3,0.2-0.5c0-0.2,0.1-0.4,0.1-0.6
	c0.1-0.3,0.1-0.5,0.2-0.8c0.1-0.3,0.2-0.6,0.3-0.9c0-0.1,0-0.2,0-0.3c0-0.1,0-0.2,0-0.3c0-0.1,0.1-0.1,0.2-0.2
	c0.1,0,0.2-0.1,0.3-0.1c0.1-0.1,0.3-0.1,0.4,0l0.4,0.2c0.2,0,0.3,0.1,0.4,0.2c0.1,0.1,0.2,0.2,0.3,0.3l0.3,0.3
	c0.1,0.1,0.2,0.2,0.3,0.4c0.1,0.2,0.1,0.3,0.2,0.5c0.1,0.2,0.2,0.3,0.2,0.5c0,0.2,0,0.4,0,0.6c0,0.2,0,0.4,0,0.5c0,0.2,0,0.4,0,0.6
	s0,0.4,0,0.6c0,0.2,0,0.3,0,0.5c0,0.2,0,0.3,0,0.5c0.1,0.3,0.1,0.7,0.1,1c0,0.3,0,0.7,0.1,1c0,0.2,0,0.3,0,0.5c0,0.2,0,0.3,0,0.5
	c0,0.1,0,0.2,0,0.3c0,0.1,0,0.2,0.1,0.3c0,0.1,0,0.2,0,0.3c0,0.1-0.1,0.2-0.1,0.3c0,0.2,0,0.3,0,0.5c0,0.2,0,0.4,0,0.5
	c-0.1,0.2-0.1,0.5-0.1,0.8c0,0.3,0,0.5,0,0.8c0,0.1,0,0.2,0,0.3c0,0.1,0,0.2,0,0.3c0,0.2,0,0.4,0,0.6c0,0.2,0,0.4,0.1,0.6
	c0,0.2,0,0.3,0,0.5c0.1,0.1,0.1,0.3,0.1,0.4c0,0.1,0,0.3,0,0.4c0.1,0.1,0.1,0.3,0.1,0.4c0,0.1,0,0.3,0.1,0.4c0,0.1,0.1,0.2,0.1,0.3
	c0.1,0.1,0.1,0.2,0.1,0.3c0,0.1,0,0.2,0,0.3c0.2,0.1,0.4,0.3,0.6,0.3c0.2,0,0.3,0,0.5,0c0.1,0,0.3-0.1,0.4-0.2
	c0.1-0.1,0.2-0.1,0.2-0.2c0.7-0.5,1.2-1.2,1.6-2c0.4-0.8,0.7-1.6,1-2.4c0.3-0.9,0.5-1.7,0.7-2.6c0.2-0.9,0.5-1.7,0.9-2.5
	c0.1-0.3,0.3-0.6,0.3-0.9c0.1-0.4,0.2-0.7,0.3-1c0.1-0.3,0.2-0.6,0.4-0.8c0.2-0.2,0.5-0.4,0.8-0.4c0.1,0,0.3,0,0.4,0.1
	c0.1,0.1,0.1,0.3,0,0.4c-0.4,2.1-0.9,4.1-1.6,6.1c-0.6,2-1.4,4-2.5,5.8c-0.2,0.3-0.4,0.7-0.6,0.9c-0.2,0.3-0.5,0.6-0.8,0.8
	c-0.3,0.2-0.5,0.4-0.9,0.5c-0.2,0.1-0.5,0.1-0.8,0.1c-0.1,0-0.3-0.1-0.4-0.1L91.1,40c-0.3-0.1-0.6-0.2-0.8-0.3
	c-0.3-0.2-0.5-0.3-0.8-0.4c-0.2-0.1-0.3-0.1-0.4-0.2c-0.1-0.1-0.3-0.2-0.3-0.3c-0.1-0.1-0.2-0.2-0.3-0.3c-0.1-0.1-0.2-0.2-0.3-0.3
	c-0.1-0.1-0.1-0.1-0.2-0.2l-0.2-0.2c-0.3-0.3-0.6-0.7-0.7-1.2c-0.1-0.2-0.2-0.5-0.3-0.7c-0.1-0.1-0.1-0.3-0.2-0.4
	c0-0.2-0.1-0.3-0.2-0.4c-0.1-0.1-0.1-0.3-0.1-0.4c0-0.1-0.1-0.3-0.2-0.4c-0.2,0.2-0.3,0.4-0.4,0.6c-0.1,0.2-0.3,0.4-0.4,0.6
	c-0.1,0.1-0.1,0.2-0.1,0.3c0,0.1-0.1,0.3-0.2,0.3C85,36.2,85,36.3,85,36.4c0,0.1-0.1,0.2-0.1,0.3c-0.1,0.1-0.2,0.2-0.3,0.3
	c-0.1,0.1-0.1,0.2-0.2,0.3c-0.2,0.2-0.3,0.3-0.5,0.4c-0.2,0.1-0.4,0.2-0.6,0.3c-0.1,0.1-0.2,0.3-0.4,0.3c-0.2,0-0.3,0.1-0.5,0.2
	l-0.5,0.3c-0.2,0.1-0.3,0.2-0.5,0.2c-0.2,0-0.4,0-0.6,0.1c-0.2,0.1-0.4,0.1-0.6,0c-0.2,0.1-0.4,0.1-0.6,0c-0.2-0.1-0.4-0.2-0.5-0.3
	c-0.2-0.1-0.3-0.1-0.5-0.2c-0.2-0.1-0.3-0.2-0.4-0.3c-0.1-0.2-0.2-0.3-0.3-0.4c-0.1-0.1-0.2-0.2-0.3-0.3c0-0.1-0.1-0.3-0.2-0.4
	C77.1,37.1,77,37,77,36.9c-0.1-0.2-0.2-0.4-0.3-0.6l-0.3-0.7c-0.1-0.3-0.2-0.5-0.3-0.8l-0.2-0.9c0-0.1,0-0.3,0-0.4
	c0-0.1,0-0.3,0-0.4l-0.1-0.9c0-0.3,0-0.6,0-0.9c0-0.2,0-0.4,0.1-0.7c0-0.2,0-0.4,0-0.7c0.1-0.2,0.1-0.3,0.1-0.5
	c0-0.2,0.1-0.4,0.2-0.5c0.1-0.2,0.1-0.4,0.2-0.5c0-0.2,0.1-0.4,0.2-0.6c0.1-0.2,0.1-0.3,0.2-0.5c0-0.2,0.1-0.3,0.2-0.5
	c0.1-0.3,0.2-0.5,0.3-0.7l0.4-0.7c0.1-0.3,0.2-0.5,0.3-0.7c0.2-0.2,0.3-0.5,0.4-0.7l0.2-0.3c0.1-0.1,0.1-0.2,0.2-0.4
	c0-0.1,0-0.2,0.1-0.3c0.1-0.1,0.1-0.2,0.2-0.3c0-0.1,0.1-0.2,0.2-0.3c0.1-0.1,0.1-0.1,0.2-0.2c0.2-0.3,0.4-0.6,0.6-0.9
	c0.2-0.3,0.4-0.6,0.6-0.9c0.2-0.4,0.4-0.7,0.7-1c0.3-0.3,0.5-0.6,0.7-1c0.4-0.4,0.7-0.7,1.1-1.2c0.3-0.4,0.8-0.7,1.2-1
	c0.2-0.1,0.3-0.2,0.5-0.3C84.5,15.9,84.6,15.8,84.8,15.7z M90.9,38.1C90.9,38.2,90.9,38.2,90.9,38.1L90.9,38.1z"/>
</svg>
