<?xml version="1.0" encoding="utf-8"?>
<!-- Generator: Adobe Illustrator 19.2.1, SVG Export Plug-In . SVG Version: 6.00 Build 0)  -->
<svg version="1.1" id="Layer_1" xmlns="http://www.w3.org/2000/svg" xmlns:xlink="http://www.w3.org/1999/xlink" x="0px" y="0px"
	 viewBox="0 0 150 150" style="enable-background:new 0 0 150 150;" xml:space="preserve">
<style type="text/css">
	.st0{fill:#FFFFFF;}
</style>
<g>
	<path class="st0" d="M112.5,84.2c-0.1,0.3-0.3,0.6-0.4,0.9c-0.2,0.3-0.4,0.4-0.8,0.5c0.1,0.3,0.1,0.6,0.1,1c0,0.4,0.2,0.8,0.5,1
		c-0.2,0.4-0.3,0.7-0.2,0.9c0,0.2,0,0.4-0.2,0.7c0.1,0.7,0.3,1.2,0.7,1.5c0.1,0.3,0,0.6-0.1,0.7c-0.1,0.2-0.3,0.4-0.4,0.6
		c-0.2,1.2-0.3,2.2-0.2,2.9c0,0.7,0,1.4-0.2,2.1c-0.1,0.3-0.3,0.6-0.4,0.9c-0.1,0.3-0.2,0.6-0.3,0.9c0.3,0.5,0.3,0.7,0.2,0.8
		c-0.1,0.1-0.1,0.2,0,0.3c-0.7,0.5-1,0.7-0.9,0.7c0.1,0,0.1,0.1,0,0.2c-0.7,0.3-1.3,0.8-1.6,1.4c-0.4,0.6-0.9,1-1.6,1.4
		c-1,0.9-2,1.8-3,2.6c-1,0.8-2.1,1.6-3.3,2.3c-0.1,0.3-0.2,0.4-0.5,0.4c-0.3,0-0.4,0.2-0.5,0.5c-0.8,0.2-1.7,0.5-2.7,0.8
		s-2,0.7-3,0.9c-1,0.3-2.1,0.4-3.1,0.5c-1.1,0.1-2.1,0-3.1-0.3c-1.6,0.2-3.3,0.3-5.1,0.2c-1.8,0-3.6-0.1-5.3-0.2
		c-0.3-0.1-0.7-0.2-1.1-0.3c-0.4-0.1-0.7-0.2-1.1-0.1c-0.5,0.1-0.8,0.1-1.2,0c-0.3,0-0.7-0.1-1.3-0.1c-0.7-0.1-1.5,0-2.3,0.1
		c-0.8,0.2-1.6,0.2-2.5,0.2c-0.3-0.1-0.6-0.1-0.9-0.2c-0.3-0.1-0.5-0.1-0.8-0.1c-0.5,0.1-1,0.2-1.3,0.4c-0.4,0.2-0.8,0.1-1.3-0.4
		c-1,0.5-2.3,0.7-3.7,0.6c-1.5-0.1-2.9-0.1-4.2,0.2c-0.3-0.1-0.6-0.1-0.8-0.1c-0.2,0-0.5,0-0.7,0.1c-0.2-0.3-0.4-0.4-0.6-0.3
		c-0.2,0-0.5,0-0.7-0.1c-0.5,0.1-1.1,0.2-1.7,0.3c-0.6,0.2-1.1,0.2-1.5,0.1c-0.5,0-0.7,0-0.8,0c-0.1,0-0.2,0-0.2,0
		c-0.6,0.1-1.1,0.3-1.5,0.6c-0.5,0.3-0.9,0.4-1.5,0.3c-0.5-0.1-1.1-0.3-1.6-0.4c-0.6-0.2-1.1,0-1.6,0.5c-0.2-0.2-0.5-0.3-0.9-0.3
		c-0.4,0-0.9,0-1.3,0c-0.5,0-0.9-0.1-1.2-0.2c-0.4-0.1-0.5-0.4-0.5-0.8c0.1-0.6,0.5-0.9,1.2-1.1c0.7-0.1,1.3-0.1,1.8,0
		c0.3,0,0.8,0,1.3,0c0.5,0,1-0.1,1.4-0.2c0.7-0.1,1.4-0.1,2.1,0.1c0.7,0.2,1.3,0.2,1.6,0.1c0.7-0.2,1.2-0.5,1.5-1
		c0.3-0.5,0.6-0.9,1.1-1.3c0-0.4,0.1-0.7,0.3-1.1c0.2-0.3,0.4-0.6,0.5-0.9c0.2-0.3,0.3-0.6,0.3-1c0-0.4-0.1-0.8-0.3-1.2
		c0.4-0.7,0.5-1.5,0.4-2.3c-0.1-0.8-0.2-1.7-0.2-2.6c-0.6-0.1-0.9-0.5-0.9-1.2c0-0.6,0.3-1,1-1.2c0.1-0.5,0.1-1,0-1.5
		c-0.1-0.5-0.1-1,0-1.5c-0.3-0.1-0.5-0.3-0.7-0.6c-0.1-0.3-0.3-0.6-0.4-0.8c0.1-0.3,0.2-0.6,0.4-0.7c0.2-0.2,0.4-0.4,0.5-0.7
		c-0.1-0.4-0.4-0.5-0.7-0.4c-0.4,0.1-0.6,0.3-0.8,0.4c-0.1-0.1-0.3-0.3-0.4-0.4c-0.2-0.1-0.2-0.4-0.1-0.7c0.4-0.4,0.7-0.7,1.1-1.1
		c0.3-0.3,0.6-0.6,1-1c0.1-0.7,0.1-1.3,0.2-1.9c0.1-0.5,0-1.1-0.1-1.6c0.3-1,0.4-1.8,0.1-2.4c-0.1-0.2-0.3-0.3-0.6-0.4
		c-0.3-0.1-0.5-0.2-0.6-0.4c0.1-0.4,0.2-0.8,0.3-1.1c0.1-0.4,0.3-0.6,0.7-0.8c0.1-0.8,0.1-1.8,0.2-2.9c0.1-1.1-0.1-2.1-0.6-2.9
		c0.1-1,0.3-1.8,0.5-2.4c0.2-0.6,0.3-1.2,0.4-1.7c-0.1-0.2-0.2-0.3-0.4-0.4c-0.2-0.1-0.4-0.2-0.5-0.3c0-0.3,0.1-0.6,0.3-0.9
		c0.2-0.3,0.4-0.6,0.6-0.9c0.2-0.3,0.4-0.6,0.4-1c0.1-0.4-0.1-0.8-0.4-1.2c-0.1-1-0.1-1.7,0-2.1c0.2-0.4,0.4-0.7,0.7-1
		c-0.1-0.5-0.3-0.8-0.6-0.8s-0.4-0.2-0.4-0.7c0-0.3,0.2-0.6,0.5-0.8c0.4-0.2,0.6-0.5,0.8-0.8c0.1-0.2,0.2-0.5,0.1-0.8
		c-0.1-0.4-0.1-0.7-0.2-1c0.3-1,0.4-2,0.3-3c-0.1-1-0.3-2-0.5-3.1c-0.3,0.1-0.6,0.2-0.9,0.4c-0.3,0.2-0.5,0.4-0.8,0.5
		c-0.3,0.2-0.5,0.3-0.8,0.3c-0.3,0.1-0.5,0-0.9-0.2c0.1-0.6,0.3-1,0.8-1.3c0.5-0.3,0.9-0.5,1.4-0.8c0.5-0.3,0.8-0.6,1.1-1
		c0.3-0.4,0.2-1-0.1-1.7c-0.4,0.3-0.8,0.6-1.1,0.9c-0.4,0.3-0.9,0.3-1.6,0.2c0.1-0.8,0.5-1.3,1.1-1.6c0.6-0.3,1.1-0.6,1.6-0.9
		c-0.1-0.3-0.1-0.6-0.2-1c-0.1-0.3-0.1-0.6,0-1c-0.7-0.6-0.9-0.9-0.7-1.1c0.3-0.1,0.4-0.4,0.3-0.7c-1-0.8-2.1-1.3-3.2-1.5
		c-1.1-0.1-2-0.1-2.7,0.1c-0.6-0.2-1.4-0.3-2.3-0.2c-0.9,0.1-1.7-0.1-2.4-0.4c-0.6,0.3-1.1,0.4-1.5,0.1c-0.5-0.2-0.9-0.3-1.5-0.3
		c-0.1-0.3,0-0.5,0-0.7c0.1-0.1,0.2-0.3,0.2-0.5c1,0.1,2.1,0,3.1,0c1-0.1,2.1-0.1,3.3,0c0.9,0.1,1.8,0.3,2.6,0.4
		c0.8,0.1,1.6,0,2.4-0.3c1.8,0,3.6-0.1,5.5-0.3s3.6-0.2,5.3-0.1c0.4,0,0.8-0.1,1.2-0.2c0.4-0.1,0.8-0.2,1.2-0.2
		c0.3,0,0.6,0.1,0.9,0.2c0.3,0.1,0.5,0.2,0.9,0.3c0.6,0.1,1.2,0.1,1.7,0c0.6-0.1,1.2-0.1,1.7-0.1c1.1,0,2.1,0.1,3,0.4
		c0.9,0.3,1.7,0.2,2.6-0.2c0.3,0.1,0.7,0.2,1.2,0.3c0.5,0.1,0.8,0,1.2-0.2c0.5,0.3,1.1,0.3,1.7,0.2c0.6-0.1,1.2-0.2,1.8-0.2
		c0.6,0.3,1.6,0.5,2.8,0.5c1.2,0,2.1,0,2.9,0c1.1,0.3,2.2,0.5,3.4,0.6c1.2,0.2,2.4,0.3,3.7,0.4c0.1,0.1,0.3,0.3,0.4,0.4
		c0.1,0.1,0.3,0.3,0.4,0.4c1-0.3,1.8-0.2,2.6,0.3c0.7,0.5,1.6,0.6,2.6,0.5c0.6,0.4,1.1,0.9,1.5,1.5c0.5,0.6,1.1,1,1.8,1.2
		c0.3-0.1,0.4-0.2,0.5-0.2c0.1,0,0.3-0.1,0.6-0.1c0.5,0.1,0.9,0.3,1,0.6c0.2,0.3,0.3,0.6,0.4,0.8c-0.3,0.1-0.6,0.2-0.7,0.3
		c-0.2,0.1-0.4,0.3-0.6,0.4c0.6,0.6,1.1,1.1,1.4,1.3c0.3,0.2,0.4,0.6,0.3,1.3c0.5,0.3,0.9,0.5,1.5,0.5c0.3,0.4,0.3,0.6,0.1,0.7
		c-0.2,0.1-0.4,0.2-0.6,0.2c0.6,0.3,0.9,0.3,0.8,0c0-0.3,0.1-0.5,0.4-0.5c0.1-0.3,0.3-0.3,0.5,0c0.2,0.3,0.5,0.5,1.1,0.4
		c-0.1,0.3-0.1,0.7-0.2,1c-0.1,0.4-0.3,0.6-0.6,0.8c-0.3,0.3-0.6,0.4-0.7,0.4c-0.2,0-0.2,0.1,0,0.4c0.6,0.5,0.8,1.2,0.5,2.2
		c0.5,0.3,0.7,0.7,0.5,1.2c-0.2,0.5-0.2,1-0.1,1.4c0,0.1,0,0.3-0.1,0.6c-0.1,0.3-0.1,0.6-0.1,0.9c0,0.4,0,0.7,0,1.1
		c0,0.4-0.1,0.7-0.2,1c-0.1,0.1-0.2,0.3-0.3,0.6c-0.1,0.3-0.2,0.5-0.3,0.8c-0.1,0.3-0.1,0.6,0,0.8c0.1,0.3,0.3,0.5,0.6,0.6
		c-0.3,0.6-0.5,0.9-0.7,1c-0.2,0.1-0.3,0.3-0.3,0.6c-0.5-0.1-0.8,0-1,0.3c-0.2,0.3-0.5,0.5-1.1,0.4c-0.4,0.4-0.6,0.7-0.6,0.9
		c0,0.2-0.1,0.2-0.3,0c-1.2,0.9-2.2,1.6-3,2.1c-0.7,0.5-1.6,1-2.5,1.5c-0.7,0.1-1.5,0.2-2.4,0.1c-0.9,0-1.6,0.2-2.3,0.6
		c-1.1,0.6-1.9,1.1-2.4,1.5c0.3,0.1,0.7,0.2,1.3,0.3c0.5,0.1,1,0.2,1.5,0.3c0.5,0.1,1,0,1.4-0.2c0.4-0.2,0.8-0.3,1.3-0.1
		c0.4,0.6,0.8,0.8,1.2,0.5c0.4-0.2,0.8-0.3,1.4-0.1c0.1,0.3,0.1,0.5-0.1,0.6c-0.2,0.1-0.3,0.3-0.3,0.5c0.3,0.4,0.8,0.6,1.3,0.8
		c0.5,0.1,1.1,0.3,1.6,0.4c0.5,0.1,1.1,0.3,1.6,0.5c0.5,0.2,0.9,0.5,1.2,0.9c0.3-0.2,0.6-0.2,0.8,0c0.2,0.2,0.4,0.2,0.7,0
		c0.1,0.5,0.5,0.8,1,1c0.5,0.1,1,0.3,1.5,0.4c0,0.6,0.2,1.2,0.5,1.6c0.4,0.5,0.8,0.9,1.2,1.3c0.5,0.4,0.8,0.8,1.2,1.3
		c0.3,0.5,0.5,1,0.5,1.6c0.6,0.5,1.2,0.6,1.9,0.3L112.5,84.2z M65.1,106.3c-0.8-0.5-1.3-0.6-1.6-0.3c-0.3,0.3-0.7,0.4-1.1,0.3
		c-0.3,0.5-0.5,0.7-0.6,0.6c-0.1-0.1-0.2-0.1-0.3,0c-0.6,0.4-1,0.7-1.2,0.9c-0.2,0.2-0.5,0.4-0.7,0.6c-0.3,0.2-0.5,0.4-0.8,0.5
		c-0.3,0.1-0.6,0.1-1,0c-0.3,0.2-0.5,0.3-0.6,0.2c-0.2-0.1-0.3-0.2-0.4-0.3c0.3-0.6,0.6-1,0.9-1.3c0.3-0.3,0.6-0.4,1.2-0.3
		c0.6-0.5,1.2-0.9,1.9-1.1c0.7-0.2,1.3-0.6,2-1.1c-0.6,0-1.3,0.1-2.1,0.2c-0.7,0.2-1.3,0.5-1.8,1c-0.6,0.3-1.2,0.6-1.5,1
		c-0.4,0.4-1,0.6-1.7,0.7c-0.3,0.6-0.7,0.9-1,0.9c-0.4,0-0.6,0.1-0.7,0.3c-0.3,0.1-0.6,0.1-0.7-0.1c-0.2-0.2-0.2-0.6-0.2-1
		c0.5-0.3,0.9-0.5,1.1-0.7c0.2-0.1,0.5-0.2,0.9-0.3c0.6-0.3,0.9-0.5,0.8-0.6c-0.1-0.1-0.1-0.1,0-0.2c0.6-0.3,0.9-0.5,1-0.4
		c0.1,0.1,0.2,0.1,0.4,0.1c0-0.3,0.1-0.5,0.4-0.6c0.3-0.1,0.5-0.1,0.7,0c0-0.6,0.3-0.9,0.8-0.9c0.5,0,1-0.2,1.2-0.7
		c0.3,0.1,0.5,0.1,0.6,0c0.2-0.1,0.3-0.2,0.4-0.3c0.1-0.1,0.3-0.2,0.4-0.3c0.1-0.1,0.3-0.1,0.5,0c0.1-0.3,0.2-0.5,0.5-0.6
		s0.6,0,0.8,0.1c0.1-0.4,0.4-0.7,0.7-0.8c0.4-0.2,0.5-0.5,0.5-1c-1.1,0.3-2.1,0.6-3,1.2c-0.7,0.3-1.3,0.6-1.8,0.8
		c-0.5,0.2-1,0.4-1.5,0.5c-0.8,0.4-1.4,0.9-1.6,1.5c-0.7-0.1-1.3,0.2-1.7,0.7c-0.4,0.5-0.9,0.8-1.4,0.8c-0.5,0.7-1.1,1.3-1.9,1.7
		c-0.7,0.4-1.3,1.1-1.7,2c0.4,0.3,0.7,0.4,1.1,0.3c0.3,0,0.8,0,1.5,0c0.3-0.1,0.7-0.1,1.1-0.2c0.4-0.1,0.8-0.1,1.1-0.1
		c0.5,0.1,0.9,0.1,1.4,0.2c0.5,0.1,0.9,0.1,1.3,0.1c0.1-0.1,0.3-0.1,0.5-0.2c0.2-0.1,0.4-0.1,0.6-0.1c0.6,0.1,1.4,0.1,2.1,0
		c0.8-0.1,1.5-0.2,2.1-0.3c0.3-0.1,0.6,0,1,0c0.3,0.1,0.6,0,0.9-0.3c-0.4-0.3-0.7-0.5-1.1-0.4c-0.3,0-0.5,0.1-0.5,0.3
		c-0.6-0.5-0.8-0.7-0.8-0.9c0.1-0.1,0.1-0.3,0.1-0.6c0.8-0.2,1.1-0.3,1-0.4c-0.1-0.1-0.1-0.2,0-0.3c0.1,0.3,0.4,0.4,0.7,0.3
		c0.3,0,0.6-0.1,0.8-0.3L65.1,106.3z M64.9,69.1c-0.2,0.1-0.5,0.2-0.8,0.2c-0.4,0-0.6,0.1-0.7,0.2c-0.5,0.2-1,0.4-1.5,0.7
		c-0.5,0.3-0.8,0.5-1.2,0.8c-0.5,0.4-1,0.7-1.5,0.9c-0.5,0.2-0.9,0.5-1.4,0.7c-1.4,1.5-3,2.8-4.9,3.9c-0.6-0.1-0.9,0-1,0.2
		c-0.1,0.3,0,0.5,0.1,0.7c0.8-0.2,1.5-0.6,2-1.2c0.6-0.6,1.4-1,2.3-1.3c0.5-0.4,1-0.9,1.6-1.4c0.5-0.5,1.4-0.9,2.5-0.9
		c0.2-0.5,0.5-0.8,0.9-1.1c0.4-0.3,0.8-0.6,1.2-0.8c0.4-0.3,0.8-0.5,1.3-0.8C64.3,69.9,64.7,69.5,64.9,69.1z M65.1,78.6
		c-0.1-0.1-0.3,0-0.5,0.3c-0.2,0.3-0.5,0.3-0.9,0.2c-0.1,0.5-0.3,0.8-0.7,0.9c-0.4,0.2-0.7,0.1-1.1,0c-0.1,0.3-0.3,0.7-0.8,1
		c-0.5,0.4-0.9,0.4-1.4,0.2c-0.1,0.6-0.5,1-1.1,1.2c-0.6,0.2-1.1,0.4-1.6,0.5c0.1,0.3-0.1,0.6-0.6,0.7c-0.5,0.2-0.8,0.3-1,0.5
		c-0.2,0.3-0.4,0.5-0.6,0.7c-0.2,0.1-0.5,0.2-0.7,0.3c-0.2,0.1-0.5,0.1-0.7,0.1c-0.2,0-0.5-0.1-0.7-0.4c0.5-0.6,0.9-1.1,1.5-1.5
		c0.5-0.5,1.2-0.8,1.9-1.2c0.5-0.5,1.1-0.9,1.8-1.3c0.7-0.3,1.3-0.7,1.8-1.3c0.2-0.1,0.4-0.2,0.7-0.2c0.3,0,0.4-0.2,0.3-0.5
		c-0.8,0.1-1.6,0.5-2.3,1.1c-0.7,0.6-1.4,1.1-2.1,1.5c-0.4,0.2-0.9,0.2-1.5,0.1c-0.6-0.1-0.9-0.4-1.1-0.8c-0.1-0.5,0.1-1,0.6-1.3
		c0.5-0.4,1-0.6,1.3-0.6c0.3-0.4,0.6-0.7,0.9-0.9c0.4-0.2,0.7-0.5,0.9-0.8c0.4,0,0.7-0.1,1-0.3c0.3-0.2,0.5-0.4,0.7-0.6
		c0.2-0.2,0.4-0.4,0.7-0.5c0.3-0.1,0.6-0.2,1.2-0.1c1.5-0.9,2.8-1.9,3.8-3c-1.5,0.3-2.5,0.7-3.1,1.2c-0.5,0.5-1.3,0.8-2.3,0.9
		c-0.1,0.5-0.3,0.7-0.6,0.8c-0.4,0.1-0.7,0.2-0.9,0.3c-0.6,0.5-1.3,1-1.8,1.5c-0.6,0.5-1.1,1.1-1.6,1.5c-1,0.5-1.9,1.2-2.6,2.2
		c0.3,1.1,0.3,2,0.1,2.8c-0.2,0.8-0.2,1.7,0.1,2.9c0.7-0.2,1.3-0.3,1.7-0.3c0.5,0,0.8-0.1,1.2-0.3c0.6-0.6,1.1-1.1,1.7-1.5
		c0.5-0.4,1.2-0.6,1.9-0.6c0.4-0.2,0.8-0.3,1.1-0.2c0.4,0.1,0.5-0.1,0.3-0.4c-0.2-0.1-0.2-0.3,0-0.6c0.2-0.3,0.5-0.3,0.8-0.1
		c0.5-0.5,0.9-0.8,1.4-1c0.5-0.2,0.8-0.5,1.2-0.8c0.5-0.1,0.9-0.3,1.2-0.5c0.3-0.2,0.5-0.4,0.6-0.6c0.2-0.2,0.2-0.4,0.2-0.6
		S65.5,78.9,65.1,78.6z M55.6,99.7c-1.4,1-2.5,0.8-3.3-0.4c-0.1,0.6-0.1,1.1-0.1,1.5c0,0.4,0,0.9,0.1,1.3c0.5-0.2,1-0.5,1.4-1
		c0.4-0.5,0.9-0.5,1.4-0.3c-0.1-0.3,0-0.5,0.2-0.6C55.6,100.3,55.7,100.1,55.6,99.7z M52.9,95.2c-0.3-0.5-0.4-0.8-0.4-0.9
		c0-0.1-0.1-0.1-0.2-0.1c0.1,0.3,0.1,0.5,0,0.7c-0.1,0.2-0.1,0.4,0,0.6L52.9,95.2z M65.7,66c-0.4-0.1-0.7-0.1-0.9,0s-0.5,0.1-1,0
		c-0.3,0.5-0.5,0.8-0.6,0.8c-0.2,0-0.3,0-0.5-0.1c-1.9,1.2-3.6,2.3-5,3.3c-1.4,1-2.8,2-4.1,3.1c-0.3,0.5-0.5,0.7-0.9,0.7
		c-0.3,0-0.5,0.3-0.5,0.7c0.7-0.4,1.2-0.7,1.5-1c0.3,0,0.5-0.1,0.7-0.2c0.1-0.2,0.3-0.3,0.5-0.4c0.7-0.3,1.3-0.7,1.9-1.2
		c0.5-0.5,1.1-0.8,1.6-1.2c0.3-0.3,0.7-0.4,1.1-0.5c0.4-0.1,0.8-0.2,1.2-0.4c0.5-0.3,1-0.6,1.4-1c0.4-0.3,0.9-0.5,1.4-0.6
		c0.3-0.1,0.7-0.1,1.1-0.2c0.1-0.3,0.2-0.5,0.4-0.5c0.2,0,0.4-0.1,0.5-0.3L65.7,66z M65.4,86.1c-0.9-0.3-1.7-0.3-2.5-0.1
		c-0.8,0.2-1.3,0.6-1.6,1.2c-0.3-0.1-0.7,0-1.1,0.2c-0.4,0.2-0.8,0.3-1.2,0.1c-0.5,0.6-0.7,1-0.6,1.1c0,0.1,0,0.1-0.1,0.1
		c-0.3,0.1-0.6,0.2-0.8,0.3c-0.2,0.2-0.4,0.3-0.6,0.4c-0.2,0.1-0.4,0.3-0.6,0.4c-0.2,0.1-0.5,0.2-0.8,0.1c-0.3,0.3-0.6,0.5-1,0.6
		c-0.3,0.5-0.5,0.8-0.7,1c-0.2,0.2-0.5,0.2-0.9,0c0.1,0.3,0,0.6-0.2,0.8c-0.3,0.2-0.4,0.6-0.4,1.1c0.9-0.5,1.7-1,2.5-1.5
		s1.7-1,2.8-1.4c0.1-0.3,0.4-0.6,0.8-0.8c0.4-0.2,0.8-0.3,1.1-0.2c0.8-0.8,1.8-1.4,2.9-1.9C63.5,87.4,64.5,86.8,65.4,86.1z M64,92.3
		c-0.8,0.1-1.3,0.2-1.5,0.3c-0.3,0.1-0.5,0.2-0.7,0.4c-0.2,0.2-0.5,0.3-0.8,0.5c-0.3,0.2-0.6,0.2-0.9,0c-0.8,0.5-1.5,0.9-2.1,1.3
		c-0.5,0.4-1.2,0.8-2,1c-0.4,0.8-0.9,1.1-1.6,0.9c0.1,0.3,0,0.5-0.2,0.6c-0.2,0.2-0.4,0.3-0.7,0.4c-0.3,0.1-0.5,0.3-0.7,0.5
		c-0.2,0.2-0.4,0.4-0.4,0.7c0.5,0,0.9-0.2,1.2-0.7c0.4-0.5,0.8-0.7,1.3-0.5c0.1-0.3,0.5-0.6,1-0.9c0.5-0.3,0.9-0.2,1.3,0.1
		c-0.1-0.3,0-0.6,0.2-0.8c0.2-0.2,0.5-0.4,0.8-0.5c0.3-0.1,0.6-0.2,1-0.3c0.4-0.1,0.7-0.1,0.9-0.1c0.8-0.5,1.5-0.9,2-1.4
		c0.5-0.5,1.1-0.8,1.8-1L64,92.3z M66.1,62.1c-2.4,1.1-4.4,2.2-6,3.3c-1.6,1.1-3.4,2.1-5.2,2.9c-0.5,0.8-1.4,1.5-2.5,1.8
		c0.1,0.8,0.2,1.2,0.4,1.1c0.2-0.1,0.4-0.2,0.6-0.4c0.2-0.2,0.4-0.4,0.5-0.5c0.2-0.2,0.4-0.2,0.7-0.1c1-0.8,2.1-1.5,3.2-2.1
		c1.1-0.6,2.2-1.4,3.2-2.2c0.5,0.1,0.8,0,1-0.2c0.2-0.2,0.4-0.4,0.7-0.7c0.6-0.5,1.2-0.8,2-1.1C65.4,63.6,65.9,63,66.1,62.1z
		 M64.8,98.2c-1.5,0.6-2.7,0.9-3.8,1c0,0.6-0.3,0.9-0.9,0.9c-0.6,0-1,0.1-1.3,0.3c0.1,0.5-0.2,0.7-1.1,0.6c-0.1,0.5-0.5,0.9-1,1
		c-0.5,0.2-1.1,0.3-1.6,0.4c0.1,0.3,0,0.5-0.3,0.7c-0.3,0.2-0.5,0.4-0.9,0.6c-0.3,0.2-0.6,0.4-0.9,0.7c-0.3,0.3-0.4,0.5-0.4,0.9
		c0.5-0.2,1-0.5,1.3-0.8c0.4-0.3,0.8-0.5,1.3-0.7c0.3-0.5,0.7-0.8,1.2-1c0.5-0.1,1-0.3,1.5-0.5c0.8-0.3,1.6-0.8,2.4-1.4
		c0.8-0.6,1.5-1,2.3-1.3c0.2-0.4,0.5-0.6,1.1-0.7C64.3,99,64.6,98.7,64.8,98.2z M65.5,81.6c-1,0.3-1.8,0.5-2.3,0.6
		c-0.5,0.2-1,0.4-1.5,0.8c-0.5,0.6-0.7,0.9-0.6,1c0.1,0.1,0.1,0.2,0,0.4c-0.4,0.4-0.8,0.6-1.2,0.8c-0.4,0.1-0.8,0-1-0.3
		c0.1,0.5-0.1,0.6-0.5,0.5c-0.4-0.1-0.7-0.1-0.8,0.1c-0.1,0.5-0.2,0.7-0.5,0.6c-0.3-0.1-0.5,0-0.8,0.2c-0.5,0.6-1.1,1.1-1.9,1.4
		c-0.7,0.3-1.3,0.6-1.7,1.2c0.2,0.5,0.5,0.7,0.9,0.5c0.4-0.2,0.7-0.3,1.1-0.4c0.2-0.2,0.4-0.4,0.5-0.5c0.1-0.2,0.4-0.3,0.7-0.4
		c0.8-0.5,1.6-1,2.2-1.5c0.6-0.5,1.4-0.7,2.1-0.6c-0.1-0.3,0.1-0.5,0.4-0.5c0.4,0,0.7,0,0.9,0c0.1-0.5,0.3-0.7,0.7-0.8
		c0.4-0.1,0.6-0.4,0.6-0.9c0.3-0.4,0.5-0.6,0.7-0.6c0.1,0,0.2-0.1,0.3-0.2C65.1,82.5,65.7,82.1,65.5,81.6z M65,58
		c-0.6-0.3-1-0.2-1.4,0.3c-1.1,0.3-2,0.8-2.8,1.4c-0.8,0.6-1.7,1-2.7,1.4c-0.5,0.5-1.1,1-1.7,1.3c-0.6,0.4-1.2,0.8-1.7,1.4
		c-0.4,0.1-0.8,0.3-1.3,0.6c-0.5,0.3-0.6,0.6-0.3,1c0.3-0.3,0.6-0.6,0.9-0.7c0.4-0.2,0.7-0.3,1-0.5c0-0.5,0.2-0.6,0.6-0.6
		c0.4,0.1,0.8,0,1.2-0.2c0.3-0.3,0.6-0.6,0.9-1.1s0.7-0.6,1.3-0.3c0.5-0.6,0.7-0.8,0.7-0.7c0,0.1,0.1,0.2,0.2,0.1
		c0.4-0.4,0.7-0.5,1.1-0.4c0.6-0.6,0.9-1,1-1c0.5-0.1,1-0.4,1.4-0.8c0.4-0.4,0.9-0.5,1.6-0.5L65,58z M64.1,39.9
		c-0.5,0.1-1,0.3-1.5,0.5c-0.5,0.2-1,0.4-1.5,0.5c-0.3,0.1-0.6,0.2-0.9,0.5c-0.4,0.3-0.7,0.5-1,0.6c-0.5,0.1-0.9,0.4-1.3,0.7
		c-0.4,0.4-0.7,0.6-1.1,0.8c-0.6,0.5-1.3,0.9-2,1.1c-0.7,0.2-1.2,0.6-1.5,1.3c0.1,0.1,0.1,0.4,0.2,0.7c0.1,0.4,0.1,0.6,0,0.8
		c0.3,0.1,0.5,0,0.6-0.1c0.1-0.1,0.2-0.3,0.3-0.4c0.1-0.9,0.3-1.5,0.7-1.9c0.4-0.4,1-0.6,1.7-0.7c1-0.9,2.2-1.6,3.6-2.2
		C61.7,41.4,63,40.7,64.1,39.9z M54.6,42.9c-0.3,0.2-0.7,0.3-1,0.4c-0.4,0.1-0.5,0.3-0.3,0.6c0.3,0.1,0.5,0,0.7-0.3
		C54.2,43.3,54.4,43.1,54.6,42.9z M65.5,53c-1.6,0.3-3,0.9-4.2,1.6c-1.2,0.8-2.4,1.5-3.7,2.1c-0.4,0.5-0.9,0.8-1.5,1.1
		c-0.6,0.3-1,0.6-1.4,1.2c-0.3,0.2-0.6,0.4-0.9,0.5c-0.3,0.1-0.5,0.4-0.5,0.8c1.8-1,3.5-2,5.1-3.1c1.6-1.1,3.4-2,5.5-2.8
		c0.2-0.3,0.5-0.5,1-0.5C65.3,53.8,65.5,53.5,65.5,53z M65.5,46.9c-1.9,0.3-3.6,0.9-5,1.8c-1.4,0.9-2.7,1.9-4,3
		c-0.6,0.3-1.1,0.7-1.5,1c-0.5,0.4-0.8,0.8-1.2,1.3c0.3,0,0.6-0.1,0.7-0.3c0.2-0.2,0.4-0.4,0.6-0.5c1.4-0.5,2.4-1.1,3.1-1.6
		c0.7-0.6,1.6-1.1,2.5-1.5c0.5-0.3,0.9-0.5,1.3-0.7c0.3-0.2,0.7-0.4,1.1-0.7c0.5-0.3,1-0.6,1.5-0.7C65.1,47.7,65.4,47.4,65.5,46.9z
		 M62.7,50.9c-1.7,0.7-3.2,1.6-4.6,2.6c-1.4,1-2.8,2.1-4.3,3.1c0.5,0,1-0.2,1.4-0.6c0.4-0.4,0.9-0.7,1.6-0.7
		c0.7-0.7,1.5-1.4,2.2-2.1c0.8-0.7,1.7-1.1,2.8-1.3c-0.1-0.3,0.1-0.5,0.4-0.5C62.6,51.4,62.8,51.3,62.7,50.9z M65.6,42.4
		c-1.2,0.3-2.3,0.6-3.3,1.1c-1,0.5-2,1-2.9,1.6c-0.9,0.6-1.8,1.2-2.7,1.8c-0.9,0.6-1.8,1.2-2.8,1.7c2.1-0.8,3.9-1.8,5.6-2.8
		c1.7-1,3.4-2,5.2-2.9L65.6,42.4z M58.1,48.4c-0.7,0.4-1.5,0.8-2.3,1.3c-0.8,0.5-1.4,1-1.7,1.6c0.8-0.3,1.5-0.8,2.1-1.3
		C56.8,49.5,57.4,48.9,58.1,48.4z M57.6,41.1c-0.6,0.3-1.2,0.6-1.8,0.8c-0.5,0.2-0.9,0.5-1.1,1.1c0.5-0.2,1-0.4,1.6-0.7
		C56.8,41.9,57.3,41.5,57.6,41.1z M57.2,65c-0.4,0.3-0.9,0.5-1.4,0.8c-0.5,0.3-0.9,0.6-0.9,1c0.4-0.3,0.8-0.6,1.3-0.7
		C56.7,65.8,57,65.5,57.2,65z M56.9,39.1c-0.3-0.2-0.6-0.2-0.9,0c-0.4,0.2-0.5,0.4-0.3,0.6c0.1-0.3,0.3-0.4,0.6-0.4
		C56.6,39.4,56.8,39.3,56.9,39.1z M56.6,98.7c0.1,0.3,0,0.5-0.2,0.5c-0.2,0-0.4,0.2-0.5,0.5c0.5,0.1,0.8,0,1-0.3
		S56.9,98.9,56.6,98.7z M62.7,95.5c-0.5,0.6-1.1,0.9-1.7,1c-0.6,0.1-1.1,0.3-1.3,0.8c-0.8,0.5-1.5,0.8-2,1c-0.5,0.2-0.7,0.5-0.7,0.9
		c0.4,0.1,0.8,0,1.1-0.4c0.4-0.4,0.7-0.5,1.1-0.4c0.2-0.4,0.5-0.7,0.9-0.8c0.4-0.2,0.8-0.3,1.4-0.4c0.1-0.1,0.2-0.2,0.3-0.4
		c0.1-0.2,0.3-0.2,0.7-0.1c-0.1-0.3,0-0.4,0.1-0.5C62.8,96,62.8,95.8,62.7,95.5z M59.4,40c-0.3-0.1-0.7-0.1-1,0.2
		c-0.4,0.3-0.5,0.5-0.4,0.8c0.1-0.3,0.4-0.4,0.7-0.4C59.1,40.5,59.3,40.3,59.4,40z M65.1,55.3c-0.6,0.4-1.3,0.7-1.9,1
		c-0.6,0.3-1.2,0.6-1.7,1.1c-0.6,0-1.2,0.2-1.7,0.6c-0.5,0.4-0.7,0.7-0.6,1.1c0.8-0.1,1.4-0.4,1.7-0.9c0.4-0.5,1-0.6,1.8-0.6
		c0.1-0.3,0.2-0.6,0.5-0.7c0.3-0.2,0.6-0.3,0.9-0.4c0.3-0.1,0.6-0.3,0.8-0.4C65.1,55.8,65.2,55.5,65.1,55.3z M63.4,61.3
		c-0.6,0.1-1.1,0.4-1.7,0.7c-0.5,0.3-0.9,0.7-1.1,1.1c0.4-0.4,0.9-0.6,1.5-0.7C62.8,62.2,63.2,61.9,63.4,61.3z M65.7,75
		c-0.5-0.7-0.8-1-1.1-0.7c-0.3,0.2-0.5,0.5-0.7,0.8c-0.2,0.3-0.4,0.6-0.6,0.8c-0.2,0.3-0.5,0.4-0.9,0.4c-0.1,0.4-0.4,0.6-0.9,0.6
		c-0.5,0-0.8,0.3-0.8,0.7c1-0.3,1.8-0.7,2.6-1.2C64.1,76.1,64.9,75.6,65.7,75z M62.1,90.3c-0.1-0.1-0.3-0.1-0.4,0
		c-0.1,0.1-0.4,0.1-0.7,0c0.1,0.3,0.4,0.4,0.7,0.4C62.1,90.7,62.2,90.6,62.1,90.3z M63.4,39.1c-0.5-0.1-0.9-0.1-1.4,0
		c-0.5,0.1-0.7,0.4-0.9,0.8c0.5-0.1,0.9-0.1,1.3-0.2C62.9,39.6,63.2,39.4,63.4,39.1z M62.4,78c-0.2,0.1-0.4,0.1-0.6,0.1
		c-0.2,0-0.3,0.2-0.4,0.5c0.2-0.1,0.4-0.2,0.7-0.3C62.4,78.2,62.5,78.1,62.4,78z M64.6,103.8c-0.5-0.1-0.8-0.1-1-0.1
		c-0.2,0-0.5,0-0.7,0.1c0.5,0.6,0.8,0.7,1,0.5C63.9,104,64.2,103.9,64.6,103.8z M66,59.8c-0.5,0-0.9,0.1-1.2,0.3
		c-0.3,0.2-0.7,0.4-1.1,0.4c0.1,0.3,0.1,0.5,0,0.6c-0.1,0.1-0.1,0.3,0.1,0.5c0.4-0.3,0.9-0.5,1.5-0.6C65.8,61,66.1,60.6,66,59.8z
		 M64.8,65.3c0-0.3-0.2-0.4-0.5-0.3c-0.4,0.1-0.5,0.2-0.5,0.3c0.1,0.1,0.3,0.1,0.5,0.1C64.4,65.4,64.6,65.3,64.8,65.3z M65.2,50.9
		c-0.2,0.1-0.4,0.2-0.6,0.3c-0.2,0.1-0.3,0.3-0.1,0.6c0.3,0.1,0.6,0,0.9-0.2C65.6,51.4,65.6,51.2,65.2,50.9z M65.8,57.3
		c-0.1-0.1-0.3-0.2-0.5-0.3c-0.2-0.1-0.4-0.1-0.6,0c0.3,0.3,0.6,0.5,0.8,0.5C65.7,57.6,65.8,57.5,65.8,57.3z M67.9,109.4
		c-0.1-0.1-0.2-0.3-0.5-0.6c-0.3-0.3-0.5-0.6-0.9-0.9c-0.3-0.3-0.6-0.5-0.9-0.6c-0.3-0.1-0.5-0.1-0.6,0.2c0,0.5,0.2,0.8,0.5,0.8
		c0.4,0,0.5,0.2,0.5,0.5c-0.5,0.3-0.8,0.4-1,0.4c-0.2,0-0.3,0.1-0.2,0.2c0.3,0.1,0.9,0.2,1.6,0.3C67.2,109.8,67.7,109.7,67.9,109.4z
		 M65.9,64.3c-0.1,0.2-0.3,0.3-0.6,0.3c-0.3,0-0.4,0.2-0.2,0.4c0.3-0.2,0.5-0.3,0.8-0.4C66.2,64.6,66.2,64.5,65.9,64.3z M68.1,39.1
		c-0.2,0.1-0.5,0-0.9,0c-0.4-0.1-0.7-0.1-1.1,0c0.1,0.2,0.4,0.3,0.7,0.2c0.3,0,0.5,0.1,0.6,0.3L68.1,39.1z M96.6,91.5
		c-0.1-0.1-0.3-0.2-0.5-0.3c-0.2-0.1-0.4-0.3-0.4-0.5c0.1-0.4,0.3-0.7,0.6-1c0.3-0.3,0.4-0.7,0.3-1.4c-0.5,0.1-0.8,0-1.1-0.1
		c-0.3-0.1-0.5-0.5-0.5-1c0.6-0.2,1.1-0.5,1.5-1.1c-0.3-0.5-0.5-1-0.6-1.4c-0.1-0.4-0.4-0.9-0.7-1.4c-0.4-1.7-1.2-3.2-2.3-4.6
		c-1.2-1.4-2.2-2.7-3-4.1c-0.5-0.1-0.9-0.3-1.3-0.6c-0.3-0.3-0.6-0.5-1-0.9c-1.6-0.3-3.3-0.4-5-0.3c-1.7,0.1-3.2,0.2-4.5,0.3
		c-1.2,0.3-2.7,0.5-4.3,0.6c-1.6,0.1-3,0.3-4.1,0.5c-0.4-0.2-0.8-0.3-1.3-0.4c-0.5-0.1-0.8-0.3-1.2-0.5c-0.3,0.3-0.4,0.6-0.3,0.8
		c0,0.2,0.1,0.4,0.2,0.4c0.2-0.1,0.5-0.2,0.9-0.1c0.4,0,0.7,0,1.1,0c-0.1,1-0.4,1.4-1,1.4c0,0.4-0.2,0.6-0.5,0.7
		c-0.4,0.1-0.6,0.2-0.7,0.5c0,0.8,0.1,1.4,0.4,1.6c0.5-0.1,0.8-0.2,0.9-0.2c0.2,0,0.3,0.1,0.3,0.3c-0.3,0.2-0.7,0.2-1.1,0.1
		c-0.4,1-0.6,2-0.6,2.9c0,0.9,0,1.8,0,2.7c0.3-0.2,0.6-0.3,1-0.2c0.4,0.1,0.7,0.3,1,0.6c-0.2,0.8-0.5,1.3-0.9,1.5
		c-0.4,0.2-0.7,0.6-1,1c0.1,0.3,0.3,0.5,0.6,0.5c0.3,0,0.4,0.2,0.4,0.6c-0.2,0.2-0.4,0.4-0.7,0.7c-0.3,0.3-0.5,0.5-0.6,0.8
		c-0.1,0.3-0.2,0.6-0.1,0.9c0.1,0.3,0.3,0.6,0.6,1c-0.1,0.3-0.3,0.5-0.4,0.6c-0.1,0.2-0.2,0.4-0.3,0.6c0.3,0.3,0.4,0.6,0.5,0.9
		c0.1,0.3,0.2,0.5,0.3,0.8c-0.4,0.8-0.6,1.1-0.8,1c-0.1-0.1-0.2-0.1-0.2,0.1c0.1,0.3,0.3,0.5,0.8,0.4c0.5,0,0.9,0,1.4,0
		c0.4,0.3,0.6,0.5,0.6,0.8c0,0.3,0,0.5-0.2,0.7c-0.2,0.2-0.5,0.4-0.8,0.6c-0.3,0.2-0.6,0.3-0.9,0.4c0.1,0.4,0,0.6-0.1,0.8
		c-0.2,0.1-0.2,0.4,0,0.7c0.4,0.1,0.6,0,0.7-0.3c0.1-0.3,0.2-0.4,0.5-0.5c-0.3,0.8-0.3,1.2-0.2,1.4c0.1,0.2,0.1,0.3,0,0.4
		c-0.8-0.1-1.3,0.1-1.3,0.4c0.1,0.3,0.2,0.5,0.5,0.5c0.3,0,0.5,0.1,0.6,0.3c0.1,0.5,0,0.9-0.2,1c-0.3,0.2-0.5,0.4-0.6,0.8
		c0.1,0.9,0.3,1.6,0.8,2.2c0.5,0.5,1,1,1.6,1.2c0.6,0.3,1.3,0.4,2,0.4c0.7,0,1.4,0,2,0c-0.1,0.3-0.3,0.5-0.4,0.6
		c-0.2,0.1-0.3,0.3-0.3,0.6c0.6,0.3,1.3,0.4,1.8,0.4s1.1,0,1.6-0.1c0.5-0.1,1.1-0.1,1.6-0.1s1.3,0.1,2,0.4c1.5-0.5,2.9-0.8,4.2-1
		c1.3-0.2,2.5-0.5,3.7-1c1.2-0.4,2.2-1,3.1-1.6c0.9-0.7,1.7-1.5,2.3-2.5c0.5-0.6,0.8-0.9,1.1-1c0.3-0.1,0.3-0.3,0.2-0.7
		c-0.5,0.1-0.9,0.2-1.2,0.3c-0.4,0.1-0.7,0.3-1.1,0.4c-0.3-0.1-0.4-0.4-0.2-0.9c0.2-0.5,0.5-0.6,1-0.4c0.1-0.5,0.4-0.9,0.8-1.1
		c0.4-0.2,0.8-0.4,1.4-0.5c0.3-0.3,0.6-0.7,0.8-1.2c0.2-0.5,0.1-0.9-0.2-1.5c0.3-0.3,0.5-0.6,0.8-1c0.3-0.3,0.4-0.8,0.3-1.5
		c-0.1-0.1-0.3-0.2-0.6-0.2c-0.3,0-0.4-0.2-0.4-0.5c0-0.3,0.1-0.5,0.3-0.6c0.2-0.2,0.4-0.3,0.6-0.5c0.2-0.2,0.3-0.4,0.4-0.6
		C96.8,92.3,96.7,92,96.6,91.5z M94.5,59.5c-0.3-0.3-0.5-0.6-0.6-1.1c-0.1-0.5,0.1-0.9,0.6-1.2c-0.1-0.3-0.3-0.5-0.5-0.7
		c-0.2-0.1-0.3-0.4-0.3-0.7c0.3-0.3,0.5-0.6,0.6-1.1c0.1-0.5,0-0.9-0.3-1.3c-0.1,0.2-0.3,0.2-0.6,0.1c-0.3-0.1-0.5-0.2-0.8-0.1
		c-0.4-0.4-0.6-0.6-0.8-0.6c-0.1,0-0.2-0.2-0.1-0.4c0.1-0.1,0.3-0.2,0.5-0.3c0.2-0.1,0.4-0.2,0.5-0.3c0.3-0.2,0.5-0.4,0.6-0.6
		c0.2-0.2,0.3-0.4,0.5-0.5c-0.3-0.2-0.7-0.3-1-0.2c-0.4,0.1-0.6-0.1-0.7-0.4c0.3-0.6,0.6-1,0.9-1.3c0.4-0.3,0.4-0.6,0-1.2
		c-0.8-0.2-1.2-0.5-1.3-0.9c-0.1-0.4-0.1-0.8-0.1-1.1c-0.4-0.4-0.8-0.8-1.2-1.1c-0.4-0.4-0.8-0.8-1.1-1.2c-0.6,0.1-1.1,0.1-1.6,0
		c-0.5-0.1-0.8-0.5-0.9-1.1c-0.4,0-0.7-0.1-0.9-0.2c-0.2-0.2-0.6-0.2-1-0.2c-0.1-0.8-0.4-1.3-1.1-1.3c-0.6,0-1.3,0-1.9,0
		c-0.6,0-1.2,0-1.6-0.1c-0.5-0.1-0.8-0.3-0.8-0.7c-1.5,0-2.7,0-3.6,0c-0.9,0-2.1,0-3.5-0.1c-0.8,0.3-1.4,0.4-1.9,0.3
		c-0.5-0.1-1.1,0-1.7,0.1c0.1,0.3,0.2,0.5,0.1,0.6c-0.1,0.1-0.2,0.3-0.3,0.4c-0.1,0.1-0.3,0.3-0.4,0.4c-0.2,0.1-0.3,0.3-0.3,0.5
		c0.9,0,1.5,0.2,1.9,0.5c-0.1,0.5-0.3,0.8-0.6,1c-0.3,0.2-0.6,0.4-1,0.6c-0.4,0.2-0.7,0.4-0.9,0.7c-0.3,0.3-0.4,0.6-0.5,1.1
		c0.1,0.1,0.3,0.2,0.5,0.2c0.2,0,0.4,0.1,0.5,0.2c-0.1,0.5-0.3,0.8-0.6,1.1c-0.3,0.3-0.5,0.6-0.7,1c-0.1,0.5-0.1,1,0,1.5
		c0.1,0.5,0.2,1,0.2,1.5c0.8,0.1,1.4,0.4,1.6,0.8c-0.1,0.3-0.3,0.6-0.5,0.9c-0.2,0.3-0.4,0.5-0.5,0.9c0.3,0.5,0.4,0.9,0.4,1.3
		c0,0.3-0.1,0.4-0.4,0.3c-0.1,0.6-0.2,1-0.1,1.3c0,0.3,0.2,0.6,0.4,1c0.1,0.8,0.2,1.2,0.4,1.2c0.2,0,0.4,0.1,0.6,0.4
		c-0.3,0.1-0.4,0.3-0.5,0.5c-0.1,0.2-0.2,0.4-0.3,0.5c0.1,0.2,0.3,0.3,0.6,0.3c0.3,0,0.5,0.1,0.6,0.3c-0.1,0.6-0.4,1.2-0.8,1.6
		c-0.4,0.5-0.8,0.8-1.4,1.2c0.2,0.2,0.3,0.4,0.2,0.5c-0.1,0.1-0.2,0.3-0.3,0.6c0.2,0.1,0.3,0.3,0.4,0.5c0.1,0.2,0.3,0.4,0.5,0.5
		c-0.1,0.3-0.3,0.6-0.5,0.7c-0.2,0.2-0.3,0.5-0.3,0.9c0.4,0.9,0.5,1.6,0.3,2c-0.2,0.4-0.4,0.9-0.7,1.4c0.3,0.4,0.4,0.6,0.5,0.8
		c0.1,0.1,0.2,0.2,0.4,0.3c1.7-0.5,3.4-0.6,4.9-0.5c1.5,0.1,3.1,0,4.6-0.3c1,0.5,2,0.6,3.1,0.4c1-0.2,2.1-0.2,3.4-0.1
		c0.2-0.3,0.5-0.4,0.9-0.4s0.8,0,1.3-0.1c0.7-0.3,1.4-0.6,2-1c0.6-0.3,1.4-0.5,2.3-0.7c0.3-0.7,0.8-1.4,1.5-2c0.6-0.6,1-1.4,1.2-2.3
		c-0.3,0-0.6-0.2-1-0.7c0.1-0.6,0.3-1,0.6-1.4c0.3-0.3,0.7-0.6,1-0.9c0.4-0.3,0.7-0.6,0.9-1C94.4,60.6,94.5,60.1,94.5,59.5z
		 M93.2,107.5c-0.9,0.3-1.6,0.7-2.2,1.2c-0.6,0.5-1.4,0.7-2.3,0.9c-0.1,0.5,0.1,0.7,0.5,0.6c0.4,0,0.8,0,1.1,0
		c0.3-0.5,0.6-0.8,1.2-1c0.5-0.2,1-0.4,1.5-0.5c0-0.3,0-0.5,0-0.7C93.1,107.8,93.2,107.7,93.2,107.5z M95.9,67.4
		c-0.3,0.1-0.5,0-0.6-0.1C95.2,67.1,95,67,94.8,67c-0.3,0-0.5,0-0.8,0.1c-0.3,0.1-0.5,0.2-0.8,0.3c-0.2,0.4-0.4,0.7-0.7,0.8
		C92.2,68.4,92,68.7,92,69c0.6,0.2,1.3,0.2,1.9,0c0.6-0.2,1.3-0.4,2-0.4c0.1-0.3,0.2-0.5,0.1-0.6C95.9,67.8,95.9,67.6,95.9,67.4z
		 M94.3,75c-0.4-0.1-0.8,0-1.3,0.2c-0.5,0.2-0.8,0.5-1.1,0.8c0.5,0,1-0.1,1.3-0.3C93.6,75.5,94,75.3,94.3,75z M95.7,75.6
		c-1.1,0.1-1.9,0.5-2.5,1.2c0.5-0.2,1-0.4,1.4-0.5C95.1,76.2,95.4,76,95.7,75.6z M99.7,45.2C99.5,45.1,99.2,45,99,45
		c-0.2,0-0.5,0-0.8,0.1c-0.8,0.5-1.3,0.7-1.6,0.7c-0.3,0-0.5,0.3-0.6,0.8c-0.5,0.3-0.9,0.5-1.3,0.6c-0.3,0.1-0.5,0.4-0.7,0.7
		c1-0.1,1.7-0.2,2.1-0.5c0.4-0.3,1-0.5,1.6-0.6c0-0.4,0.2-0.6,0.6-0.6c0.4,0,0.8-0.1,1.1-0.3L99.7,45.2z M98.8,77
		c-1,0.1-1.8,0.4-2.4,0.8c-0.6,0.4-1.3,0.8-2,1.1c0.6,0.5,0.9,0.6,1.1,0.4c0.1-0.2,0.3-0.4,0.4-0.5c0.5-0.4,1.1-0.7,1.6-0.9
		C98.1,77.8,98.5,77.4,98.8,77z M110.6,92.8c-0.1,0.1-0.3,0.1-0.6,0c-0.3-0.1-0.4,0-0.5,0.1c-0.3,0.5-0.5,0.7-0.6,0.6
		c-0.2,0-0.3,0-0.3,0.1c-0.5,0.5-0.6,0.7-0.4,0.7c0.2,0,0.3,0.1,0.4,0.3c-0.3-0.1-0.6,0-0.9,0c-0.3,0.1-0.5,0.2-0.7,0.3
		c-0.2,0.1-0.4,0.2-0.6,0.2c-0.2,0-0.5,0-0.7-0.1c-0.3,0.3-0.5,0.5-0.7,0.8c-0.2,0.3-0.5,0.4-1.1,0.4c0.1,0.2,0,0.3-0.4,0.4
		s-0.7,0.1-1,0c-0.1,0.5-0.5,0.9-1.3,1.2c-0.7,0.3-1.2,0.5-1.5,0.6c0,0.2-0.1,0.3-0.3,0.4c-0.2,0.1-0.4,0.2-0.7,0.3
		c-0.3,0.1-0.5,0.2-0.7,0.3c-0.2,0.1-0.3,0.3-0.2,0.4c-0.3,0.4-0.5,0.6-0.9,0.7c-0.3,0.1-0.5,0.4-0.4,0.8c0.8-0.2,1.6-0.5,2.3-0.9
		c0.7-0.4,1.3-0.8,1.9-1.3c0.6-0.4,1.3-0.8,1.9-1.2c0.7-0.4,1.4-0.6,2.2-0.7c0.6-0.3,1.2-0.6,1.6-1.2c0.5-0.5,1-0.7,1.7-0.6
		c-0.8,0.8-1.6,1.3-2.4,1.5c0.5,0.2,0.9,0.2,1.2,0c0.3-0.2,0.5-0.1,0.9,0c-0.6,0.1-1.1,0.3-1.4,0.6c-0.4,0.3-0.9,0.5-1.5,0.5
		c-0.6-0.3-1-0.4-1.2-0.3c-0.2,0.1-0.5,0.2-0.9,0.1c-0.3,0.5-0.5,0.7-0.7,0.9c-0.1,0.1-0.3,0.2-0.6,0.1c-0.2,0.4-0.5,0.7-0.8,0.9
		c-0.4,0.2-0.6,0.5-0.8,0.8c-0.6,0-1.1,0-1.2,0.1c-0.2,0.1-0.3,0.2-0.5,0.2c0,0.6,0,1,0,1.2c0,0.1-0.1,0.2-0.3,0.2
		c-0.6-0.3-0.9-0.3-0.9-0.2c0,0.1-0.1,0.1-0.3,0.1c0,0.6-0.1,1-0.2,1.1c-0.2,0.1-0.3,0.2-0.4,0.3c-0.4,0.5-0.7,0.8-1,1
		c-0.3,0.2-0.4,0.4-0.3,0.6c0.5-0.1,0.8-0.3,1.1-0.6c0.3-0.3,0.6-0.4,1.2-0.2c2.2-1.4,4.3-2.6,6.2-3.8c0.5-0.1,1-0.3,1.5-0.6
		c0.5-0.3,1-0.4,1.7-0.4c0.5-0.6,1-1,1.6-1.3c0.6-0.3,1.1-0.8,1.5-1.5c0-0.1,0.2-0.3,0.6-0.6c0.4-0.3,0.5-0.7,0.2-1.5
		c-0.5-0.1-0.7-0.1-0.8,0.1s-0.3,0.4-0.5,0.5c0.5-0.8,0.6-1.3,0.5-1.4c-0.1-0.1-0.2-0.2-0.2-0.4c0.4,0,0.7-0.1,1.1-0.3
		C110.6,93.4,110.7,93.1,110.6,92.8z M103.8,50.7c-0.1-0.5-0.3-0.7-0.6-0.8c-0.3-0.1-0.6-0.1-0.9,0c-0.4,0-0.7,0.1-1,0.2
		c-0.3,0.1-0.6,0-0.9-0.1c-0.3,0.2-0.5,0.3-0.7,0.2c-0.2,0-0.4,0.1-0.6,0.4c0,0.3-0.2,0.5-0.5,0.7c-0.3,0.1-0.5,0.2-0.7,0.1
		c0-0.3,0.1-0.5,0.4-0.6c0.3-0.2,0.2-0.4-0.2-0.6c0.2-0.5,0.4-0.7,0.5-0.8c0.2-0.1,0.1-0.2,0-0.4c0.2,0,0.3-0.2,0.4-0.6
		c0.1-0.4,0-0.6-0.1-0.7c-0.3,0.1-0.5,0.3-0.8,0.4c-0.3,0.1-0.5,0.4-0.6,0.7c-0.1-0.1-0.3-0.1-0.5-0.1c-0.2,0-0.4,0-0.5,0.1
		c-0.3,0.5-0.5,0.8-0.8,0.9c-0.3,0.2-0.5,0.4-0.7,0.6c0.6-0.3,1.2-0.4,1.5-0.3c-0.1-0.3,0.1-0.5,0.4-0.6c0.3-0.1,0.5-0.1,0.7-0.1
		c-0.6,0.5-0.9,0.8-1.1,1c-0.1,0.2-0.4,0.4-0.7,0.5c0.3,0,0.5,0,0.6,0c0.2,0,0.4,0,0.7,0.1c0.5,0.3,0.5,0.6,0.1,0.7
		c-0.4,0.2-0.8,0.3-1.3,0.5c0.1,0.4,0.1,0.6-0.1,0.7c-0.2,0.1-0.4,0.2-0.6,0.3c0.1,0.2,0.1,0.4,0.2,0.5c0.1,0.2,0.1,0.4,0,0.6
		c0.5,0.1,0.7,0.1,0.9-0.1c0.1-0.2,0.4-0.3,0.8-0.3c1.1-0.5,2-0.9,2.7-1.4c0.7-0.5,1.5-0.7,2.4-0.6l1.4-0.6L103.8,50.7z M101.4,78.5
		c-0.3-0.2-0.5-0.2-0.8-0.1c-0.3,0.1-0.5,0.2-0.8,0.4c-0.3,0.2-0.5,0.4-0.9,0.5c-0.3,0.2-0.6,0.2-1,0.2c0,0.3-0.2,0.5-0.5,0.6
		c-0.3,0.1-0.6,0.1-1,0c0,0.3-0.2,0.5-0.5,0.5c-0.3,0-0.5,0.3-0.4,0.7c1-0.3,2-0.7,2.8-1.3c0.8-0.5,1.7-1,2.7-1.4L101.4,78.5z
		 M102.4,56.6c-0.5-0.3-1-0.3-1.4,0c-0.4,0.2-0.8,0.3-1.2,0.1c-0.7,0.3-1,0.5-0.9,0.5c0.1,0,0.2,0.1,0.2,0.3
		c-0.2,0.1-0.4,0.3-0.5,0.4c-0.2,0.1-0.4,0.1-0.7,0c-0.7,0.7-1.5,1.2-2.3,1.5l0.8,0.9c0.4,0.1,0.7,0,1-0.2c0.3-0.2,0.5-0.3,0.9-0.1
		c0.1-0.5,0.3-0.9,0.5-1.1c0.2-0.2,0.6-0.3,1.1-0.2c0-0.3,0.1-0.4,0.3-0.4c0.2,0,0.4-0.1,0.5-0.4c0.1-0.1,0.2-0.1,0.3-0.2
		c0.2-0.1,0.3-0.2,0.5-0.2c0.2-0.1,0.4-0.1,0.6-0.2C102.3,57.1,102.4,56.9,102.4,56.6z M102.5,63.8c-0.6,0-1,0.1-1.2,0.4
		c-0.2,0.3-0.7,0.3-1.4,0.2c-0.3,0.5-0.7,0.9-1.1,1.3s-1,0.5-1.8,0.4c0.1,0.3,0,0.4,0,0.5c-0.1,0.1-0.2,0.1-0.4,0.1
		c-0.2,0-0.3,0.1-0.4,0.1C96.1,66.9,96,67,96,67.3c1.1-0.6,2.2-1.1,3.4-1.5C100.6,65.3,101.6,64.7,102.5,63.8z M102.9,79.8
		c-0.3-0.1-0.6,0-0.8,0.1c-0.2,0.1-0.4,0.3-0.6,0.4c-0.2,0.1-0.4,0.2-0.6,0.3c-0.2,0.1-0.4,0-0.6-0.1c-0.3,0.3-0.6,0.5-1,0.6
		c-0.4,0.2-0.8,0.3-1.2,0.5c-0.4,0.2-0.8,0.4-1.1,0.6c-0.4,0.2-0.6,0.5-0.8,0.9c1.1,0,1.9-0.2,2.3-0.7c0.5-0.5,1.1-0.8,2-0.8
		c0.2-0.5,0.6-0.8,1.1-1C102.2,80.5,102.7,80.2,102.9,79.8z M101.7,105.7c-0.8,0.1-1.6,0.4-2.4,0.8c-0.7,0.4-1.5,0.7-2.4,0.9
		c0.8,0.6,1.7,0.6,2.6,0C100.4,106.9,101.1,106.3,101.7,105.7z M110.1,86.4c-1.3,0.4-2.5,1-3.5,1.9c0,0.5-0.1,0.8-0.4,1
		c-0.3,0.2-0.7,0.2-1.2-0.1c-0.6-0.1-1.2,0.1-1.7,0.6c0-0.4,0.2-0.6,0.6-0.8c0.4-0.1,0.7-0.1,1,0.1c0.5-0.9,1.3-1.5,2.3-1.8
		c1-0.3,1.9-0.8,2.6-1.5c-0.5-0.5-0.7-0.6-0.8-0.6c-0.1,0.1-0.2,0-0.3-0.2l0.8-1c-0.4-0.1-0.7-0.1-1,0c-0.3,0.1-0.5,0.3-0.8,0.4
		c-0.2,0.2-0.5,0.3-0.7,0.4c-0.2,0.1-0.5,0.1-0.8-0.1c-0.1,0.2-0.2,0.4-0.3,0.6c-0.2,0.2-0.4,0.2-0.7,0.1c-0.1,0.3-0.3,0.5-0.6,0.5
		c-0.3,0-0.6,0-1,0.1c-0.1,0.6-0.5,0.9-1,1c-0.5,0.1-0.9,0.4-1.3,0.9c-0.3,0.1-0.6,0.3-0.9,0.6c-0.4,0.3-0.6,0.5-0.7,0.5
		c0.3,0,0.5,0,0.8-0.1c0.3-0.1,0.5-0.2,0.7-0.3c-0.6,0.5-1.1,0.9-1.5,1.3c-0.5,0.4-1,0.7-1.5,1.1c0.1,0.5,0.3,0.9,0.4,1.1
		c0.8-0.4,1.6-0.8,2.3-1.3c0.7-0.5,1.5-0.9,2.4-1.1c0.1,0.2,0.3,0.4,0.4,0.5c0.1,0.1,0.2,0.4,0.3,0.7c-0.2-0.1-0.4-0.1-0.6-0.1
		c-0.2,0-0.4,0.1-0.4,0.3c-0.7,0-1.1,0-1.1-0.1c0-0.1-0.1-0.1-0.2,0c-0.5,0.8-0.7,1.1-0.5,1.1c0.2,0,0.2,0,0.1,0.2
		c-0.3,0.1-0.5,0.2-0.7,0.3c-0.1,0.1-0.4,0.1-0.8,0c0,0.3-0.1,0.6-0.3,0.7c-0.2,0.2-0.5,0.3-0.7,0.5c-0.2,0.2-0.4,0.4-0.6,0.7
		c-0.2,0.3-0.2,0.6,0,1c0.4,0.1,0.7,0,0.9-0.2s0.5-0.5,0.8-0.5c0.4,0.1,0.6,0.2,0.7,0.3c0.1,0.1,0.3,0.1,0.6,0
		c-0.3-0.5-0.4-0.8-0.1-0.9c0.3-0.1,0.5-0.2,0.9-0.3c0.3,0.1,0.5-0.1,0.6-0.4c0.1-0.3,0.5-0.5,1-0.5c0.2-0.3,0.5-0.6,0.8-1
		c0.4-0.4,0.7-0.4,1.1-0.1c0.5-0.2,0.7-0.3,0.7-0.4c0-0.1,0.1-0.1,0.3-0.1c0.1-0.3,0.3-0.6,0.6-0.9c0.4-0.3,0.8-0.4,1.2-0.2
		c0.2-0.3,0.5-0.5,0.9-0.4c0.4,0,0.7-0.1,0.9-0.4c0.1,0.6-0.1,0.9-0.4,0.9c-0.3,0-0.6-0.1-0.8-0.2c-0.4,0.3-0.7,0.4-0.8,0.4
		c-0.2,0-0.2,0-0.2-0.1c-0.1,0.3-0.2,0.5-0.5,0.6c-0.3,0.1-0.4,0.3-0.3,0.7c0.5,0.1,0.9,0,1.1-0.2c0.2-0.3,0.5-0.4,1.1-0.3
		c-0.6,0.5-1,0.8-1.2,1.1c-0.2,0.3-0.5,0.4-1,0.5c-0.6,0-1,0.1-1.4,0.4c-0.3,0.3-0.6,0.5-1,0.6c-0.7,0.5-1.5,0.8-2.4,1.1
		s-1.6,0.7-2.1,1.3c-0.5,0.5-1.1,0.9-1.6,1.2c-0.6,0.3-1,0.7-1.2,1.5c1.4-0.5,2.6-1.1,3.7-1.7c1.1-0.6,2.2-1.3,3.3-2
		c0.6-0.3,1.1-0.5,1.5-0.6c0.4-0.1,0.8-0.2,1.2-0.3c0.3-0.3,0.8-0.5,1.3-0.8c0.5-0.3,1.1-0.6,1.6-0.8c0.3-0.6,0.5-1.3,0.7-1.8
		c0.1-0.6-0.1-1.1-0.6-1.5c0.4,0,0.6-0.2,0.6-0.5c0-0.4-0.1-0.6-0.3-0.7c0.2-0.2,0.3-0.4,0.2-0.6C110.2,86.8,110.1,86.6,110.1,86.4z
		 M106.1,81.8c-0.4-0.5-0.7-0.7-1-0.6c-0.3,0-0.5,0.1-0.7,0.2c-0.2,0.1-0.5,0.2-0.7,0.3c-0.2,0.1-0.5,0.2-0.7,0.1
		c-0.1,0.5-0.5,0.7-1.1,0.7c-1,0.6-1.9,1.1-2.6,1.6c-0.7,0.5-1.4,1-2.1,1.5c0.7,0.1,1.4,0,2.1-0.5c0.7-0.5,1.3-0.9,2-1.2
		c0.3,0.1,0.6,0,1-0.4c0.3-0.4,0.7-0.5,1.1-0.4c0.3-0.3,0.8-0.6,1.3-0.9C105.2,82,105.7,81.8,106.1,81.8z M98.3,105.2
		c-0.3,0.1-0.4,0-0.5,0c-0.1-0.1-0.3-0.1-0.5,0c0.3,0.3,0.6,0.5,0.7,0.5C98.1,105.6,98.2,105.4,98.3,105.2z M107.8,83.1
		c-0.6,0-1.1,0.1-1.7,0.3c-0.5,0.2-1.1,0.5-1.7,0.8s-1.2,0.6-1.7,0.9s-1.2,0.4-1.8,0.4c-0.7,0.5-1.3,0.8-1.6,1.1s-0.8,0.5-1.4,0.6
		c0.1,0.4,0,0.7,0,0.9c-0.1,0.2-0.1,0.4,0,0.6c0.5,0.1,0.9,0,1.1-0.3c0.2-0.3,0.4-0.5,0.5-0.5c1.2-0.6,2.2-1.2,3.1-1.8
		c0.8-0.6,1.9-1.1,3.1-1.4c0.2-0.3,0.4-0.5,0.6-0.5c0.2,0,0.5-0.2,0.7-0.4c0.3-0.3,0.5-0.4,0.7-0.3
		C107.8,83.6,107.8,83.5,107.8,83.1z M98.8,83.2c-0.6,0.5-1,0.7-1.1,0.8c0.2,0.1,0.4,0.1,0.7,0C98.7,83.8,98.8,83.5,98.8,83.2z
		 M99.6,78c-0.3-0.1-0.6,0-0.9,0.2c-0.4,0.2-0.6,0.4-0.8,0.6c0.3-0.1,0.6-0.2,1-0.3C99.2,78.4,99.4,78.2,99.6,78z M99.2,89.5
		c-0.2-0.1-0.4-0.1-0.6,0c-0.2,0.1-0.4,0.3-0.5,0.4c0.1,0.1,0.3,0,0.6,0C98.9,89.7,99.1,89.6,99.2,89.5z M108.3,100
		c-0.6,0.1-1.2,0.3-1.8,0.5c-0.6,0.2-1.3,0.4-2.2,0.5c-0.3,0.5-0.6,0.8-1.1,0.9c-0.5,0.1-0.8,0.4-1,0.9c-0.3,0.3-0.7,0.5-1.4,0.6
		c-0.6,0.1-1.1,0.4-1.5,0.7c-0.3,0.3-0.4,0.4-0.5,0.5s-0.2,0.2-0.2,0.4c0.9-0.5,1.9-1,2.9-1.5c1-0.5,2-1,3-1.5
		c1-0.3,1.7-0.6,2.2-0.9C107.2,100.8,107.8,100.4,108.3,100z M105.3,57.1c-0.4,0.3-0.9,0.5-1.5,0.5c-0.6,0-1.1,0.3-1.3,0.8
		c-0.9,0.3-1.5,0.7-1.8,1.1c-0.3,0.4-0.7,0.6-1.3,0.4c0.1,0.5,0.4,0.7,0.8,0.6c0.4-0.1,0.8-0.2,1.2-0.4c0.4-0.2,0.8-0.2,1.2-0.2
		s0.6,0.3,0.8,1c-0.1,0.6-0.2,0.9-0.3,1c-0.2,0.1-0.2,0.3-0.2,0.6c0.6-0.1,0.9-0.2,0.9-0.5c0-0.3,0.2-0.3,0.6-0.2
		c0.3-0.6,0.6-1.3,0.9-2.3C105.6,58.8,105.6,57.9,105.3,57.1z M102.5,88c-0.5,0.5-0.8,0.7-1,0.7c-0.2,0-0.3,0-0.2-0.2
		c0.3-0.1,0.5-0.2,0.6-0.3C102.1,88.1,102.3,88,102.5,88z M103.2,93.6c-0.4-0.1-0.7-0.2-1-0.2c-0.3,0-0.4,0.1-0.3,0.4
		c0.3,0.1,0.5,0.1,0.7,0C102.7,93.8,102.9,93.7,103.2,93.6z M104.8,86.9c-0.3,0.4-0.5,0.6-0.7,0.7c-0.1,0.1-0.3,0.1-0.4,0.2
		c-0.1,0.1-0.3,0.2-0.4,0.2c-0.1,0.1-0.3,0-0.5-0.1c0.3-0.3,0.6-0.5,0.9-0.6C104.1,87.2,104.4,87.1,104.8,86.9z M104.6,80.6
		c-0.3-0.2-0.6-0.2-0.8,0.1c-0.2,0.3-0.5,0.4-0.8,0.5c0.3-0.1,0.6-0.1,0.8-0.2C104.1,80.8,104.3,80.7,104.6,80.6z M104.5,92.3
		c-0.3,0.3-0.5,0.4-0.8,0.3c-0.3-0.1-0.4,0-0.3,0.4c0.3-0.1,0.5-0.2,0.7-0.2C104.2,92.8,104.3,92.6,104.5,92.3z M105.9,80.3
		c-0.1-0.3-0.3-0.4-0.6-0.2c-0.3,0.2-0.5,0.4-0.7,0.5c0.2-0.1,0.4-0.2,0.6-0.1C105.5,80.5,105.7,80.4,105.9,80.3z M108.4,85.7
		c-0.2-0.3-0.4-0.4-0.5-0.2c-0.2,0.2-0.3,0.3-0.5,0.4c-0.5,0.3-1,0.5-1.4,0.8c-0.4,0.3-0.8,0.2-1-0.3c1.1-0.2,1.9-0.6,2.3-1.3h1.1
		L108.4,85.7z M107.7,81.8c-0.3-0.3-0.6-0.3-1,0c-0.3,0.3-0.6,0.5-0.9,0.7c0.3,0,0.6,0,1.1-0.1C107.3,82.3,107.6,82.2,107.7,81.8z"
		/>
</g>
</svg>
