<?xml version="1.0" encoding="utf-8"?>
<!-- Generator: Adobe Illustrator 21.1.0, SVG Export Plug-In . SVG Version: 6.00 Build 0)  -->
<svg version="1.1" xmlns="http://www.w3.org/2000/svg" xmlns:xlink="http://www.w3.org/1999/xlink" x="0px" y="0px"
	 viewBox="0 0 1170 2200" style="enable-background:new 0 0 1170 2200;" xml:space="preserve">
<style type="text/css">
	.st0{fill:#353535;}
	.st1{fill:#FFFFFF;}
	.st2{fill:#A7A9AC;}
	.st3{fill:#F37976;}
	.st4{font-family:'Lato-Light';}
	.st5{font-size:126.7929px;}
	.st6{fill:url(#SVGID_1_);}
	.st7{fill:url(#SVGID_2_);}
	.st8{fill:url(#SVGID_3_);}
	.st9{fill:url(#SVGID_4_);}
	.st10{fill:url(#SVGID_5_);}
	.st11{fill:url(#SVGID_6_);}
	.st12{opacity:0.4;fill:#C85C1A;}
	.st13{opacity:0.3;fill:#787878;}
	.st14{font-size:181.4951px;}
	.st15{fill:url(#SVGID_7_);}
	.st16{fill:url(#SVGID_8_);}
	.st17{fill:url(#SVGID_9_);}
	.st18{fill:url(#SVGID_10_);}
	.st19{fill:url(#SVGID_11_);}
	.st20{fill:url(#SVGID_12_);}
	.st21{fill:#F6B6B5;}
	.st22{font-size:156.2494px;}
</style>
<g id="background">
	<rect y="1420" class="st0" width="1170" height="780"/>
	<rect class="st1" width="1170" height="780"/>
	<rect y="780" class="st1" width="1170" height="640"/>
	<g>
		<rect y="779.8" class="st2" width="1170" height="0.5"/>
	</g>
</g>
<g id="Logo">
	<text transform="matrix(1 0 0 1 451.9963 552.9902)" class="st3 st4 st5">coral</text>
	<g>
		<g>
			<linearGradient id="SVGID_1_" gradientUnits="userSpaceOnUse" x1="453.6939" y1="300.063" x2="703.7197" y2="300.063">
				<stop  offset="0.2897" style="stop-color:#ACDCD1"/>
				<stop  offset="0.8332" style="stop-color:#80BAB0"/>
			</linearGradient>
			<path class="st6" d="M660.6,337.9c-14.2,28.5-43.8,47.9-77.9,47.3c-46.2-0.9-83.6-39.2-83.4-85.5c0.2-46.8,38.2-84.7,85.1-84.7
				c33.4,0,62.3,19.2,76.2,47.3c3.8,7.6,11.4,12.5,19.8,12.5h0.7c16.8,0,27.7-17.7,20.2-32.7c-21.5-43.2-66.1-72.8-117.6-72.5
				c-70.8,0.3-128.9,57.8-130,128.6c-1.1,73,57.8,132.6,130.6,132.6c51.3,0,95.6-29.5,117-72.5c7.5-15.1-3.6-32.8-20.4-32.8l0,0
				C672.3,325.4,664.4,330.2,660.6,337.9z"/>
			<linearGradient id="SVGID_2_" gradientUnits="userSpaceOnUse" x1="592.2698" y1="159.4784" x2="699.0027" y2="266.2113">
				<stop  offset="0.4" style="stop-color:#F58220"/>
				<stop  offset="0.85" style="stop-color:#FFCB05"/>
			</linearGradient>
			<path class="st7" d="M660.5,262.1C660.5,262.1,660.5,262.1,660.5,262.1c3.8,7.6,11.2,12.6,19.7,12.6h0.9
				c16.6,0,27.7-17.4,20.4-32.4c-21.4-43.4-66.1-73.1-117.8-72.9c-0.5,0-1,0-1.4,0c35,0.7,64.6,36.3,76,85.9
				C658.7,257.7,659.4,260,660.5,262.1z"/>
			<linearGradient id="SVGID_3_" gradientUnits="userSpaceOnUse" x1="592.396" y1="440.6427" x2="698.9664" y2="334.0723">
				<stop  offset="0.4" style="stop-color:#F58220"/>
				<stop  offset="0.85" style="stop-color:#FFCB05"/>
			</linearGradient>
			<path class="st8" d="M678.2,325.6c-7.7,0.8-14.3,5.9-17.9,12.8c0,0,0,0,0,0.1c-0.9,1.7-1.5,3.5-1.9,5.4c-11.2,50-40.9,86-76,86.8
				c0.6,0,1.3,0,1.9,0c51.3,0,95.6-29.5,117-72.5C709.2,342.3,696.5,323.6,678.2,325.6z"/>
			<linearGradient id="SVGID_4_" gradientUnits="userSpaceOnUse" x1="514.8564" y1="430.3777" x2="514.8564" y2="169.7361">
				<stop  offset="0.2" style="stop-color:#F37976"/>
				<stop  offset="0.85" style="stop-color:#F58E8A"/>
			</linearGradient>
			<path class="st9" d="M499.2,300.8c0-0.4,0-0.8,0-1.2c0-0.4,0-0.9,0-1.3c0.5-68.6,34.3-124.4,76.8-128.7
				c-67.3,4.3-121.3,60.1-122.3,128.4c-1,70.2,53.3,127.9,122.2,132.3C533.3,426.1,499.5,369.8,499.2,300.8z"/>
			<linearGradient id="SVGID_5_" gradientUnits="userSpaceOnUse" x1="592.2698" y1="159.4784" x2="699.0027" y2="266.2113">
				<stop  offset="0.2" style="stop-color:#F37976"/>
				<stop  offset="0.85" style="stop-color:#F6B6B5"/>
			</linearGradient>
			<path class="st10" d="M660.5,262.1C660.5,262.1,660.5,262.1,660.5,262.1c3.8,7.6,11.2,12.6,19.7,12.6h0.9
				c16.6,0,27.7-17.4,20.4-32.4c-21.4-43.4-66.1-73.1-117.8-72.9c-0.5,0-1,0-1.4,0c35,0.7,64.6,36.3,76,85.9
				C658.7,257.7,659.4,260,660.5,262.1z"/>
			<linearGradient id="SVGID_6_" gradientUnits="userSpaceOnUse" x1="592.396" y1="440.6427" x2="698.9664" y2="334.0723">
				<stop  offset="0.2" style="stop-color:#F37976"/>
				<stop  offset="0.85" style="stop-color:#F6B6B5"/>
			</linearGradient>
			<path class="st11" d="M678.2,325.6c-7.7,0.8-14.3,5.9-17.9,12.8c0,0,0,0,0,0.1c-0.9,1.7-1.5,3.5-1.9,5.4
				c-11.2,50-40.9,86-76,86.8c0.6,0,1.3,0,1.9,0c51.3,0,95.6-29.5,117-72.5C709.2,342.3,696.5,323.6,678.2,325.6z"/>
			<path class="st12" d="M665.3,268.6c-0.2-0.2-0.4-0.4-0.6-0.6C665,268.2,665.1,268.4,665.3,268.6z"/>
			<path class="st12" d="M662.6,265.6c0.3,0.4,0.6,0.9,1,1.3C663.3,266.4,663,266,662.6,265.6z"/>
			<path class="st12" d="M670.7,327.9c0.3-0.2,0.7-0.3,1-0.5C671.4,327.6,671,327.7,670.7,327.9z"/>
			<path class="st12" d="M585.3,169.5C585.3,169.5,585.3,169.5,585.3,169.5c-0.5,0-1-0.1-1.5,0h0
				C584.3,169.5,584.8,169.5,585.3,169.5z"/>
			<path class="st13" d="M660.1,261.2c-3.1-6.1-7-11.8-11.4-16.9C637,200.7,612,170.4,583,169.5c34.6,1.2,64,36.6,75.2,85.9
				C658.7,257.3,659.3,259.3,660.1,261.2L660.1,261.2z M659.6,339.6c-3,5.8-6.7,11.1-11,16c-11.7,43.5-36.5,73.8-65.5,74.9
				c34.8-1.3,64.2-37.1,75.3-86.8c0.3-1.4,0.8-2.7,1.3-4L659.6,339.6z M576.9,169.7c-30,3.3-55.1,37.9-65,85.6
				c-6.8,10.9-11.1,23.5-12.3,37h-0.2c2.4-64.7,34.3-116.6,74.5-122.3C574.9,169.8,575.9,169.7,576.9,169.7z M511.8,344.4
				c-6.7-10.9-11-23.4-12.2-36.7h-0.2c2.4,64.6,34.2,116.6,74.5,122.3c1,0.1,2,0.2,3,0.3C546.8,426.9,521.6,392.1,511.8,344.4z"/>
			<path class="st3" d="M499.2,300.8c0-0.4,0-0.8,0-1.2c0-0.4,0-0.9,0-1.3c0.5-68.6,34.3-124.4,76.8-128.7c-1.1,0.1-2.2,0.2-3.2,0.3
				c-42.4,5.8-75.7,60.9-76.3,128.4c0,0.4,0,0.9,0,1.3c0,0.4,0,0.8,0,1.2c0.3,67.9,33.7,123.4,76.2,129.3c1.1,0.1,2.1,0.2,3.2,0.3
				C533.3,426.1,499.5,369.8,499.2,300.8z"/>
		</g>
	</g>
	<g>
		<text transform="matrix(1 0 0 1 522.9543 1155.8809)" class="st3 st4 st14">coral</text>
		<g>
			<g>
				<linearGradient id="SVGID_7_" gradientUnits="userSpaceOnUse" x1="269.9036" y1="1105.2271" x2="469.5567" y2="1105.2271">
					<stop  offset="0.2897" style="stop-color:#ACDCD1"/>
					<stop  offset="0.8332" style="stop-color:#80BAB0"/>
				</linearGradient>
				<path class="st15" d="M435.1,1135.4c-11.3,22.8-35,38.3-62.2,37.7c-36.9-0.7-66.8-31.3-66.6-68.2c0.2-37.4,30.5-67.7,68-67.7
					c26.7,0,49.8,15.4,60.9,37.7c3,6.1,9.1,10,15.8,10h0.6c13.4,0,22.1-14.1,16.1-26.1c-17.1-34.5-52.8-58.1-93.9-57.9
					c-56.5,0.3-103,46.2-103.8,102.7c-0.9,58.3,46.2,105.9,104.3,105.9c40.9,0,76.3-23.6,93.4-57.9c6-12-2.9-26.2-16.3-26.2l0,0
					C444.5,1125.5,438.1,1129.3,435.1,1135.4z"/>
				<linearGradient id="SVGID_8_" gradientUnits="userSpaceOnUse" x1="380.5606" y1="992.9661" x2="465.7901" y2="1078.1956">
					<stop  offset="0.4" style="stop-color:#F58220"/>
					<stop  offset="0.85" style="stop-color:#FFCB05"/>
				</linearGradient>
				<path class="st16" d="M435,1074.9C435.1,1074.9,435.1,1075,435,1074.9c3,6.1,9,10.1,15.7,10.1h0.8c13.3,0,22.2-13.9,16.3-25.8
					c-17.1-34.6-52.8-58.4-94.1-58.2c-0.4,0-0.8,0-1.1,0c27.9,0.6,51.6,29,60.7,68.6C433.6,1071.4,434.2,1073.2,435,1074.9z"/>
				<linearGradient id="SVGID_9_" gradientUnits="userSpaceOnUse" x1="380.6614" y1="1217.4843" x2="465.7611" y2="1132.3846">
					<stop  offset="0.4" style="stop-color:#F58220"/>
					<stop  offset="0.85" style="stop-color:#FFCB05"/>
				</linearGradient>
				<path class="st17" d="M449.2,1125.6c-6.2,0.7-11.4,4.7-14.3,10.2c0,0,0,0,0,0.1c-0.7,1.4-1.2,2.8-1.5,4.3
					c-8.9,40-32.7,68.7-60.7,69.3c0.5,0,1,0,1.5,0c40.9,0,76.3-23.6,93.4-57.9C473.9,1139,463.8,1124,449.2,1125.6z"/>
				<linearGradient id="SVGID_10_" gradientUnits="userSpaceOnUse" x1="318.7438" y1="1209.2874" x2="318.7438" y2="1001.1572">
					<stop  offset="0.2" style="stop-color:#F37976"/>
					<stop  offset="0.85" style="stop-color:#F58E8A"/>
				</linearGradient>
				<path class="st18" d="M306.3,1105.9c0-0.3,0-0.6,0-0.9c0-0.3,0-0.7,0-1c0.4-54.8,27.4-99.4,61.3-102.7
					c-53.7,3.4-96.9,48-97.7,102.5c-0.8,56.1,42.6,102.1,97.6,105.6C333.4,1205.8,306.5,1160.9,306.3,1105.9z"/>
				<linearGradient id="SVGID_11_" gradientUnits="userSpaceOnUse" x1="380.5606" y1="992.9661" x2="465.7901" y2="1078.1956">
					<stop  offset="0.2" style="stop-color:#F37976"/>
					<stop  offset="0.85" style="stop-color:#F6B6B5"/>
				</linearGradient>
				<path class="st19" d="M435,1074.9C435.1,1074.9,435.1,1075,435,1074.9c3,6.1,9,10.1,15.7,10.1h0.8c13.3,0,22.2-13.9,16.3-25.8
					c-17.1-34.6-52.8-58.4-94.1-58.2c-0.4,0-0.8,0-1.1,0c27.9,0.6,51.6,29,60.7,68.6C433.6,1071.4,434.2,1073.2,435,1074.9z"/>
				<linearGradient id="SVGID_12_" gradientUnits="userSpaceOnUse" x1="380.6614" y1="1217.4843" x2="465.7611" y2="1132.3846">
					<stop  offset="0.2" style="stop-color:#F37976"/>
					<stop  offset="0.85" style="stop-color:#F6B6B5"/>
				</linearGradient>
				<path class="st20" d="M449.2,1125.6c-6.2,0.7-11.4,4.7-14.3,10.2c0,0,0,0,0,0.1c-0.7,1.4-1.2,2.8-1.5,4.3
					c-8.9,40-32.7,68.7-60.7,69.3c0.5,0,1,0,1.5,0c40.9,0,76.3-23.6,93.4-57.9C473.9,1139,463.8,1124,449.2,1125.6z"/>
				<path class="st12" d="M438.9,1080.1c-0.2-0.1-0.3-0.3-0.5-0.4C438.6,1079.8,438.7,1080,438.9,1080.1z"/>
				<path class="st12" d="M436.8,1077.7c0.3,0.3,0.5,0.7,0.8,1C437.3,1078.4,437,1078,436.8,1077.7z"/>
				<path class="st12" d="M443.2,1127.4c0.3-0.1,0.5-0.3,0.8-0.4C443.7,1127.2,443.5,1127.3,443.2,1127.4z"/>
				<path class="st12" d="M375,1001C375,1001,375,1001,375,1001c-0.4,0-0.8,0-1.2,0h0C374.2,1000.9,374.6,1001,375,1001z"/>
				<path class="st13" d="M434.7,1074.2c-2.5-4.9-5.6-9.4-9.1-13.5c-9.3-34.8-29.2-59-52.4-59.8c27.7,1,51.1,29.2,60.1,68.6
					C433.6,1071.1,434.1,1072.7,434.7,1074.2L434.7,1074.2z M434.3,1136.8c-2.4,4.6-5.4,8.9-8.7,12.8c-9.3,34.7-29.2,58.9-52.3,59.8
					c27.8-1,51.3-29.6,60.1-69.3c0.2-1.1,0.6-2.2,1-3.2L434.3,1136.8z M368.3,1001.1c-23.9,2.6-44,30.3-51.9,68.3
					c-5.4,8.7-8.9,18.8-9.9,29.6h-0.2c1.9-51.6,27.4-93.1,59.5-97.6C366.7,1001.2,367.5,1001.1,368.3,1001.1z M316.3,1140.6
					c-5.4-8.7-8.8-18.7-9.8-29.3h-0.2c1.9,51.6,27.3,93.1,59.5,97.6c0.8,0.1,1.6,0.2,2.4,0.2
					C344.2,1206.5,324.2,1178.8,316.3,1140.6z"/>
				<path class="st3" d="M306.3,1105.9c0-0.3,0-0.6,0-0.9c0-0.3,0-0.7,0-1c0.4-54.8,27.4-99.4,61.3-102.7c-0.9,0.1-1.7,0.2-2.6,0.2
					c-33.9,4.6-60.5,48.6-60.9,102.5c0,0.3,0,0.7,0,1c0,0.3,0,0.6,0,0.9c0.2,54.2,26.9,98.6,60.9,103.2c0.8,0.1,1.7,0.2,2.5,0.2
					C333.4,1205.8,306.5,1160.9,306.3,1105.9z"/>
			</g>
		</g>
	</g>
	<g>
		<g>
			<text transform="matrix(1 0 0 1 531.853 1873.0469)" class="st21 st4 st22">coral</text>
		</g>
		<g>
			<g>
				<path class="st21" d="M402.4,1739.7c0.1,0,0.2,0,0.4,0c35.4-0.2,66.1,20.2,80.8,49.8c5.1,10.3-2.3,22.5-13.9,22.5h-0.5
					c-5.8,0-11-3.4-13.6-8.6c-0.2-0.4-0.4-0.8-0.6-1.2c0.1,0.2,0.2,0.3,0.3,0.5l0.1,0c-0.6-1.3-1-2.6-1.3-4
					c-7.5-32.9-26.8-56.9-49.8-58.9C403.6,1739.7,403,1739.7,402.4,1739.7z"/>
				<path class="st21" d="M458.8,1807.8c-0.1-0.1-0.3-0.3-0.4-0.4C458.6,1807.5,458.7,1807.6,458.8,1807.8z"/>
				<path class="st21" d="M457,1805.7c0.2,0.3,0.4,0.6,0.7,0.9C457.4,1806.3,457.2,1806,457,1805.7z"/>
				<path class="st21" d="M463.2,1848.1c-0.2,0.1-0.5,0.2-0.7,0.3C462.7,1848.4,463,1848.2,463.2,1848.1z"/>
				<path class="st21" d="M402.8,1739.7L402.8,1739.7c0.4,0,0.7,0,1,0c0,0,0,0,0,0C403.5,1739.7,403.2,1739.7,402.8,1739.7z"/>
				<path class="st21" d="M447.4,1791.1c-7.8-29-24.1-49.4-43.2-51.3c-0.6-0.1-1.2-0.1-1.8-0.1c-1.5,0-2.9,0.1-4.4,0.1
					c-20.5,2.3-37.8,26.3-44.6,58.9c10.3-16.7,28.7-27.8,49.7-27.8c17.8,0,33.8,8,44.5,20.5C447.6,1791.3,447.5,1791.2,447.4,1791.1
					z"/>
				<path class="st21" d="M469.5,1846.8c-5.9,0-11.3,3.3-13.9,8.6c-0.2,0.4-0.4,0.8-0.6,1.2l0,0c-0.4,0.9-0.7,1.8-0.9,2.8
					c-7.4,33.2-26.8,57.4-49.9,59.5c-0.6,0.1-1.2,0.1-1.9,0.1c0.6,0,1.3-0.1,1.9-0.1c19.1-1.9,35.3-22.3,43.1-51.2
					c-11,12.6-27.2,20.5-45.3,20.1c-20.5-0.4-38.5-11.5-48.6-27.9c6.7,32.8,24,56.6,44.6,58.9c-0.7,0-1.4-0.1-2-0.2
					c-27.6-3.9-49.5-39.6-51.2-84h0.1c-0.2-1.8-0.3-3.7-0.2-5.5c0-1.7,0.1-3.4,0.3-5.1h-0.1c1.6-44.4,23.5-80.1,51.2-84
					c0.6-0.1,1.2-0.1,1.9-0.2c-46.4,2.7-83.7,41.2-84.4,88.2c-0.7,50.2,39.7,91.1,89.7,91.1c35.2,0,65.7-20.3,80.4-49.8
					C488.7,1858.9,481.1,1846.8,469.5,1846.8z"/>
			</g>
		</g>
	</g>
</g>
</svg>
